<svg width="47" height="115" viewBox="0 0 47 115" fill="none" xmlns="http://www.w3.org/2000/svg">
<path d="M23.8963 34.3744C16.8889 34.3744 11.1836 28.669 11.1836 21.6615C11.1836 14.654 16.8889 8.94238 23.8963 8.94238C30.9036 8.94238 36.6089 14.6479 36.6089 21.6553C36.6089 28.6628 30.9036 34.3683 23.8963 34.3683V34.3744ZM23.8963 11.7675C18.4427 11.7675 14.0025 16.2017 14.0025 21.6615C14.0025 27.1213 18.4427 31.5555 23.8963 31.5555C29.3498 31.5555 33.79 27.1213 33.79 21.6615C33.79 16.2017 29.3498 11.7675 23.8963 11.7675Z" fill="#CAEA38"/>
<path d="M23.8963 8.94238C16.8889 8.94238 11.1836 14.6479 11.1836 21.6553C11.1836 28.6628 16.8889 34.3683 23.8963 34.3683C30.9036 34.3683 36.6089 28.6628 36.6089 21.6553C36.6089 14.6479 30.9036 8.94238 23.8963 8.94238ZM23.8963 32.9066C17.6935 32.9066 12.6514 27.8583 12.6514 21.6553C12.6514 15.4524 17.6996 10.4041 23.8963 10.4041C30.0929 10.4041 35.1473 15.4524 35.1473 21.6553C35.1473 27.8583 30.0991 32.9066 23.8963 32.9066Z" fill="#F7F7F7"/>
<path d="M43.9241 114.14C43.9241 114.613 43.5433 114.994 43.0704 114.994C42.5976 114.994 42.2168 114.613 42.2168 114.14V107.507C42.2168 107.035 42.5976 106.654 43.0704 106.654C43.5433 106.654 43.9241 107.035 43.9241 107.507V114.14Z" fill="#F7F7F7"/>
<path d="M43.0645 106.654V115C43.5373 115 43.9181 114.619 43.9181 114.146V107.514C43.9181 107.041 43.5373 106.66 43.0645 106.66V106.654Z" fill="#F7F7F7"/>
<path d="M45.8276 62.3857H1.13672V63.0736H45.8276V62.3857Z" fill="#363C46"/>
<path d="M45.8273 105.462L28.8894 27.6123L23.3867 28.8099L40.2755 106.42C40.2755 106.512 40.2878 106.611 40.3124 106.703C40.5703 107.808 42.0074 108.416 43.5305 108.066C45.0412 107.716 46.0607 106.555 45.8273 105.456V105.462Z" fill="#F7F7F7"/>
<g style="mix-blend-mode:multiply">
<path d="M23.3867 28.8099L40.2755 106.42C40.2755 106.512 40.2878 106.611 40.3124 106.703C40.5703 107.808 42.0074 108.416 43.5305 108.066L26.353 28.165L23.3867 28.8099Z" fill="#CFD0D2"/>
</g>
<path d="M8.70203 102.742L24.7863 28.8099L19.2836 27.6123L2.3457 105.462H2.36413C2.35184 105.536 2.3457 105.61 2.3457 105.689C2.3457 106.826 3.61083 107.741 5.17688 107.741C5.45324 107.741 5.71732 107.71 5.96912 107.655L5.93841 115L7.81767 106.654H7.84224L8.62834 103.049L8.69589 102.748L8.70203 102.742Z" fill="#F7F7F7"/>
<g style="mix-blend-mode:multiply">
<path d="M4.24414 107.649C4.78458 107.747 4.6986 107.735 5.17763 107.735C5.45399 107.735 5.71807 107.704 5.96987 107.649L5.93916 114.994L7.81842 106.648H7.84299L8.62909 103.042L8.69664 102.742L24.7871 28.8099L21.8208 28.165L4.24414 107.649Z" fill="#CFD0D2"/>
</g>
<path d="M29.9761 19.5977H17.8223V31.2358H29.9761V19.5977Z" fill="#F7F7F7"/>
<g style="mix-blend-mode:soft-light">
<path d="M23.3547 24.2898C23.889 25.2847 24.9576 26.0156 26.3087 26.4209C27.1255 26.6666 28.0222 26.8447 28.8943 26.9V20.6172H22.0098C22.28 21.9069 22.7467 23.1659 23.3547 24.2837V24.2898Z" fill="white"/>
</g>
<g style="mix-blend-mode:multiply">
<path d="M26.2544 29.5039C24.0681 28.7854 21.8387 27.5509 20.7578 25.4137C19.8551 23.6326 19.0935 21.6366 18.7558 19.5977H17.8223V31.2358H29.9761V30.1427C28.6802 30.1058 27.4028 29.8786 26.2605 29.5039H26.2544Z" fill="#BABCBE"/>
</g>
<path d="M42.9713 101.538C42.9713 103.116 41.6938 104.394 40.1155 104.394C38.5372 104.394 37.2598 103.116 37.2598 101.538C37.2598 99.9596 38.5372 98.6821 40.1155 98.6821C41.6938 98.6821 42.9713 99.9596 42.9713 101.538Z" fill="#4B525E"/>
<path d="M42.0571 101.538C42.0571 102.613 41.1851 103.479 40.1165 103.479C39.0479 103.479 38.1758 102.607 38.1758 101.538C38.1758 100.469 39.0479 99.5972 40.1165 99.5972C41.1851 99.5972 42.0571 100.469 42.0571 101.538Z" fill="#616A79"/>
<path d="M41.2765 101.538C41.2765 102.183 40.7545 102.699 40.1158 102.699C39.4771 102.699 38.9551 102.177 38.9551 101.538C38.9551 100.899 39.4771 100.371 40.1158 100.371C40.7545 100.371 41.2765 100.893 41.2765 101.538Z" fill="#484F5B"/>
<path d="M22.4652 62.7298C22.4652 65.8497 22.1765 68.38 21.8203 68.38C21.4641 68.38 21.1816 65.8497 21.1816 62.7298C21.1816 59.6099 21.4703 57.0796 21.8203 57.0796C22.1704 57.0796 22.4652 59.6099 22.4652 62.7298Z" fill="#CAEA38"/>
<path d="M2.34601 61.4644H0V64.6702H2.34601V61.4644Z" fill="#CAEA38"/>
<path d="M47.0003 61.4644H44.6543V64.6702H47.0003V61.4644Z" fill="#CAEA38"/>
<path d="M27.4342 32.3842C27.4342 34.3372 25.8498 35.9217 23.8968 35.9217C21.9439 35.9217 20.3594 34.3372 20.3594 32.3842C20.3594 30.4312 21.9439 28.8467 23.8968 28.8467C25.8498 28.8467 27.4342 30.4312 27.4342 32.3842Z" fill="#CAEA38"/>
<g style="mix-blend-mode:soft-light">
<path d="M23.0737 31.8436C24.0748 33.2254 25.9356 33.25 26.9367 31.862C26.6665 30.4065 25.3891 29.3071 23.8537 29.3071C23.4484 29.3071 23.0553 29.387 22.6991 29.5282C22.5333 30.3328 22.6991 31.3338 23.0676 31.8436H23.0737Z" fill="#CAEA38"/>
</g>
<g style="mix-blend-mode:multiply">
<path d="M22.2691 32.6666C21.6795 31.9787 21.3601 30.9531 21.354 29.9336C20.7399 30.5723 20.3652 31.4321 20.3652 32.3841C20.3652 34.3371 21.9497 35.9216 23.9027 35.9216C25.5056 35.9216 26.8567 34.853 27.2927 33.3913C25.7328 34.4415 23.6509 34.2695 22.2752 32.6666H22.2691Z" fill="#CAEA38"/>
</g>
<path d="M25.9838 13.5113C25.9838 14.6107 25.0933 15.4951 24.0001 15.4951C22.9008 15.4951 22.0164 14.6045 22.0164 13.5113L20.9785 3.10146C20.9724 2.00213 21.7892 -5.8302e-06 24.0001 -5.8302e-06C23.5764 -5.8302e-06 26.8251 -0.159686 26.8251 2.86194L25.9899 13.5113H25.9838Z" fill="#CAEA38"/>
<g style="mix-blend-mode:multiply">
<path d="M22.68 11.1406C22.2439 9.1692 22.2992 7.08723 22.3729 5.07281C22.4343 3.42688 22.5633 1.76867 22.9563 0.171875C21.5315 0.681621 20.9727 2.19244 20.9727 3.09524L22.0105 13.5051C22.0105 14.6045 22.901 15.4888 23.9942 15.4888C24.7066 15.4888 25.3269 15.1142 25.677 14.5492C24.2951 14.2421 23.0607 12.8787 22.6738 11.1284L22.68 11.1406Z" fill="#BABCBE"/>
</g>
<g style="mix-blend-mode:soft-light">
<path d="M23.3184 7.69531C23.3368 9.04645 23.3675 10.6187 24.172 11.7794C24.5528 12.326 25.0318 12.6392 25.517 12.6945L26.2601 3.24885C26.2601 1.17916 24.559 0.786101 23.9325 0.712402C23.2938 2.9602 23.2815 5.37996 23.3184 7.70146V7.69531Z" fill="white"/>
</g>
</svg>
