<svg width="127" height="104" viewBox="0 0 127 104" fill="none" xmlns="http://www.w3.org/2000/svg">
<g clip-path="url(#clip0_764_7340)">
<path d="M113.061 33.5532H21.5831C20.5987 33.5532 19.8008 34.3514 19.8008 35.336V95.442C19.8008 96.4266 20.5987 97.2248 21.5831 97.2248H113.061C114.045 97.2248 114.843 96.4266 114.843 95.442V35.336C114.843 34.3514 114.045 33.5532 113.061 33.5532Z" fill="#CAEA38"/>
<path d="M113.062 35.3358V95.4418H21.5844V35.3358H113.062ZM113.062 31.7739H21.5844C20.6406 31.7739 19.7331 32.1479 19.0652 32.816C18.3973 33.4841 18.0234 34.3918 18.0234 35.3358V95.4418C18.0234 96.3859 18.3973 97.2936 19.0652 97.9617C19.7331 98.6298 20.6406 99.0038 21.5844 99.0038H113.062C114.006 99.0038 114.913 98.6298 115.581 97.9617C116.249 97.2936 116.623 96.3859 116.623 95.4418V35.3358C116.623 34.3918 116.249 33.4841 115.581 32.816C114.913 32.1479 114.006 31.7739 113.062 31.7739Z" fill="#363636"/>
<path d="M10.3162 99.0073H124.328C125.802 99.0073 127 100.206 127 101.68H7.64453C7.64453 100.206 8.84241 99.0073 10.3162 99.0073Z" fill="white"/>
<path d="M121.562 104H13.0822C11.5648 104 10.0838 103.506 8.87144 102.595L7.64453 101.676H127L125.773 102.595C124.557 103.506 123.08 104 121.562 104Z" fill="#CACACA"/>
<path d="M53.6169 99.0073H81.0301C81.0301 99.5193 80.6126 99.9368 80.1008 99.9368H54.5425C54.0307 99.9368 53.6133 99.5193 53.6133 99.0073H53.6169Z" fill="#CACACA"/>
<path d="M28.7562 50.1318H0V90.2388H28.7562V50.1318Z" fill="#363636"/>
<path d="M26.9304 51.9072H1.82227V60.4725H26.9304V51.9072Z" fill="white"/>
<path d="M5.14661 64.3433H5.14298C3.7998 64.3433 2.71094 65.4324 2.71094 66.776V66.7796C2.71094 68.1231 3.7998 69.2123 5.14298 69.2123H5.14661C6.4898 69.2123 7.57866 68.1231 7.57866 66.7796V66.776C7.57866 65.4324 6.4898 64.3433 5.14661 64.3433Z" fill="white"/>
<path d="M11.3029 64.3433H11.2992C9.95605 64.3433 8.86719 65.4324 8.86719 66.776V66.7796C8.86719 68.1231 9.95605 69.2123 11.2992 69.2123H11.3029C12.646 69.2123 13.7349 68.1231 13.7349 66.7796V66.776C13.7349 65.4324 12.646 64.3433 11.3029 64.3433Z" fill="white"/>
<path d="M17.4591 64.3433H17.4555C16.1123 64.3433 15.0234 65.4324 15.0234 66.776V66.7796C15.0234 68.1231 16.1123 69.2123 17.4555 69.2123H17.4591C18.8023 69.2123 19.8912 68.1231 19.8912 66.7796V66.776C19.8912 65.4324 18.8023 64.3433 17.4591 64.3433Z" fill="white"/>
<path d="M23.6134 64.3433H23.6098C22.2666 64.3433 21.1777 65.4324 21.1777 66.776V66.7796C21.1777 68.1231 22.2666 69.2123 23.6098 69.2123H23.6134C24.9566 69.2123 26.0455 68.1231 26.0455 66.7796V66.776C26.0455 65.4324 24.9566 64.3433 23.6134 64.3433Z" fill="white"/>
<path d="M5.14661 70.501H5.14298C3.7998 70.501 2.71094 71.5901 2.71094 72.9337V72.9373C2.71094 74.2809 3.7998 75.37 5.14298 75.37H5.14661C6.4898 75.37 7.57866 74.2809 7.57866 72.9373V72.9337C7.57866 71.5901 6.4898 70.501 5.14661 70.501Z" fill="white"/>
<path d="M11.3029 70.501H11.2992C9.95605 70.501 8.86719 71.5901 8.86719 72.9337V72.9373C8.86719 74.2809 9.95605 75.37 11.2992 75.37H11.3029C12.646 75.37 13.7349 74.2809 13.7349 72.9373V72.9337C13.7349 71.5901 12.646 70.501 11.3029 70.501Z" fill="white"/>
<path d="M17.4591 70.501H17.4555C16.1123 70.501 15.0234 71.5901 15.0234 72.9337V72.9373C15.0234 74.2809 16.1123 75.37 17.4555 75.37H17.4591C18.8023 75.37 19.8912 74.2809 19.8912 72.9373V72.9337C19.8912 71.5901 18.8023 70.501 17.4591 70.501Z" fill="white"/>
<path d="M23.6134 70.501H23.6098C22.2666 70.501 21.1777 71.5901 21.1777 72.9337V72.9373C21.1777 74.2809 22.2666 75.37 23.6098 75.37H23.6134C24.9566 75.37 26.0455 74.2809 26.0455 72.9373V72.9337C26.0455 71.5901 24.9566 70.501 23.6134 70.501Z" fill="white"/>
<path d="M5.14661 76.6558H5.14298C3.7998 76.6558 2.71094 77.7449 2.71094 79.0885V79.0921C2.71094 80.4356 3.7998 81.5248 5.14298 81.5248H5.14661C6.4898 81.5248 7.57866 80.4356 7.57866 79.0921V79.0885C7.57866 77.7449 6.4898 76.6558 5.14661 76.6558Z" fill="white"/>
<path d="M11.3029 76.6558H11.2992C9.95605 76.6558 8.86719 77.7449 8.86719 79.0885V79.0921C8.86719 80.4356 9.95605 81.5248 11.2992 81.5248H11.3029C12.646 81.5248 13.7349 80.4356 13.7349 79.0921V79.0885C13.7349 77.7449 12.646 76.6558 11.3029 76.6558Z" fill="white"/>
<path d="M17.4591 76.6558H17.4555C16.1123 76.6558 15.0234 77.7449 15.0234 79.0885V79.0921C15.0234 80.4356 16.1123 81.5248 17.4555 81.5248H17.4591C18.8023 81.5248 19.8912 80.4356 19.8912 79.0921V79.0885C19.8912 77.7449 18.8023 76.6558 17.4591 76.6558Z" fill="white"/>
<path d="M23.6134 76.6558H23.6098C22.2666 76.6558 21.1777 77.7449 21.1777 79.0885V79.0921C21.1777 80.4356 22.2666 81.5248 23.6098 81.5248H23.6134C24.9566 81.5248 26.0455 80.4356 26.0455 79.0921V79.0885C26.0455 77.7449 24.9566 76.6558 23.6134 76.6558Z" fill="white"/>
<path d="M5.14661 82.8135H5.14298C3.7998 82.8135 2.71094 83.9026 2.71094 85.2462V85.2498C2.71094 86.5934 3.7998 87.6825 5.14298 87.6825H5.14661C6.4898 87.6825 7.57866 86.5934 7.57866 85.2498V85.2462C7.57866 83.9026 6.4898 82.8135 5.14661 82.8135Z" fill="white"/>
<path d="M11.3029 82.8135H11.2992C9.95605 82.8135 8.86719 83.9026 8.86719 85.2462V85.2498C8.86719 86.5934 9.95605 87.6825 11.2992 87.6825H11.3029C12.646 87.6825 13.7349 86.5934 13.7349 85.2498V85.2462C13.7349 83.9026 12.646 82.8135 11.3029 82.8135Z" fill="white"/>
<path d="M17.4591 82.8135H17.4555C16.1123 82.8135 15.0234 83.9026 15.0234 85.2462V85.2498C15.0234 86.5934 16.1123 87.6825 17.4555 87.6825H17.4591C18.8023 87.6825 19.8912 86.5934 19.8912 85.2498V85.2462C19.8912 83.9026 18.8023 82.8135 17.4591 82.8135Z" fill="white"/>
<path d="M23.6134 82.8135H23.6098C22.2666 82.8135 21.1777 83.9026 21.1777 85.2462V85.2498C21.1777 86.5934 22.2666 87.6825 23.6098 87.6825H23.6134C24.9566 87.6825 26.0455 86.5934 26.0455 85.2498V85.2462C26.0455 83.9026 24.9566 82.8135 23.6134 82.8135Z" fill="white"/>
<path d="M5.24837 80.1013V78.3585C5.14673 78.4383 4.93256 78.5364 4.81641 78.5582V78.373C4.9616 78.3294 5.15762 78.2132 5.29919 78.0825H5.47342V80.1049H5.24837V80.1013Z" fill="#202020"/>
<path d="M10.6289 80.1123V80.0978C10.6289 79.8255 10.8286 79.5205 11.2387 79.2082C11.5727 78.9505 11.6598 78.8706 11.6598 78.6382C11.6598 78.4276 11.5473 78.2606 11.2859 78.2606C11.0246 78.2606 10.9048 78.3877 10.8576 78.6564H10.6398C10.6761 78.3187 10.8903 78.0718 11.2859 78.0718C11.7179 78.0718 11.8921 78.355 11.8921 78.6309C11.8921 78.9396 11.7614 79.0521 11.3912 79.3462C11.1081 79.5713 10.9447 79.7456 10.8903 79.9163H11.972L11.9393 80.116H10.6325L10.6289 80.1123Z" fill="#202020"/>
<path d="M16.8393 78.5545C16.872 78.3076 17.0462 78.0498 17.4564 78.0498C17.8666 78.0498 18.0445 78.3003 18.0445 78.5654C18.0445 78.8123 17.8993 78.9394 17.7722 78.9829V78.9902C17.9646 79.0519 18.1352 79.2044 18.1352 79.5022C18.1352 79.8289 17.9319 80.1339 17.4528 80.1339C17.0136 80.1339 16.8139 79.8544 16.7812 79.5857H17.0027C17.0462 79.7745 17.1914 79.9415 17.4637 79.9415C17.7758 79.9415 17.9029 79.7345 17.9029 79.5058C17.9029 79.2153 17.7178 79.0919 17.4383 79.0919H17.304V78.9067H17.4129C17.6924 78.9067 17.8158 78.7941 17.8158 78.5727C17.8158 78.3802 17.6851 78.2459 17.4492 78.2459C17.1987 78.2459 17.0971 78.3802 17.0571 78.5581H16.843L16.8393 78.5545Z" fill="#202020"/>
<path d="M5.3824 73.9361V73.3987H4.42773V73.1954L5.36062 71.9282H5.59294V73.2063H5.85792L5.83251 73.4024H5.59294V73.9397H5.37877L5.3824 73.9361ZM5.3824 72.658C5.3824 72.5201 5.3824 72.3022 5.38966 72.1679C5.30618 72.3204 4.88147 72.8977 4.65642 73.2063H5.3824V72.658Z" fill="#202020"/>
<path d="M11.8731 72.1099H11.0237C11.0056 72.2878 10.9511 72.6218 10.9293 72.738C11.0165 72.6363 11.1544 72.5601 11.3686 72.5601C11.7279 72.5601 11.9711 72.807 11.9711 73.2245C11.9711 73.6167 11.7679 73.9544 11.296 73.9544C10.9475 73.9544 10.697 73.7583 10.6426 73.4206H10.8676C10.9148 73.6167 11.0564 73.7655 11.3032 73.7655C11.5936 73.7655 11.7388 73.5586 11.7388 73.2391C11.7388 72.9668 11.6227 72.7525 11.3286 72.7525C11.0709 72.7525 10.962 72.8615 10.8858 73.0321L10.6752 72.9885C10.737 72.7235 10.8096 72.1571 10.8386 71.9102H11.9022L11.8731 72.1099Z" fill="#202020"/>
<path d="M17.8482 72.353C17.8046 72.1932 17.6993 72.0807 17.4852 72.0807C17.1294 72.0807 17.006 72.4147 16.9951 72.8831C17.075 72.7306 17.2275 72.5781 17.5215 72.5781C17.9171 72.5781 18.1349 72.865 18.1349 73.2498C18.1349 73.6347 17.9135 73.976 17.4743 73.976C16.9298 73.976 16.7773 73.5258 16.7773 72.963C16.7773 72.4002 16.9552 71.8955 17.4961 71.8955C17.899 71.8955 18.0442 72.1606 18.0696 72.3566H17.8482V72.353ZM17.9026 73.2644C17.9026 73.032 17.8119 72.7706 17.4852 72.7706C17.2238 72.7706 17.0278 72.9412 17.0278 73.2644C17.0278 73.4314 17.1149 73.7836 17.4707 73.7836C17.7828 73.7836 17.9026 73.5294 17.9026 73.2644Z" fill="#202020"/>
<path d="M5.79365 65.7739V65.9627C5.43792 66.4384 5.1076 67.1863 4.99507 67.7818H4.76638C4.86076 67.2154 5.22012 66.4202 5.55771 65.9736H4.49414V65.7739H5.79365Z" fill="#202020"/>
<path d="M10.6172 67.2151C10.6172 66.9246 10.8096 66.7576 10.9911 66.6922C10.8096 66.6087 10.7043 66.4635 10.7043 66.2638C10.7043 65.9624 10.9148 65.7373 11.3178 65.7373C11.6844 65.7373 11.9058 65.9624 11.9058 66.2602C11.9058 66.4707 11.7897 66.6196 11.619 66.6813C11.8223 66.7467 11.9857 66.9391 11.9857 67.2078C11.9857 67.5818 11.6989 67.8178 11.2924 67.8178C10.9076 67.8178 10.6172 67.5818 10.6172 67.2151ZM11.757 67.2042C11.757 66.9319 11.5864 66.7866 11.3032 66.7866C10.9874 66.7866 10.8459 66.9682 10.8459 67.2006C10.8459 67.4329 11.0092 67.6217 11.2996 67.6217C11.5682 67.6217 11.7534 67.4729 11.7534 67.2006L11.757 67.2042ZM10.9294 66.2565C10.9294 66.4344 11.0419 66.5942 11.3141 66.5942C11.5719 66.5942 11.6808 66.4671 11.6808 66.2674C11.6808 66.0859 11.5646 65.9225 11.3069 65.9225C11.031 65.9225 10.9257 66.0641 10.9257 66.2565H10.9294Z" fill="#202020"/>
<path d="M17.0526 67.3569C17.1144 67.5348 17.2269 67.6256 17.4338 67.6256C17.8512 67.6256 17.8875 67.0446 17.8948 66.7832C17.7968 66.9684 17.6189 67.041 17.3975 67.041C17.0309 67.041 16.7949 66.7723 16.7949 66.402C16.7949 66.0316 17.0309 65.7339 17.4519 65.7339C17.9347 65.7339 18.1198 66.1151 18.1198 66.6561C18.1198 67.1971 18.0182 67.8108 17.4265 67.8108C17.0418 67.8108 16.8784 67.5857 16.824 67.3533H17.0563L17.0526 67.3569ZM17.0236 66.3983C17.0236 66.6707 17.1761 66.8486 17.4302 66.8486C17.7314 66.8486 17.8657 66.6888 17.8657 66.4092C17.8657 66.2894 17.8222 65.93 17.4447 65.93C17.1507 65.93 17.0272 66.1369 17.0272 66.3983H17.0236Z" fill="#202020"/>
<path d="M5.82579 85.2316C5.82579 85.7146 5.69511 86.2882 5.14336 86.2882C4.59161 86.2882 4.46094 85.7581 4.46094 85.2462C4.46094 84.7342 4.61702 84.2041 5.15062 84.2041C5.68422 84.2041 5.82579 84.7306 5.82579 85.2316ZM4.69688 85.2462C4.69688 85.631 4.76948 86.0922 5.14336 86.0922C5.51724 86.0922 5.58984 85.6528 5.58984 85.2316C5.58984 84.8468 5.51724 84.4002 5.15425 84.4002C4.79126 84.4002 4.69688 84.8068 4.69688 85.2498V85.2462Z" fill="#202020"/>
<path d="M24.5231 78.9795V79.2046H22.6973V78.9795H24.5231Z" fill="#202020"/>
<path d="M23.7391 84.1899V85.1086H24.6539V85.3627H23.7391V86.3068H23.4851V85.3627H22.5703V85.1086H23.4851V84.1899H23.7391Z" fill="#202020"/>
<path d="M22.9672 72.1133L23.6024 72.7487L24.2377 72.1133L24.4119 72.2876L23.7767 72.923L24.4301 73.5765L24.2558 73.7508L23.6024 73.0973L22.9672 73.7327L22.793 73.5584L23.4282 72.923L22.793 72.2876L22.9672 72.1133Z" fill="#202020"/>
<path d="M18.3926 84.709V84.9377H16.5195V84.709H18.3926ZM18.3926 85.5586V85.7874H16.5195V85.5586H18.3926Z" fill="#202020"/>
<path d="M11.0137 87.0618C11.2169 86.6407 11.2823 86.2885 11.2968 86.0488H11.5872C11.5545 86.3938 11.4275 86.8004 11.2569 87.0618H11.0137Z" fill="#202020"/>
<path d="M24.6536 66.6489H22.5664V66.9031H24.6536V66.6489Z" fill="#202020"/>
<path d="M23.6123 66.3366C23.7467 66.3366 23.8556 66.2277 23.8556 66.0934C23.8556 65.959 23.7467 65.8501 23.6123 65.8501C23.478 65.8501 23.3691 65.959 23.3691 66.0934C23.3691 66.2277 23.478 66.3366 23.6123 66.3366Z" fill="#202020"/>
<path d="M23.6123 67.7019C23.7467 67.7019 23.8556 67.593 23.8556 67.4586C23.8556 67.3242 23.7467 67.2153 23.6123 67.2153C23.478 67.2153 23.3691 67.3242 23.3691 67.4586C23.3691 67.593 23.478 67.7019 23.6123 67.7019Z" fill="#202020"/>
<path d="M96.5633 0H38.0817C35.8264 0 33.998 1.82881 33.998 4.08477V83.9501C33.998 86.2061 35.8264 88.0349 38.0817 88.0349H96.5633C98.8187 88.0349 100.647 86.2061 100.647 83.9501V4.08477C100.647 1.82881 98.8187 0 96.5633 0Z" fill="white"/>
<path d="M48.0245 3.7583V11.0564H46.9609V3.7583H48.0245Z" fill="#363636"/>
<path d="M49.9844 11.0564V3.7583H51.371C52.3946 5.45393 54.5799 8.97591 54.9755 9.77108H54.99C54.9174 8.86335 54.9247 7.69057 54.9247 6.49963V3.7583H55.9229V11.0564H54.6162C53.6796 9.49876 51.3855 5.67179 50.9463 4.8512H50.9318C50.9826 5.65363 50.9862 6.93171 50.9862 8.2461V11.0564H49.9844Z" fill="#363636"/>
<path d="M59.6152 11.0564L56.9727 3.7583H58.1161L59.3684 7.35653C59.735 8.42038 60.0944 9.46608 60.2541 10.1451H60.2759C60.4283 9.53507 60.824 8.4458 61.2015 7.38921L62.5083 3.7583H63.6045L60.8748 11.0564H59.6189H59.6152Z" fill="#363636"/>
<path d="M70.9945 7.37067C70.9945 9.38219 69.8547 11.165 67.5424 11.165C65.3717 11.165 64.1738 9.50201 64.1738 7.41061C64.1738 5.3192 65.4116 3.65625 67.6295 3.65625C69.6949 3.65625 70.9945 5.19212 70.9945 7.37067ZM65.2846 7.37793C65.2846 8.93195 66.0614 10.2645 67.5896 10.2645C69.2376 10.2645 69.8837 8.90291 69.8837 7.38519C69.8837 5.86747 69.1505 4.55308 67.586 4.55308C66.0215 4.55308 65.2846 5.84205 65.2846 7.37793Z" fill="#363636"/>
<path d="M73.546 3.7583V11.0564H72.4824V3.7583H73.546Z" fill="#363636"/>
<path d="M81.2884 8.95758C80.9689 10.2175 80.0288 11.1506 78.3481 11.1506C76.1448 11.1506 75.0449 9.49859 75.0449 7.4326C75.0449 5.36662 76.152 3.65283 78.3917 3.65283C80.1486 3.65283 81.0815 4.65859 81.292 5.87858H80.2284C79.9852 5.11972 79.4807 4.52788 78.3518 4.52788C76.7909 4.52788 76.1593 5.94393 76.1593 7.39629C76.1593 8.84866 76.7546 10.272 78.3953 10.272C79.5061 10.272 79.9707 9.61841 80.2248 8.95758H81.2956H81.2884Z" fill="#363636"/>
<path d="M87.3296 7.68694H83.7215V10.1523H87.6853L87.551 11.0564H82.6797V3.7583H87.5002V4.6624H83.7215V6.78648H87.3296V7.69057V7.68694Z" fill="#363636"/>
<path d="M96.099 15.4824H38.543V34.1162H96.099V15.4824Z" fill="#CACACA"/>
<g style="mix-blend-mode:multiply">
<path d="M96.099 15.4824H38.543V18.9536H96.099V15.4824Z" fill="#E4E4E4"/>
</g>
<path d="M60.5112 39.3882H38.543V41.1238H60.5112V39.3882Z" fill="#E4E4E4"/>
<path d="M60.5112 42.8989H38.543V44.6345H60.5112V42.8989Z" fill="#E4E4E4"/>
<path d="M55.0523 21.5093H41.3711V23.0379H55.0523V21.5093Z" fill="#F1F1F1"/>
<path d="M63.245 25.0205H41.3711V26.5491H63.245V25.0205Z" fill="#F1F1F1"/>
<path d="M57.9925 28.5352H41.3711V30.0638H57.9925V28.5352Z" fill="#F1F1F1"/>
<path d="M50.5689 61.3008H38.543V62.4627H50.5689V61.3008Z" fill="#E4E4E4"/>
<path d="M50.5689 63.6533H38.543V64.8152H50.5689V63.6533Z" fill="#E4E4E4"/>
<path d="M58.7108 78.9795H38.543V80.1414H58.7108V78.9795Z" fill="#E4E4E4"/>
<path d="M58.7108 81.3286H38.543V82.4905H58.7108V81.3286Z" fill="#E4E4E4"/>
<path d="M96.1021 61.3008H84.0762V62.4627H96.1021V61.3008Z" fill="#E4E4E4"/>
<path d="M96.1021 63.6533H84.0762V64.8152H96.1021V63.6533Z" fill="#E4E4E4"/>
<path d="M60.5112 46.4102H38.543V48.1457H60.5112V46.4102Z" fill="#E4E4E4"/>
<path d="M96.099 49.9248H38.543V50.9996H96.099V49.9248Z" fill="#E4E4E4"/>
<path d="M96.099 52.7754H38.543V53.8501H96.099V52.7754Z" fill="#E4E4E4"/>
<path d="M96.099 55.6255H38.543V56.7002H96.099V55.6255Z" fill="#E4E4E4"/>
<path d="M89.7542 69.9165H70.8314C67.3271 69.9165 64.4863 72.7581 64.4863 76.2633C64.4863 79.7686 67.3271 82.6101 70.8314 82.6101H89.7542C93.2585 82.6101 96.0993 79.7686 96.0993 76.2633C96.0993 72.7581 93.2585 69.9165 89.7542 69.9165Z" fill="#D14242"/>
<path d="M73.1282 73.0972H75.3824C76.7255 73.0972 77.5059 73.8415 77.5059 74.909C77.5059 76.3904 76.4024 77.1093 74.8742 77.1093H73.6618L73.1754 79.4295H71.7852L73.1282 73.1008V73.0972ZM73.9014 75.9874H74.7835C75.6111 75.9874 76.0358 75.6824 76.0358 75.0034C76.0358 74.4987 75.7599 74.2227 75.1065 74.2227H74.2789L73.9014 75.991V75.9874Z" fill="white"/>
<path d="M78.8013 78.0279L78.0826 79.4258H76.6016L79.9847 73.0972H81.7778L82.5692 79.4258H81.1535L80.9792 78.0279H78.7977H78.8013ZM80.9357 76.8769C80.8086 75.617 80.7252 74.742 80.6961 74.1538H80.6852C80.3912 74.7964 79.8939 75.8022 79.3422 76.8769H80.9321H80.9357Z" fill="white"/>
<path d="M83.8444 79.4258L84.3235 77.1456C84.3417 77.073 84.3417 77.0076 84.3126 76.935L83.0059 73.0972H84.4578C84.7047 74.0339 85.1112 75.2793 85.2564 75.9946C85.6702 75.3048 86.6721 73.9904 87.3001 73.0972H88.7992L85.819 77.0076C85.7719 77.0621 85.7356 77.1166 85.7174 77.2182L85.2564 79.4258H83.8407H83.8444Z" fill="white"/>
</g>
<defs>
<clipPath id="clip0_764_7340">
<rect width="127" height="104" fill="white"/>
</clipPath>
</defs>
</svg>
