<svg width="90" height="82" viewBox="0 0 90 82" fill="none" xmlns="http://www.w3.org/2000/svg">
<path d="M90.0005 55.1235C86.414 55.1235 83.5048 52.3986 83.508 49.0382L83.5142 23.0854V18.916C83.5142 14.9883 81.479 11.8047 78.9694 11.8047H78.3451C75.8355 11.8047 71.7152 14.9883 71.7152 18.916H51.9129V44.069H39.3086V55.1266H90.0036L90.0005 55.1235Z" fill="#B4C606"/>
<g style="mix-blend-mode:multiply" opacity="0.31">
<path d="M84.4943 55.1235C81.298 55.1235 78.7072 52.3986 78.7072 49.0382L78.7134 23.0854V18.916C78.7134 14.9883 76.8999 11.8047 74.6618 11.8047H74.1062C71.8682 11.8047 68.1974 14.9883 68.1974 18.916H50.5457V44.069H39.3086V55.1266H84.4943V55.1235Z" fill="#A2C7BF"/>
</g>
<path d="M79.4497 11.8018H37.788C34.4075 11.8018 31.67 14.9854 31.67 18.9131V19.2633H31.6544V74.7618C31.6544 78.6895 30.1249 81.8731 27.3438 81.8731H69.1771C71.9583 81.8731 74.2119 78.6895 74.2119 74.7618V19.2633V18.9131C74.2119 14.9854 76.0723 11.8018 79.4497 11.8018V11.8018Z" fill="#EBF4F2"/>
<g style="mix-blend-mode:multiply" opacity="0.59">
<path d="M74.4993 11.9287H32.8408C29.4603 11.9287 26.7228 15.1124 26.7228 19.04V19.3903H26.7072V74.8888C26.7072 78.8164 25.1777 82.0001 22.3965 82.0001H64.2298C67.011 82.0001 69.2647 78.8164 69.2647 74.8888V19.3903V19.04C69.2647 15.1124 71.125 11.9287 74.5024 11.9287H74.4993Z" fill="#DCDCDC"/>
</g>
<path d="M66.7428 74.7616V73.3294H66.7521V7.1113C66.7521 3.18365 64.2175 0 61.0899 0H60.3126C57.185 0 52.0533 3.18365 52.0533 7.1113H27.3847V32.2643H11.6777V74.7616C11.6777 78.6893 15.2237 81.8729 19.5968 81.8729H72.6079C68.2348 81.8729 66.7428 78.6893 66.7428 74.7616V74.7616Z" fill="#EBF4F2"/>
<path d="M60.3782 74.7616V73.3294H60.3875V7.1113C60.3875 3.18365 57.8623 0 54.744 0H53.9699C50.8547 0 45.7418 3.18365 45.7418 7.1113H27.3317V32.2643H11.6777V74.7616C11.6777 78.6893 15.2112 81.8729 19.5718 81.8729H66.2246C61.8671 81.8729 60.3782 78.6893 60.3782 74.7616V74.7616Z" fill="#B4C606"/>
<path d="M7.91281 0C3.54282 0 0 3.00696 0 6.7145V65.6291C0.00312142 67.1388 1.23608 68.3633 2.75622 68.3633L52.2651 68.3571C53.7852 68.3571 55.0182 67.1326 55.0182 65.6229V6.7145C55.0182 3.00696 57.4248 0 61.7948 0H7.91281Z" fill="white"/>
<path d="M45.0348 13.1097H28.3227C27.9669 13.1097 27.6797 12.8245 27.6797 12.4711C27.6797 12.1177 27.9669 11.8325 28.3227 11.8325H45.0348C45.3906 11.8325 45.6778 12.1177 45.6778 12.4711C45.6778 12.8245 45.3906 13.1097 45.0348 13.1097Z" fill="#5E5E5E"/>
<path d="M45.0348 16.6063H28.3227C27.9669 16.6063 27.6797 16.3211 27.6797 15.9677C27.6797 15.6143 27.9669 15.3291 28.3227 15.3291H45.0348C45.3906 15.3291 45.6778 15.6143 45.6778 15.9677C45.6778 16.3211 45.3906 16.6063 45.0348 16.6063Z" fill="#A8B9C1"/>
<path d="M45.0348 22.741H28.3227C27.9669 22.741 27.6797 22.4559 27.6797 22.1025C27.6797 21.7491 27.9669 21.4639 28.3227 21.4639H45.0348C45.3906 21.4639 45.6778 21.7491 45.6778 22.1025C45.6778 22.4559 45.3906 22.741 45.0348 22.741Z" fill="#A8B9C1"/>
<path d="M45.0348 26.2376H28.3227C27.9669 26.2376 27.6797 25.9524 27.6797 25.599C27.6797 25.2456 27.9669 24.9604 28.3227 24.9604H45.0348C45.3906 24.9604 45.6778 25.2456 45.6778 25.599C45.6778 25.9524 45.3906 26.2376 45.0348 26.2376Z" fill="#A8B9C1"/>
<path d="M45.0355 31.0863H9.47309C9.11725 31.0863 8.83008 30.8011 8.83008 30.4477C8.83008 30.0943 9.11725 29.8091 9.47309 29.8091H45.0355C45.3913 29.8091 45.6785 30.0943 45.6785 30.4477C45.6785 30.8011 45.3913 31.0863 45.0355 31.0863Z" fill="#A8B9C1"/>
<path d="M45.0355 34.2015H9.47309C9.11725 34.2015 8.83008 33.9163 8.83008 33.5629C8.83008 33.2095 9.11725 32.9243 9.47309 32.9243H45.0355C45.3913 32.9243 45.6785 33.2095 45.6785 33.5629C45.6785 33.9163 45.3913 34.2015 45.0355 34.2015Z" fill="#A8B9C1"/>
<path d="M37.4486 44.3294H21.2016C20.8458 44.3294 20.5586 44.0442 20.5586 43.6908C20.5586 43.3374 20.8458 43.0522 21.2016 43.0522H37.4486C37.8045 43.0522 38.0916 43.3374 38.0916 43.6908C38.0916 44.0442 37.8045 44.3294 37.4486 44.3294Z" fill="#A8B9C1"/>
<path d="M45.0368 40.8328H21.2016C20.8458 40.8328 20.5586 40.5477 20.5586 40.1943C20.5586 39.8409 20.8458 39.5557 21.2016 39.5557H45.0368C45.3926 39.5557 45.6798 39.8409 45.6798 40.1943C45.6798 40.5477 45.3926 40.8328 45.0368 40.8328Z" fill="#A8B9C1"/>
<path d="M16.6625 46.7847H9.15234V39.3262H16.6625V46.7847V46.7847ZM10.0544 45.8888H15.7604V40.2221H10.0544V45.8888Z" fill="#A8B9C1"/>
<path d="M12.7147 44.7481L10.8574 43.257L11.5473 42.513L12.6117 43.3686L14.4783 41.3599L15.268 41.9954L12.7147 44.7481Z" fill="#C7D644"/>
<path d="M30.8772 56.1527H21.1977C20.8419 56.1527 20.5547 55.8675 20.5547 55.5141C20.5547 55.1607 20.8419 54.8755 21.1977 54.8755H30.8772C31.2331 54.8755 31.5202 55.1607 31.5202 55.5141C31.5202 55.8675 31.2331 56.1527 30.8772 56.1527Z" fill="#A8B9C1"/>
<path d="M45.0368 52.6561H21.2016C20.8458 52.6561 20.5586 52.3709 20.5586 52.0175C20.5586 51.6641 20.8458 51.3789 21.2016 51.3789H45.0368C45.3926 51.3789 45.6798 51.6641 45.6798 52.0175C45.6798 52.3709 45.3926 52.6561 45.0368 52.6561Z" fill="#A8B9C1"/>
<path d="M16.6625 58.6079H9.15234V51.1494H16.6625V58.6079V58.6079ZM10.0544 57.712H15.7604V52.0453H10.0544V57.712Z" fill="#A8B9C1"/>
<path d="M12.7147 56.5714L10.8574 55.0803L11.5473 54.3363L12.6117 55.1919L14.4783 53.1831L15.268 53.8186L12.7147 56.5714Z" fill="#C7D644"/>
<g style="mix-blend-mode:multiply">
<path d="M41.6993 50.6594C38.0535 50.5478 35.0101 53.3936 34.8977 57.0143C34.7854 60.6351 37.6508 63.6575 41.2966 63.7691C44.9425 63.8807 47.9859 61.035 48.0982 57.4142C48.2106 53.7935 45.3451 50.771 41.6993 50.6594ZM46.3003 57.3584C46.2191 59.9934 44.0029 62.0611 41.3528 61.9805C38.6996 61.8999 36.6176 59.6989 36.6988 57.067C36.7799 54.4321 38.9962 52.3644 41.6462 52.445C44.2995 52.5256 46.3814 54.7266 46.3003 57.3584Z" fill="#DDF1F4"/>
</g>
<g style="mix-blend-mode:multiply">
<path d="M41.5035 65.2291C41.4192 65.2291 41.338 65.2291 41.2537 65.226C36.8057 65.0896 33.2972 61.3882 33.4315 56.9708C33.5688 52.5317 37.2396 49.0628 41.7469 49.2023C43.9007 49.2674 45.9015 50.1633 47.3811 51.7226C48.8575 53.2818 49.6348 55.3185 49.5692 57.4606C49.435 61.8191 45.8922 65.2322 41.5066 65.2322L41.5035 65.2291ZM41.4941 49.8285C37.4519 49.8285 34.19 52.9719 34.0682 56.9863C33.9434 61.0565 37.174 64.4665 41.2725 64.5905C45.4115 64.7114 48.8045 61.5246 48.9293 57.4358C48.9886 55.4642 48.2738 53.5887 46.9129 52.1504C45.5519 50.7151 43.7103 49.8905 41.7251 49.8285C41.647 49.8285 41.5721 49.8254 41.4941 49.8254V49.8285Z" fill="#DDF1F4"/>
</g>
<path d="M40.6514 60.0055L38.0918 57.4697L39.2467 56.4592L40.7138 57.913L43.8383 55.1758L44.9308 56.2577L40.6514 60.0055Z" fill="#C7D644"/>
<path d="M24.0909 20.845C25.1091 16.6068 22.4751 12.3513 18.2075 11.34C13.9399 10.3288 9.65493 12.9448 8.63668 17.183C7.61842 21.4212 10.2525 25.6767 14.5201 26.688C18.7876 27.6992 23.0726 25.0832 24.0909 20.845Z" fill="#CB334C"/>
<path d="M20.5369 17.8188H12.209V20.2058H20.5369V17.8188Z" fill="white"/>
<path d="M15.168 14.8768V23.1475H17.5715V14.8768H15.168Z" fill="white"/>
<path d="M45.5732 74.0797C55.4685 74.0797 63.4902 66.1131 63.4902 56.2859C63.4902 46.4587 55.4685 38.4922 45.5732 38.4922C35.678 38.4922 27.6562 46.4587 27.6562 56.2859C27.6562 66.1131 35.678 74.0797 45.5732 74.0797Z" fill="#ACCF4E"/>
<path d="M41.8158 63.0499L36.3908 57.9969C35.2265 56.9151 35.2265 55.0799 36.3908 53.998C37.4521 53.0091 39.1064 53.0091 40.1677 53.998L43.0987 56.726C43.439 57.0422 43.9696 57.0422 44.313 56.726L52.7252 48.8955C53.7865 47.9066 55.4408 47.9066 56.5021 48.8955C57.6664 49.9774 57.6664 51.8125 56.5021 52.8944L45.5959 63.0468C44.5346 64.0357 42.8802 64.0357 41.819 63.0468L41.8158 63.0499Z" fill="white"/>
</svg>
