<svg width="98" height="88" viewBox="0 0 98 88" fill="none" xmlns="http://www.w3.org/2000/svg">
<g clip-path="url(#clip0_765_7950)">
<path d="M46.2071 0.243646C72.5802 -2.07909 72.6242 12.6287 84.5053 26.3331C96.3894 40.0346 98.9299 46.2489 94.4502 62.0411C89.9706 77.8363 74.8743 90.2184 56.2019 83.2038C37.5266 76.1892 26.8306 82.9254 15.0522 76.6967C3.27379 70.465 -1.10021 58.428 7.52166 44.2422C16.1435 30.0564 13.6881 3.10574 46.2071 0.243646Z" fill="#CAEA38"/>
<path opacity="0.7" d="M46.2071 0.243646C72.5802 -2.07909 72.6242 12.6287 84.5053 26.3331C96.3894 40.0346 98.9299 46.2489 94.4502 62.0411C89.9706 77.8363 74.8743 90.2184 56.2019 83.2038C37.5266 76.1892 26.8306 82.9254 15.0522 76.6967C3.27379 70.465 -1.10021 58.428 7.52166 44.2422C16.1435 30.0564 13.6881 3.10574 46.2071 0.243646Z" fill="#CAEA38"/>
<path d="M63.7627 6.53354L22.3203 11.0923L28.7313 68.0378L70.1738 63.479L63.7627 6.53354Z" fill="white" stroke="#2E353A" stroke-linecap="round" stroke-linejoin="round"/>
<path d="M63.7647 6.5355L22.3223 11.0942L23.2093 18.9736L64.6518 14.4149L63.7647 6.5355Z" fill="#BFBFBF" stroke="#2E353A" stroke-linecap="round" stroke-linejoin="round"/>
<path d="M52.2473 10.1636L34.3582 12.1296C34.0237 12.1673 33.7803 12.466 33.8184 12.7966C33.8565 13.1271 34.1587 13.3678 34.4931 13.3301L52.3822 11.3641C52.7167 11.3264 52.9602 11.0277 52.922 10.6971C52.8839 10.3665 52.5817 10.1259 52.2473 10.1636Z" fill="white"/>
<path d="M48.056 13.1272L39.1114 14.1102C38.9442 14.1276 38.824 14.2784 38.8416 14.4437C38.8592 14.609 39.0117 14.7279 39.1789 14.7105L48.1235 13.7274C48.2907 13.71 48.411 13.5592 48.3934 13.394C48.3758 13.2287 48.2232 13.1098 48.056 13.1272Z" fill="white"/>
<path opacity="0.3" d="M54.7367 19.9356L31.3031 22.5135C31.1769 22.528 31.0889 22.6382 31.1007 22.7629C31.1153 22.8876 31.2268 22.9746 31.3529 22.963L54.7866 20.3851C54.9127 20.3706 55.0007 20.2604 54.989 20.1357C54.9773 20.011 54.8629 19.924 54.7367 19.9356V19.9356Z" fill="black"/>
<path opacity="0.3" d="M54.9191 21.545L27.9652 24.5086C27.839 24.5231 27.751 24.6333 27.7628 24.7579C27.7774 24.8826 27.8889 24.9696 28.0151 24.958L54.969 21.9944C55.0952 21.9799 55.1832 21.8698 55.1714 21.7451C55.1597 21.6204 55.0453 21.5334 54.9191 21.545V21.545Z" fill="black"/>
<path opacity="0.3" d="M48.0631 23.9258L28.1468 26.1152C28.0207 26.1297 27.9327 26.2399 27.9444 26.3646C27.9591 26.4893 28.0706 26.5763 28.1967 26.5647L48.1129 24.3753C48.2391 24.3608 48.3271 24.2506 48.3154 24.1259C48.3007 24.0012 48.1892 23.9142 48.0631 23.9258V23.9258Z" fill="black"/>
<path opacity="0.3" d="M60.4594 19.1074L58.5235 19.3203C58.0823 19.3689 57.7644 19.7617 57.8135 20.1979L58.029 22.1115C58.0781 22.5476 58.4755 22.8618 58.9167 22.8133L60.8527 22.6004C61.2939 22.5518 61.6118 22.1589 61.5627 21.7228L61.3472 19.8092C61.2981 19.373 60.9007 19.0588 60.4594 19.1074Z" stroke="#2E353A" stroke-linecap="round" stroke-linejoin="round"/>
<path d="M58.7266 20.887L59.5069 21.6177L60.5395 20.0605" stroke="#CAEA38" stroke-width="3" stroke-linecap="round" stroke-linejoin="round"/>
<path opacity="0.3" d="M55.5941 27.5538L32.1605 30.1317C32.0344 30.1462 31.9463 30.2564 31.9581 30.3811C31.9727 30.5058 32.0842 30.5928 32.2104 30.5812L55.644 28.0032C55.7701 27.9887 55.8582 27.8785 55.8464 27.7539C55.8318 27.6292 55.7203 27.5422 55.5941 27.5538Z" fill="black"/>
<path opacity="0.3" d="M55.7766 29.1602L28.8226 32.1238C28.6965 32.1383 28.6085 32.2485 28.6202 32.3732C28.6319 32.4979 28.7463 32.5849 28.8725 32.5733L55.8264 29.6097C55.9526 29.5952 56.0406 29.485 56.0289 29.3603C56.0142 29.2356 55.9027 29.1486 55.7766 29.1602Z" fill="black"/>
<path opacity="0.3" d="M48.9205 31.5406L29.0042 33.7299C28.8781 33.7444 28.7901 33.8546 28.8018 33.9793C28.8165 34.104 28.928 34.191 29.0541 34.1794L48.9704 31.9901C49.0965 31.9756 49.1845 31.8654 49.1728 31.7407C49.1581 31.616 49.0466 31.529 48.9205 31.5406Z" fill="black"/>
<path opacity="0.3" d="M61.3169 26.7211L59.3809 26.9341C58.9397 26.9826 58.6218 27.3755 58.6709 27.8116L58.8864 29.7253C58.9355 30.1614 59.3329 30.4756 59.7742 30.4271L61.7101 30.2141C62.1513 30.1656 62.4692 29.7727 62.4201 29.3366L62.2046 27.4229C62.1555 26.9868 61.7581 26.6726 61.3169 26.7211Z" stroke="#2E353A" stroke-linecap="round" stroke-linejoin="round"/>
<path d="M59.5859 28.5046L60.3663 29.2325L61.3989 27.6753" stroke="#CAEA38" stroke-width="3" stroke-linecap="round" stroke-linejoin="round"/>
<path opacity="0.3" d="M56.4516 35.1685L33.0179 37.7464C32.8918 37.7609 32.8038 37.8711 32.8155 37.9958C32.8302 38.1205 32.9416 38.2075 33.0678 38.1959L56.5014 35.618C56.6276 35.6035 56.7156 35.4933 56.7038 35.3686C56.6892 35.2439 56.5777 35.1569 56.4516 35.1685V35.1685Z" fill="black"/>
<path opacity="0.3" d="M56.634 36.7779L29.68 39.7415C29.5539 39.756 29.4659 39.8662 29.4776 39.9909C29.4893 40.1156 29.6038 40.2025 29.7299 40.1909L56.6839 37.2274C56.81 37.2129 56.898 37.1027 56.8863 36.978C56.8716 36.8533 56.7601 36.7663 56.634 36.7779V36.7779Z" fill="black"/>
<path opacity="0.3" d="M49.7818 39.1588L29.8656 41.3481C29.7394 41.3626 29.6514 41.4728 29.6632 41.5975C29.6749 41.7222 29.7893 41.8092 29.9154 41.7976L49.8317 39.6082C49.9578 39.5937 50.0458 39.4835 50.0341 39.3588C50.0224 39.2341 49.908 39.1472 49.7818 39.1588Z" fill="black"/>
<path opacity="0.3" d="M62.1762 34.3373L60.2403 34.5503C59.7991 34.5988 59.4812 34.9917 59.5303 35.4279L59.7458 37.3415C59.7949 37.7776 60.1923 38.0918 60.6335 38.0433L62.5695 37.8303C63.0107 37.7818 63.3286 37.3889 63.2795 36.9528L63.064 35.0391C63.0149 34.603 62.6175 34.2888 62.1762 34.3373Z" stroke="#2E353A" stroke-linecap="round" stroke-linejoin="round"/>
<path d="M60.4414 36.1194L61.2217 36.8502L62.2544 35.293" stroke="#CAEA38" stroke-width="3" stroke-linecap="round" stroke-linejoin="round"/>
<path opacity="0.3" d="M57.3109 42.7833L33.8773 45.3612C33.7512 45.3757 33.6631 45.4859 33.6749 45.6106C33.6895 45.7353 33.801 45.8222 33.9272 45.8106L57.3608 43.2327C57.4869 43.2182 57.575 43.108 57.5632 42.9833C57.5486 42.8587 57.4371 42.7717 57.3109 42.7833V42.7833Z" fill="black"/>
<path opacity="0.3" d="M57.4895 44.3926L30.5355 47.3562C30.4094 47.3707 30.3213 47.4809 30.3331 47.6056C30.3477 47.7303 30.4592 47.8173 30.5854 47.8057L57.5393 44.8421C57.6655 44.8276 57.7535 44.7174 57.7417 44.5927C57.7271 44.468 57.6156 44.381 57.4895 44.3926V44.3926Z" fill="black"/>
<path opacity="0.3" d="M50.6373 46.7735L30.721 48.9628C30.5949 48.9773 30.5069 49.0875 30.5186 49.2122C30.5333 49.3369 30.6448 49.4239 30.7709 49.4123L50.6872 47.223C50.8133 47.2085 50.9013 47.0983 50.8896 46.9736C50.8749 46.8489 50.7634 46.7619 50.6373 46.7735Z" fill="black"/>
<path opacity="0.3" d="M63.0337 41.954L61.0977 42.167C60.6565 42.2155 60.3386 42.6084 60.3877 43.0445L60.6032 44.9582C60.6523 45.3943 61.0497 45.7085 61.491 45.66L63.4269 45.447C63.8681 45.3985 64.186 45.0056 64.1369 44.5695L63.9214 42.6558C63.8723 42.2197 63.4749 41.9055 63.0337 41.954Z" stroke="#2E353A" stroke-linecap="round" stroke-linejoin="round"/>
<path d="M61.2969 43.7375L62.0801 44.4654L63.1098 42.9082" stroke="#CAEA38" stroke-width="3" stroke-linecap="round" stroke-linejoin="round"/>
<path opacity="0.3" d="M58.1684 50.4014L34.7347 52.9793C34.6086 52.9938 34.5206 53.104 34.5323 53.2287C34.547 53.3534 34.6584 53.4404 34.7846 53.4288L58.2182 50.8509C58.3444 50.8364 58.4324 50.7262 58.4206 50.6015C58.406 50.4768 58.2945 50.3898 58.1684 50.4014V50.4014Z" fill="black"/>
<path opacity="0.3" d="M58.3469 52.0079L31.3929 54.9715C31.2668 54.986 31.1788 55.0961 31.1905 55.2208C31.2052 55.3455 31.3166 55.4325 31.4428 55.4209L58.3968 52.4573C58.5229 52.4428 58.6109 52.3326 58.5992 52.208C58.5845 52.0833 58.473 51.9963 58.3469 52.0079Z" fill="black"/>
<path opacity="0.3" d="M51.4947 54.3917L31.5785 56.581C31.4523 56.5955 31.3643 56.7057 31.376 56.8304C31.3907 56.9551 31.5022 57.0421 31.6283 57.0305L51.5446 54.8411C51.6707 54.8266 51.7587 54.7164 51.747 54.5917C51.7323 54.4671 51.6209 54.3801 51.4947 54.3917V54.3917Z" fill="black"/>
<path opacity="0.3" d="M63.8891 49.5707L61.9532 49.7837C61.512 49.8322 61.1941 50.2251 61.2432 50.6613L61.4586 52.5749C61.5077 53.011 61.9052 53.3252 62.3464 53.2767L64.2824 53.0637C64.7236 53.0152 65.0415 52.6223 64.9924 52.1862L64.7769 50.2725C64.7278 49.8364 64.3303 49.5222 63.8891 49.5707Z" stroke="#2E353A" stroke-linecap="round" stroke-linejoin="round"/>
<path d="M62.1562 51.3523L62.9366 52.083L63.9663 50.5229" stroke="#CAEA38" stroke-width="3" stroke-linecap="round" stroke-linejoin="round"/>
<path opacity="0.3" d="M58.8226 56.212L35.389 58.7899C35.2629 58.8044 35.1749 58.9146 35.1866 59.0393C35.2013 59.164 35.3127 59.251 35.4389 59.2394L58.8725 56.6614C58.9987 56.6469 59.0867 56.5367 59.0749 56.4121C59.0603 56.2874 58.9488 56.2004 58.8226 56.212V56.212Z" fill="black"/>
<path opacity="0.3" d="M59.0012 57.8218L32.0472 60.7854C31.9211 60.7999 31.8331 60.9101 31.8448 61.0348C31.8595 61.1595 31.9709 61.2465 32.0971 61.2349L59.051 58.2713C59.1772 58.2568 59.2652 58.1466 59.2535 58.0219C59.2388 57.8972 59.1273 57.8102 59.0012 57.8218Z" fill="black"/>
<path opacity="0.3" d="M52.149 60.2022L32.2328 62.3916C32.1066 62.4061 32.0186 62.5162 32.0303 62.6409C32.045 62.7656 32.1565 62.8526 32.2826 62.841L52.1989 60.6517C52.325 60.6372 52.413 60.527 52.4013 60.4023C52.3866 60.2776 52.2751 60.1906 52.149 60.2022Z" fill="black"/>
<path opacity="0.3" d="M64.5454 55.3818L62.6094 55.5947C62.1682 55.6433 61.8504 56.0362 61.8994 56.4723L62.1149 58.3859C62.164 58.8221 62.5615 59.1363 63.0027 59.0877L64.9386 58.8748C65.3798 58.8262 65.6977 58.4333 65.6486 57.9972L65.4332 56.0836C65.3841 55.6475 64.9866 55.3332 64.5454 55.3818Z" stroke="#2E353A" stroke-linecap="round" stroke-linejoin="round"/>
<path d="M62.8125 57.1634L63.5928 57.8941L64.6225 56.3369" stroke="#CAEA38" stroke-width="3" stroke-linecap="round" stroke-linejoin="round"/>
<path d="M44.207 35.4498C44.0662 35.2033 43.9254 35.1772 43.7523 35.2758L43.4941 35.4208L44.163 36.5865L44.4212 36.4415C44.5942 36.3429 44.6441 36.2124 44.5033 35.9659L44.207 35.4498Z" fill="#D14242"/>
<path d="M39.3363 41.3422C39.3657 41.1334 39.3099 40.9043 39.1691 40.6549L38.908 40.1968L38.3917 40.4868L38.6733 40.9797C38.8142 41.2262 38.7555 41.377 38.5824 41.4727C38.4093 41.5713 38.248 41.5423 38.1072 41.2958L37.497 40.2345C37.2799 40.2751 37.0628 40.3186 36.8457 40.3592L37.541 41.5684C37.8578 42.1193 38.3154 42.2788 38.8552 41.9772C38.9491 41.9251 39.0254 41.8642 39.0899 41.8033C39.0224 41.6786 39.0782 41.493 39.2014 41.4031C39.2454 41.3741 39.2923 41.3538 39.3393 41.3393L39.3363 41.3422Z" fill="#D14242"/>
<path d="M36.5089 39.7794L36.6321 39.994C36.8726 39.9911 37.1102 39.9882 37.3508 39.9853L37.0369 39.4401C36.8961 39.1937 36.9518 39.04 37.1249 38.9414C37.298 38.8428 37.4623 38.8747 37.6031 39.1212L37.8143 39.4894L38.3306 39.1995L38.1399 38.866C37.8231 38.315 37.3655 38.1555 36.8257 38.4571C36.6878 38.5325 36.5822 38.6224 36.5001 38.7181C36.6643 38.7558 36.8257 38.7906 36.8785 38.7703C36.7083 38.8341 36.5382 38.895 36.368 38.9588C36.2859 39.1995 36.3299 39.4749 36.5059 39.7794H36.5089Z" fill="#D14242"/>
<path d="M40.4812 37.5377C40.5457 37.4942 40.6249 37.4855 40.6953 37.4536C40.9681 37.3319 41.0327 36.9433 41.0092 36.6678L40.7276 36.3198L39.9648 36.7461L40.4401 37.5754C40.4518 37.5609 40.4636 37.5464 40.4812 37.5377V37.5377Z" fill="#D14242"/>
<path d="M43.7249 39.1934L44.2413 38.9035L42.264 35.4585L41.7741 35.734C41.9325 35.7717 42.044 35.8442 42.0469 35.9573C41.8944 35.9776 41.7066 35.9573 41.5423 35.9863L42.5368 38.5352L42.528 38.541L41.2695 36.9896C41.2695 37.0621 41.2519 37.1317 41.1932 37.1723C41.1346 37.2129 41.0524 37.21 41.0084 37.2622C40.9674 37.3086 40.9703 37.3782 40.9351 37.4246C40.8999 37.471 40.8353 37.4826 40.7884 37.5174C40.7239 37.5608 40.6916 37.6362 40.6388 37.6942C40.6153 37.7203 40.5801 37.7406 40.5449 37.7522L41.9442 40.191L42.4224 39.9242L41.026 37.4884L41.0348 37.4826L42.8302 39.6951L43.3465 39.4051L42.2963 36.7286L42.3051 36.7228L43.722 39.1934H43.7249Z" fill="#D14242"/>
<path d="M45.0325 36.1864C45.1087 36.2154 45.1527 36.2879 45.1909 36.372C45.2437 36.1516 45.1909 35.8993 45.0325 35.6238L44.7743 35.1773C44.4575 34.6263 44.0174 34.4755 43.4689 34.7829L42.6621 35.2353L44.6394 38.6802L45.1527 38.3931C44.9855 38.2887 44.8007 38.2018 44.6423 38.0887C44.5719 38.0394 44.5044 37.9814 44.4663 37.9031C44.4311 37.8248 44.4311 37.7262 44.4897 37.6624C44.5543 37.5928 44.6599 37.5957 44.7538 37.6247L44.4399 37.0795L44.698 36.9345C44.8594 36.8447 44.9767 36.7403 45.0618 36.6243C44.9533 36.4532 44.7655 36.0907 45.0266 36.1893L45.0325 36.1864ZM44.4223 36.4387L44.1641 36.5837L43.4953 35.418L43.7534 35.273C43.9265 35.1744 44.0673 35.2005 44.2081 35.447L44.5044 35.9631C44.6452 36.2096 44.5954 36.3401 44.4223 36.4387Z" fill="#D14242"/>
<path d="M47.9636 36.8155L47.6819 36.3226L46.7813 36.8271L45.4612 34.5276C45.4407 34.545 45.4231 34.5595 45.4025 34.574C45.3615 34.6059 45.3174 34.6378 45.2646 34.6465C45.2118 34.6552 45.1502 34.6291 45.1385 34.5798C45.1297 34.5479 45.1444 34.5131 45.1502 34.4812C45.1854 34.3043 45.0681 34.1216 44.9713 33.936L44.5371 34.1796L46.5144 37.6246L47.9636 36.8126V36.8155Z" fill="#D14242"/>
<path d="M47.7168 35.6211C47.7755 35.4674 47.9603 35.4007 48.0659 35.2702C48.0777 35.2557 48.0835 35.2412 48.0923 35.2267L47.8899 34.8729L48.4268 34.5714C48.418 34.5424 48.4033 34.5134 48.374 34.4815C48.3388 34.4438 48.1305 34.4061 48.1305 34.4061C48.0689 34.3046 48.1539 34.1509 48.2742 34.1451C48.3094 34.1451 48.3505 34.1509 48.3798 34.1277C48.4033 34.1074 48.4062 34.0755 48.4092 34.0465L48.3593 33.9624L47.6083 34.3829L47.0568 33.423L48.0014 32.8924L47.7198 32.3994L46.2266 33.2375L47.6904 35.7864C47.6934 35.7284 47.6963 35.6733 47.7168 35.6211V35.6211Z" fill="#D14242"/>
<path d="M49.697 35.8445L49.4154 35.3516L48.4707 35.8822L48.1891 35.3893C48.0718 35.4966 47.9574 35.6038 47.84 35.714C47.7989 35.7517 47.7579 35.7923 47.7168 35.83L48.2038 36.6797L49.697 35.8416V35.8445Z" fill="#D14242"/>
<path d="M48.9936 31.8455C48.9848 31.918 48.9408 31.9992 48.8675 32.0079C48.8323 32.0108 48.7971 31.9963 48.7619 31.9905C48.6974 31.9789 48.6269 31.9963 48.5653 31.9731C48.5507 31.9673 48.5389 31.9586 48.5272 31.9499L47.9023 32.3007L48.184 32.7937L48.756 32.4718L50.4487 35.4238L50.9973 35.1164L49.3046 32.1645L49.8767 31.8426L49.595 31.3496L49.0083 31.6773C48.9995 31.7324 49.0024 31.7875 48.9966 31.8426L48.9936 31.8455Z" fill="#D14242"/>
<path d="M51.382 33.9191L51.8073 34.6614L52.3823 34.3395C52.397 34.3018 52.4146 34.267 52.4322 34.2322C52.5437 34.0409 52.7402 33.9162 52.928 33.8002C53.016 33.7451 53.104 33.6929 53.192 33.6378L53.016 33.3333L52.0714 33.864L51.4934 32.8548L52.2444 32.4344L51.9628 31.9414L51.2118 32.3619L50.6603 31.402L51.6049 30.8714L51.3233 30.3784L49.8301 31.2165L50.9038 33.0897C51.1649 32.965 51.2969 33.4551 51.379 33.9191H51.382Z" fill="#D14242"/>
<path d="M40.368 40.7305C40.456 40.7479 40.5089 40.8349 40.5763 40.8929C40.6027 40.9161 40.6321 40.9335 40.6643 40.948C40.7025 40.9306 40.7435 40.9161 40.7846 40.8929C41.3215 40.5913 41.4359 40.1128 41.119 39.5618L41.0868 39.5068C40.8403 39.501 40.5969 39.4923 40.3504 39.4865L40.591 39.904C40.7318 40.1505 40.6761 40.3042 40.503 40.4028C40.3299 40.5014 40.1656 40.4695 40.0248 40.223L38.957 38.3642C38.8162 38.1178 38.8719 37.9641 39.045 37.8655C39.2181 37.7669 39.3823 37.7988 39.5232 38.0453L40.2448 39.3038C40.4648 39.2516 40.6937 39.2197 40.9225 39.2197L40.0923 37.7727C39.7754 37.2217 39.3031 37.0709 38.7634 37.3725C38.2265 37.6741 38.1121 38.1526 38.4289 38.7035L39.4557 40.4956C39.6405 40.8175 39.8811 40.9972 40.1539 41.0349C40.1539 41.0233 40.148 41.0117 40.1451 40.9972C40.1334 40.8639 40.236 40.7044 40.368 40.7305V40.7305Z" fill="#D14242"/>
<path d="M47.7126 30.8478L49.3818 29.9111C48.9037 30.0416 48.4812 30.436 47.9884 30.3809C47.8974 30.3722 47.8006 30.3461 47.7185 30.3838C47.5982 30.4389 47.5718 30.6071 47.6275 30.726C47.6481 30.7695 47.6803 30.8072 47.7126 30.8449V30.8478Z" fill="#D14242"/>
<path d="M43.5255 33.1938C43.5226 33.1562 43.5255 33.1214 43.546 33.0866C43.5871 33.1011 43.6311 33.1098 43.6751 33.1098L44.2501 32.7879C44.3469 32.6922 44.4408 32.5936 44.5552 32.524C44.6608 32.4602 44.7811 32.4254 44.8984 32.3906C44.9424 32.379 44.9835 32.3645 45.0275 32.3529L46.0865 31.7584C46.0983 31.7382 46.1129 31.715 46.1305 31.7005C46.1452 31.6889 46.1657 31.6831 46.1833 31.6744C45.8166 31.5642 45.4499 31.454 45.0862 31.3467L44.7899 31.512C44.7781 31.5903 44.7693 31.6657 44.7576 31.744C44.3352 31.9672 43.9127 32.1905 43.4903 32.4138C43.3612 32.4834 43.2263 32.553 43.0825 32.5675C43.0268 32.5733 42.974 32.5675 42.9182 32.5646L41.117 33.5737C41.1317 33.6578 41.1551 33.7419 41.1874 33.8202C41.0818 33.7999 40.9821 33.7593 40.8911 33.7013L40.5215 33.9101C40.7855 34.0812 41.0437 34.261 41.2989 34.4466L43.5226 33.1996L43.5255 33.1938Z" fill="#D14242"/>
<path d="M51.24 28.8676C50.9496 28.7052 50.6591 28.5457 50.3687 28.3833L49.9551 28.6153C50.1956 28.856 50.5095 29.0271 50.844 29.088L51.2371 28.8676H51.24Z" fill="#D14242"/>
<path d="M55.9318 33.9566L52.6403 28.2208C52.3763 27.7597 51.7779 27.5944 51.3114 27.8583L50.9154 28.0787C50.9652 28.128 51.0151 28.1773 51.065 28.2237C51.2234 28.3774 51.3848 28.5339 51.5314 28.7021L51.7309 28.5919C51.7896 28.56 51.8629 28.5803 51.8952 28.6383L55.1867 34.3741C55.219 34.4321 55.1984 34.5046 55.1398 34.5365L50.6602 37.0477C51.0474 37.0709 51.4405 37.0158 51.8248 37.0593C51.9627 37.0738 52.1006 37.1028 52.2414 37.1318L55.5622 35.2702C56.0287 35.0092 56.1959 34.4176 55.9289 33.9566H55.9318Z" fill="#D14242"/>
<path d="M35.7632 41.2555L34.2113 38.5529C34.1791 38.4949 34.1996 38.4224 34.2553 38.3905L38.7262 35.8851C38.7115 35.8503 38.691 35.8184 38.6792 35.7836C38.7438 35.7807 38.8054 35.7894 38.867 35.8068L40.6711 34.7947C40.6125 34.7744 40.5538 34.7541 40.4981 34.7309C40.2135 34.6207 39.9319 34.5077 39.6473 34.3975L38.9667 34.7773C39.2131 34.9252 39.4596 35.076 39.706 35.2239C39.4508 35.0673 38.9227 35.047 38.4709 35.0528L33.8358 37.651C33.3694 37.912 33.2022 38.5036 33.4691 38.9646L34.8127 41.3048C34.8743 41.2903 34.9389 41.2758 35.0005 41.2642C35.1706 41.2352 35.3437 41.2381 35.5139 41.2381C35.596 41.2381 35.6811 41.2381 35.7632 41.2497V41.2555Z" fill="#D14242"/>
<path d="M41.2751 42.3108C41.3514 42.3775 41.4365 42.4355 41.5303 42.4732C41.6272 42.5138 41.7533 42.6153 41.68 42.6878C41.3367 42.8415 40.9114 42.7284 40.574 42.8937C40.3892 42.9836 40.2102 43.1575 40.0137 43.1024C40.2513 43.2445 40.4654 43.4243 40.6473 43.6331L49.0902 38.9006C49.0961 38.8659 49.102 38.834 49.1078 38.7992C49.1284 38.689 49.1489 38.5701 49.2281 38.4889C49.3337 38.3816 49.5039 38.37 49.6564 38.3671C49.765 38.3671 49.8794 38.3671 49.985 38.399L51.0352 37.8103C50.8915 37.5638 50.7184 37.3348 50.5248 37.126L41.2781 42.3108H41.2751Z" fill="#D14242"/>
<path d="M39.9107 43.6998C39.7347 43.6418 39.5059 43.5259 39.3592 43.3838L37.6695 44.332C37.6108 44.3639 37.5374 44.3436 37.5052 44.2856L36.0237 41.7048C35.8741 41.67 35.7245 41.6265 35.5778 41.6555C35.4076 41.6903 35.2551 41.8875 35.349 42.0325C35.525 42.0325 35.6981 42.1369 35.7802 42.2934C35.6863 42.3659 35.5866 42.4239 35.481 42.4732L36.76 44.7032C37.0241 45.1642 37.6225 45.3295 38.089 45.0656L40.298 43.8274C40.298 43.8274 40.2804 43.8187 40.2716 43.8129C40.1572 43.7607 40.031 43.7375 39.9107 43.6969V43.6998Z" fill="#D14242"/>
<g opacity="0.2">
<path d="M39.3363 41.3422C39.3657 41.1334 39.3099 40.9043 39.1691 40.6549L38.908 40.1968L38.3917 40.4868L38.6733 40.9797C38.8142 41.2262 38.7555 41.377 38.5824 41.4727C38.4093 41.5713 38.248 41.5423 38.1072 41.2958L37.497 40.2345C37.2799 40.2751 37.0628 40.3186 36.8457 40.3592L37.541 41.5684C37.8578 42.1193 38.3154 42.2788 38.8552 41.9772C38.9491 41.9251 39.0254 41.8642 39.0899 41.8033C39.0224 41.6786 39.0782 41.493 39.2014 41.4031C39.2454 41.3741 39.2923 41.3538 39.3393 41.3393L39.3363 41.3422Z" fill="#D14242"/>
<path d="M36.5089 39.7794L36.6321 39.994C36.8726 39.9911 37.1102 39.9882 37.3508 39.9853L37.0369 39.4401C36.8961 39.1937 36.9518 39.04 37.1249 38.9414C37.298 38.8428 37.4623 38.8747 37.6031 39.1212L37.8143 39.4894L38.3306 39.1995L38.1399 38.866C37.8231 38.315 37.3655 38.1555 36.8257 38.4571C36.6878 38.5325 36.5822 38.6224 36.5001 38.7181C36.6643 38.7558 36.8257 38.7906 36.8785 38.7703C36.7083 38.8341 36.5382 38.895 36.368 38.9588C36.2859 39.1995 36.3299 39.4749 36.5059 39.7794H36.5089Z" fill="#D14242"/>
<path d="M40.4812 37.5377C40.5457 37.4942 40.6249 37.4855 40.6953 37.4536C40.9681 37.3319 41.0327 36.9433 41.0092 36.6678L40.7276 36.3198L39.9648 36.7461L40.4401 37.5754C40.4518 37.5609 40.4636 37.5464 40.4812 37.5377V37.5377Z" fill="#D14242"/>
<path d="M43.7249 39.1934L44.2413 38.9035L42.264 35.4585L41.7741 35.734C41.9325 35.7717 42.044 35.8442 42.0469 35.9573C41.8944 35.9776 41.7066 35.9573 41.5423 35.9863L42.5368 38.5352L42.528 38.541L41.2695 36.9896C41.2695 37.0621 41.2519 37.1317 41.1932 37.1723C41.1346 37.2129 41.0524 37.21 41.0084 37.2622C40.9674 37.3086 40.9703 37.3782 40.9351 37.4246C40.8999 37.471 40.8353 37.4826 40.7884 37.5174C40.7239 37.5608 40.6916 37.6362 40.6388 37.6942C40.6153 37.7203 40.5801 37.7406 40.5449 37.7522L41.9442 40.191L42.4224 39.9242L41.026 37.4884L41.0348 37.4826L42.8302 39.6951L43.3465 39.4051L42.2963 36.7286L42.3051 36.7228L43.722 39.1934H43.7249Z" fill="#D14242"/>
<path d="M45.0325 36.1864C45.1087 36.2154 45.1527 36.2879 45.1909 36.372C45.2437 36.1516 45.1909 35.8993 45.0325 35.6238L44.7743 35.1773C44.4575 34.6263 44.0174 34.4755 43.4689 34.7829L42.6621 35.2353L44.6394 38.6802L45.1527 38.3931C44.9855 38.2887 44.8007 38.2018 44.6423 38.0887C44.5719 38.0394 44.5044 37.9814 44.4663 37.9031C44.4311 37.8248 44.4311 37.7262 44.4897 37.6624C44.5543 37.5928 44.6599 37.5957 44.7538 37.6247L44.4399 37.0795L44.698 36.9345C44.8594 36.8447 44.9767 36.7403 45.0618 36.6243C44.9533 36.4532 44.7655 36.0907 45.0266 36.1893L45.0325 36.1864ZM44.4223 36.4387L44.1641 36.5837L43.4953 35.418L43.7534 35.273C43.9265 35.1744 44.0673 35.2005 44.2081 35.447L44.5044 35.9631C44.6452 36.2096 44.5954 36.3401 44.4223 36.4387Z" fill="#D14242"/>
<path d="M47.9636 36.8155L47.6819 36.3226L46.7813 36.8271L45.4612 34.5276C45.4407 34.545 45.4231 34.5595 45.4025 34.574C45.3615 34.6059 45.3174 34.6378 45.2646 34.6465C45.2118 34.6552 45.1502 34.6291 45.1385 34.5798C45.1297 34.5479 45.1444 34.5131 45.1502 34.4812C45.1854 34.3043 45.0681 34.1216 44.9713 33.936L44.5371 34.1796L46.5144 37.6246L47.9636 36.8126V36.8155Z" fill="#D14242"/>
<path d="M47.7168 35.6211C47.7755 35.4674 47.9603 35.4007 48.0659 35.2702C48.0777 35.2557 48.0835 35.2412 48.0923 35.2267L47.8899 34.8729L48.4268 34.5714C48.418 34.5424 48.4033 34.5134 48.374 34.4815C48.3388 34.4438 48.1305 34.4061 48.1305 34.4061C48.0689 34.3046 48.1539 34.1509 48.2742 34.1451C48.3094 34.1451 48.3505 34.1509 48.3798 34.1277C48.4033 34.1074 48.4062 34.0755 48.4092 34.0465L48.3593 33.9624L47.6083 34.3829L47.0568 33.423L48.0014 32.8924L47.7198 32.3994L46.2266 33.2375L47.6904 35.7864C47.6934 35.7284 47.6963 35.6733 47.7168 35.6211V35.6211Z" fill="#D14242"/>
<path d="M49.697 35.8445L49.4154 35.3516L48.4707 35.8822L48.1891 35.3893C48.0718 35.4966 47.9574 35.6038 47.84 35.714C47.7989 35.7517 47.7579 35.7923 47.7168 35.83L48.2038 36.6797L49.697 35.8416V35.8445Z" fill="#D14242"/>
<path d="M48.9936 31.8455C48.9848 31.918 48.9408 31.9992 48.8675 32.0079C48.8323 32.0108 48.7971 31.9963 48.7619 31.9905C48.6974 31.9789 48.6269 31.9963 48.5653 31.9731C48.5507 31.9673 48.5389 31.9586 48.5272 31.9499L47.9023 32.3007L48.184 32.7937L48.756 32.4718L50.4487 35.4238L50.9973 35.1164L49.3046 32.1645L49.8767 31.8426L49.595 31.3496L49.0083 31.6773C48.9995 31.7324 49.0024 31.7875 48.9966 31.8426L48.9936 31.8455Z" fill="#D14242"/>
<path d="M51.382 33.9191L51.8073 34.6614L52.3823 34.3395C52.397 34.3018 52.4146 34.267 52.4322 34.2322C52.5437 34.0409 52.7402 33.9162 52.928 33.8002C53.016 33.7451 53.104 33.6929 53.192 33.6378L53.016 33.3333L52.0714 33.864L51.4934 32.8548L52.2444 32.4344L51.9628 31.9414L51.2118 32.3619L50.6603 31.402L51.6049 30.8714L51.3233 30.3784L49.8301 31.2165L50.9038 33.0897C51.1649 32.965 51.2969 33.4551 51.379 33.9191H51.382Z" fill="#D14242"/>
<path d="M40.368 40.7305C40.456 40.7479 40.5089 40.8349 40.5763 40.8929C40.6027 40.9161 40.6321 40.9335 40.6643 40.948C40.7025 40.9306 40.7435 40.9161 40.7846 40.8929C41.3215 40.5913 41.4359 40.1128 41.119 39.5618L41.0868 39.5068C40.8403 39.501 40.5969 39.4923 40.3504 39.4865L40.591 39.904C40.7318 40.1505 40.6761 40.3042 40.503 40.4028C40.3299 40.5014 40.1656 40.4695 40.0248 40.223L38.957 38.3642C38.8162 38.1178 38.8719 37.9641 39.045 37.8655C39.2181 37.7669 39.3823 37.7988 39.5232 38.0453L40.2448 39.3038C40.4648 39.2516 40.6937 39.2197 40.9225 39.2197L40.0923 37.7727C39.7754 37.2217 39.3031 37.0709 38.7634 37.3725C38.2265 37.6741 38.1121 38.1526 38.4289 38.7035L39.4557 40.4956C39.6405 40.8175 39.8811 40.9972 40.1539 41.0349C40.1539 41.0233 40.148 41.0117 40.1451 40.9972C40.1334 40.8639 40.236 40.7044 40.368 40.7305V40.7305Z" fill="#D14242"/>
<path d="M47.7126 30.8478L49.3818 29.9111C48.9037 30.0416 48.4812 30.436 47.9884 30.3809C47.8974 30.3722 47.8006 30.3461 47.7185 30.3838C47.5982 30.4389 47.5718 30.6071 47.6275 30.726C47.6481 30.7695 47.6803 30.8072 47.7126 30.8449V30.8478Z" fill="#D14242"/>
<path d="M43.5255 33.1938C43.5226 33.1562 43.5255 33.1214 43.546 33.0866C43.5871 33.1011 43.6311 33.1098 43.6751 33.1098L44.2501 32.7879C44.3469 32.6922 44.4408 32.5936 44.5552 32.524C44.6608 32.4602 44.7811 32.4254 44.8984 32.3906C44.9424 32.379 44.9835 32.3645 45.0275 32.3529L46.0865 31.7584C46.0983 31.7382 46.1129 31.715 46.1305 31.7005C46.1452 31.6889 46.1657 31.6831 46.1833 31.6744C45.8166 31.5642 45.4499 31.454 45.0862 31.3467L44.7899 31.512C44.7781 31.5903 44.7693 31.6657 44.7576 31.744C44.3352 31.9672 43.9127 32.1905 43.4903 32.4138C43.3612 32.4834 43.2263 32.553 43.0825 32.5675C43.0268 32.5733 42.974 32.5675 42.9182 32.5646L41.117 33.5737C41.1317 33.6578 41.1551 33.7419 41.1874 33.8202C41.0818 33.7999 40.9821 33.7593 40.8911 33.7013L40.5215 33.9101C40.7855 34.0812 41.0437 34.261 41.2989 34.4466L43.5226 33.1996L43.5255 33.1938Z" fill="#D14242"/>
<path d="M51.24 28.8676C50.9496 28.7052 50.6591 28.5457 50.3687 28.3833L49.9551 28.6153C50.1956 28.856 50.5095 29.0271 50.844 29.088L51.2371 28.8676H51.24Z" fill="#D14242"/>
<path d="M55.9318 33.9566L52.6403 28.2208C52.3763 27.7597 51.7779 27.5944 51.3114 27.8583L50.9154 28.0787C50.9652 28.128 51.0151 28.1773 51.065 28.2237C51.2234 28.3774 51.3848 28.5339 51.5314 28.7021L51.7309 28.5919C51.7896 28.56 51.8629 28.5803 51.8952 28.6383L55.1867 34.3741C55.219 34.4321 55.1984 34.5046 55.1398 34.5365L50.6602 37.0477C51.0474 37.0709 51.4405 37.0158 51.8248 37.0593C51.9627 37.0738 52.1006 37.1028 52.2414 37.1318L55.5622 35.2702C56.0287 35.0092 56.1959 34.4176 55.9289 33.9566H55.9318Z" fill="#D14242"/>
<path d="M35.7632 41.2555L34.2113 38.5529C34.1791 38.4949 34.1996 38.4224 34.2553 38.3905L38.7262 35.8851C38.7115 35.8503 38.691 35.8184 38.6792 35.7836C38.7438 35.7807 38.8054 35.7894 38.867 35.8068L40.6711 34.7947C40.6125 34.7744 40.5538 34.7541 40.4981 34.7309C40.2135 34.6207 39.9319 34.5077 39.6473 34.3975L38.9667 34.7773C39.2131 34.9252 39.4596 35.076 39.706 35.2239C39.4508 35.0673 38.9227 35.047 38.4709 35.0528L33.8358 37.651C33.3694 37.912 33.2022 38.5036 33.4691 38.9646L34.8127 41.3048C34.8743 41.2903 34.9389 41.2758 35.0005 41.2642C35.1706 41.2352 35.3437 41.2381 35.5139 41.2381C35.596 41.2381 35.6811 41.2381 35.7632 41.2497V41.2555Z" fill="#D14242"/>
<path d="M41.2751 42.3108C41.3514 42.3775 41.4365 42.4355 41.5303 42.4732C41.6272 42.5138 41.7533 42.6153 41.68 42.6878C41.3367 42.8415 40.9114 42.7284 40.574 42.8937C40.3892 42.9836 40.2102 43.1575 40.0137 43.1024C40.2513 43.2445 40.4654 43.4243 40.6473 43.6331L49.0902 38.9006C49.0961 38.8659 49.102 38.834 49.1078 38.7992C49.1284 38.689 49.1489 38.5701 49.2281 38.4889C49.3337 38.3816 49.5039 38.37 49.6564 38.3671C49.765 38.3671 49.8794 38.3671 49.985 38.399L51.0352 37.8103C50.8915 37.5638 50.7184 37.3348 50.5248 37.126L41.2781 42.3108H41.2751Z" fill="#D14242"/>
<path d="M39.9107 43.6998C39.7347 43.6418 39.5059 43.5259 39.3592 43.3838L37.6695 44.332C37.6108 44.3639 37.5374 44.3436 37.5052 44.2856L36.0237 41.7048C35.8741 41.67 35.7245 41.6265 35.5778 41.6555C35.4076 41.6903 35.2551 41.8875 35.349 42.0325C35.525 42.0325 35.6981 42.1369 35.7802 42.2934C35.6863 42.3659 35.5866 42.4239 35.481 42.4732L36.76 44.7032C37.0241 45.1642 37.6225 45.3295 38.089 45.0656L40.298 43.8274C40.298 43.8274 40.2804 43.8187 40.2716 43.8129C40.1572 43.7607 40.031 43.7375 39.9107 43.6969V43.6998Z" fill="#D14242"/>
</g>
<path opacity="0.3" d="M30.3371 36.1948C31.6337 37.1373 32.7192 41.6638 32.816 45.8047C32.9157 49.9456 34.9311 56.9428 35.1834 58.0883C35.4357 59.2337 35.3359 60.8866 36.8409 58.587C38.3458 56.2875 42.7492 52.2974 44.5856 53.6226C46.4191 54.9478 43.33 59.4077 41.6549 61.8087C39.9828 64.2097 39.8126 68.4347 37.809 71.0822C35.8053 73.7297 33.9894 77.7228 32.0268 77.6619C30.0613 77.601 17.0566 87.1442 17.0566 87.1442L17.3119 74.0835L28.9993 55.1682L30.3371 36.1948Z" fill="black"/>
<path d="M45.6526 54.2668C45.588 54.6757 43.2969 57.677 41.9504 59.9214C40.6038 62.1658 39.3424 66.0719 39.005 66.6547C38.6677 67.2376 34.5489 70.813 33.4077 72.3093C32.2695 73.8056 30.257 74.4697 28.2387 75.8848C26.942 76.7924 22.8995 81.4785 20.1771 84.7088C18.6634 86.5067 17.5545 87.8551 17.5545 87.8551L0.146484 83.3662C0.146484 83.3662 1.58688 82.1918 3.48493 80.6056C3.48493 80.6056 3.49079 80.6056 3.49666 80.5969C3.49959 80.594 3.5084 80.5882 3.5172 80.5824C6.63855 77.9755 10.9774 74.2812 12.1772 72.8893C14.1104 70.6448 16.8006 67.9828 16.8006 67.9828C16.6363 64.8655 16.9707 61.9136 16.6744 60.7913C16.5219 60.2056 16.2461 56.8708 16.0437 55.8443C15.5274 53.2229 13.2802 50.5087 13.0279 49.4387C12.7757 48.3686 9.80391 43.8015 11.2502 42.9605C11.5523 42.7836 11.8486 42.7285 12.1361 42.7691C14.0928 43.0359 15.7034 47.7046 16.8094 48.8964C17.1614 49.2734 17.6308 49.9548 18.0972 50.6885C18.9744 52.0601 19.831 53.6028 19.831 53.6028C20.1683 52.2717 17.7276 47.5335 17.0529 43.0446C16.3811 38.5557 14.4449 36.146 17.0529 35.8676C17.2817 35.8415 17.4958 35.8647 17.6982 35.9227C19.5317 36.4534 20.3297 40.2202 21.4269 43.8768C21.5295 44.2132 22.3656 46.6288 23.0139 48.4904C23.0139 48.4904 23.0139 48.4914 23.0139 48.4933C23.4364 49.7112 23.7796 50.6943 23.7796 50.6943C23.8617 48.4063 23.1489 46.2866 23.0227 44.2074C22.9729 43.3781 23.2398 40.0491 22.9025 36.726C22.6179 33.919 22.747 32.7822 23.8559 32.5619C24.0612 32.5213 24.2989 32.5126 24.5775 32.5271C26.502 32.646 27.1855 37.7003 27.1855 39.6751C27.1855 40.8205 27.3821 43.0562 27.5493 44.7352C27.6696 45.9473 27.7752 46.8694 27.7752 46.8694C27.7752 46.8694 28.1125 44.0856 27.8603 38.0773C27.8016 36.7608 27.8896 35.8212 28.4118 35.4385C28.6993 35.2326 29.1129 35.192 29.7084 35.3515C31.3894 35.8009 31.938 41.9601 31.938 44.2886C31.938 46.6172 33.2845 50.6073 33.5368 53.7506C33.7891 56.894 34.8921 60.7507 34.8921 60.7507C34.8921 60.7507 35.514 61.0001 35.9335 60.9189C36.356 60.8348 39.2573 56.5953 39.2573 56.5953C40.6097 53.6926 43.2411 52.8169 44.6757 53.1388C45.3357 53.2867 45.7464 53.6897 45.6526 54.2668V54.2668Z" fill="white"/>
<path opacity="0.7" d="M45.6532 54.2662C45.5886 54.6751 43.2975 57.6764 41.9509 59.9208C40.6044 62.1652 39.343 66.0713 39.0056 66.6541C38.6682 67.237 34.5495 70.8124 33.4083 72.3087C32.2701 73.805 30.2576 74.4691 28.2393 75.8842C26.9426 76.7918 22.9001 81.4779 20.1777 84.7082C20.477 83.5367 21.1488 82.0375 22.906 80.5963C25.954 78.0938 26.1388 76.1306 27.7758 74.4691C29.4157 72.8075 32.3023 73.3033 33.3408 71.3112C34.3793 69.3132 37.9965 67.4864 38.7533 65.7407C39.5102 63.995 37.9964 63.6238 39.343 61.5215C40.6895 59.422 41.995 58.9088 41.8043 58.0852C41.6136 57.2588 41.0474 56.0119 42.215 54.9738C42.9454 54.3271 43.8021 53.5123 44.6763 53.1382C45.3363 53.2861 45.747 53.6891 45.6532 54.2662V54.2662Z" fill="#CAEA38"/>
<path opacity="0.7" d="M23.8387 64.1313C23.2783 63.853 23.7272 63.302 23.3341 62.8409C22.941 62.3828 22.0433 65.3522 21.835 65.3638C21.6238 65.3782 21.0341 63.853 20.7965 63.7022C20.556 63.5485 20.4181 64.1864 20.0807 65.3638C19.7434 66.544 18.5112 67.1239 17.7896 67.9823C17.0708 68.8406 12.732 73.3875 11.6671 75.1042C10.6198 76.7947 4.02217 80.2194 3.51172 80.5819C6.63307 77.975 10.9719 74.2806 12.1717 72.8887C14.105 70.6443 16.7951 67.9823 16.7951 67.9823C16.6308 64.865 16.9652 61.913 16.6689 60.7908C16.5164 60.205 16.2406 56.8703 16.0382 55.8437C15.5219 53.2223 13.2748 50.5081 13.0225 49.4381C12.7702 48.3681 9.79843 43.8009 11.2447 42.96C11.5469 42.7831 11.8432 42.728 12.1306 42.7686C11.8021 43.0006 11.4794 43.3311 11.7786 43.8125C12.3125 44.665 12.8993 45.564 12.8993 46.5064C12.8993 47.4488 14.5245 48.7769 15.1581 49.6498C15.7889 50.5255 15.1992 50.2181 15.6216 51.4244C16.0411 52.6337 16.5457 52.3785 16.798 53.5964C17.0503 54.8172 18.4526 55.5944 18.2296 57.1138C18.0037 58.6333 18.9014 60.7473 18.9014 60.7473C18.9014 60.7473 19.6319 58.6971 19.3649 57.5894C19.098 56.4817 19.406 55.0956 19.1596 54.7215C18.9395 54.3851 18.3646 52.103 18.0917 50.685C18.9689 52.0566 19.8255 53.5993 19.8255 53.5993C20.1629 52.2683 17.7221 47.53 17.0474 43.0411C16.3756 38.5523 14.4394 36.1425 17.0474 35.8642C17.2762 35.8381 17.4903 35.8613 17.6928 35.9193C18.8046 37.9723 18.0301 39.5005 17.7837 40.382C17.5138 41.3535 19.1214 43.8444 19.3591 45.564C19.5791 47.1676 20.0103 47.0023 20.0661 46.9733C20.0162 47.0168 19.6025 47.4343 19.849 48.6261C20.1101 49.8905 21.9788 52.883 21.9788 53.7182C21.9788 54.5533 21.8262 55.9307 21.8262 56.3396C21.8262 56.7485 23.3253 59.4743 23.4925 60.1905C23.6597 60.9068 23.4221 58.8131 23.8299 58.094C24.2376 57.3719 24.4518 54.8375 24.5046 54.9738C25.1911 56.7543 24.3931 64.4097 23.8299 64.1342L23.8387 64.1313Z" fill="#CAEA38"/>
<path opacity="0.7" d="M25.0454 45.3496C24.5701 46.0629 24.5818 51.6218 23.7634 51.6421C23.3703 51.6508 23.1796 50.2444 23.0182 48.4901C23.4407 49.708 23.7839 50.691 23.7839 50.691C23.866 48.4031 23.1532 46.2833 23.027 44.2042C22.9772 43.3748 23.2441 40.0459 22.9068 36.7227C22.6222 33.9157 22.7513 32.779 23.8602 32.5586C24.0949 33.3067 24.6669 34.1883 24.8136 35.0089C25.0131 36.1398 24.6229 37.0736 24.2855 37.2157C23.9482 37.3577 23.8924 38.0856 24.3119 38.1929C24.7315 38.3002 24.3002 43.6068 24.5085 44.297C24.7139 44.9842 25.5177 44.6362 25.0395 45.3496H25.0454Z" fill="#CAEA38"/>
<path opacity="0.7" d="M29.413 39.1235C28.5387 39.5034 28.4918 40.1849 28.2307 41.1621C27.9696 42.1393 28.6062 43.566 28.2307 45.8076C27.8552 48.0491 29.2223 49.4961 28.2307 52.0044C27.2392 54.5127 27.7056 49.9108 27.5384 47.7997C27.4709 46.9356 27.4973 45.7873 27.5501 44.7259C27.6704 45.938 27.776 46.8602 27.776 46.8602C27.776 46.8602 28.1134 44.0764 27.8611 38.068C27.8024 36.7515 27.8904 35.812 28.4126 35.4292C29.3103 36.2266 30.1552 38.793 29.41 39.1177L29.413 39.1235Z" fill="#CAEA38"/>
<path d="M17.5574 87.8548C17.5574 87.8548 26.2204 77.2966 28.2387 75.8815C30.257 74.4665 32.2695 73.8053 33.4077 72.3061C34.5459 70.8069 38.6677 67.2344 39.005 66.6515C39.3424 66.0687 40.6038 62.1626 41.9504 59.9182C43.2969 57.6738 45.5851 54.6754 45.6526 54.2636C45.9459 52.4338 41.2375 52.3526 39.2602 56.5921C39.2602 56.5921 36.3589 60.8316 35.9365 60.9157C35.514 60.9998 34.895 60.7504 34.895 60.7504C34.895 60.7504 33.792 56.8937 33.5397 53.7503C33.2874 50.607 31.9409 46.6168 31.9409 44.2883C31.9409 41.9598 31.3952 35.8006 29.7114 35.3512C28.0304 34.9017 27.7752 36.0413 27.8603 38.0741C28.1125 44.0795 27.7752 46.8662 27.7752 46.8662C27.7752 46.8662 27.1855 41.6466 27.1855 39.6747C27.1855 37.7029 26.502 32.6485 24.5776 32.5268C22.8115 32.4166 22.5651 33.3967 22.9025 36.7228C23.2398 40.0488 22.9729 43.3749 23.0227 44.2071C23.1489 46.2863 23.8647 48.406 23.7796 50.6911C23.7796 50.6911 21.5911 44.4304 21.4239 43.8736C20.2065 39.8139 19.3616 35.6179 17.0499 35.8644C14.4419 36.1399 16.3781 38.5525 17.0499 43.0414C17.7217 47.5303 20.1625 52.2714 19.8251 53.5995C19.8251 53.5995 17.8068 49.9777 16.8006 48.8932C15.5332 47.5303 13.6 41.5857 11.2443 42.9573C9.79512 43.8011 12.7698 48.3683 13.0221 49.4383C13.2744 50.5084 15.5215 53.2255 16.0378 55.8469C16.2402 56.8734 16.516 60.2082 16.6686 60.7939C16.9619 61.9161 16.6304 64.8681 16.7947 67.9854C16.7947 67.9854 14.1016 70.6474 12.1684 72.8919C10.2352 75.1363 0.140625 83.3688 0.140625 83.3688" stroke="#2E353A" stroke-linecap="round" stroke-linejoin="round"/>
<path d="M34.8945 60.7505C34.8945 60.7505 35.5341 62.0409 34.8945 63.7025" stroke="#2E353A" stroke-linecap="round" stroke-linejoin="round"/>
<path d="M35.6016 60.9243C35.6016 60.9243 36.4406 61.4956 36.1032 62.496" stroke="#2E353A" stroke-linecap="round" stroke-linejoin="round"/>
<path d="M27.7773 46.8662C27.7773 46.8662 28.4491 51.5639 28.1558 52.4367" stroke="#2E353A" stroke-linecap="round" stroke-linejoin="round"/>
<path d="M23.7832 50.688C23.7832 50.688 23.9093 51.3955 23.7832 52.0596" stroke="#2E353A" stroke-linecap="round" stroke-linejoin="round"/>
<path d="M19.8281 53.5996C19.8281 53.5996 19.9543 54.3072 19.8281 54.4724" stroke="#2E353A" stroke-linecap="round" stroke-linejoin="round"/>
<path d="M41.1523 57.5898C41.1523 57.5898 41.9121 57.9958 42.1615 58.5874" stroke="#2E353A" stroke-linecap="round" stroke-linejoin="round"/>
<path d="M23.8125 38.0743C23.8125 38.0743 24.584 38.3005 25.2148 37.7002" stroke="#2E353A" stroke-linecap="round" stroke-linejoin="round"/>
<path d="M24.0762 44.8276C24.0762 44.8276 25.5899 45.3264 26.1356 44.8276" stroke="#2E353A" stroke-linecap="round" stroke-linejoin="round"/>
<path d="M28.998 46.2833C28.998 46.2833 30.0072 45.9093 30.679 46.118" stroke="#2E353A" stroke-linecap="round" stroke-linejoin="round"/>
<path d="M19.3672 47.6142C19.3672 47.6142 20.1651 46.5761 20.7959 46.8661" stroke="#2E353A" stroke-linecap="round" stroke-linejoin="round"/>
<path d="M16.0842 50.688C16.0842 50.688 15.3684 51.0215 15.1602 51.3752" stroke="#2E353A" stroke-linecap="round" stroke-linejoin="round"/>
<path d="M16.8008 67.9826C16.8008 67.9826 17.1381 67.6086 17.2643 67.3592C17.3904 67.1098 17.2232 64.4478 17.2643 62.7456" stroke="#2E353A" stroke-linecap="round" stroke-linejoin="round"/>
<path d="M25.6252 78.4536C24.6336 79.5497 21.5944 81.5361 20.377 82.7424" stroke="#2E353A" stroke-linecap="round" stroke-linejoin="round"/>
<path d="M29.6295 53.5996C29.1249 55.0118 29.6705 56.801 29.6295 57.5897C29.5884 58.3785 29.4153 61.9974 29.4153 61.9974" stroke="#2E353A" stroke-linecap="round" stroke-linejoin="round"/>
<path d="M25.0434 53.5996C24.3716 54.7218 24.5799 56.2181 24.7911 56.9663C25.0023 57.7144 24.8146 60.7476 24.8146 60.7476" stroke="#2E353A" stroke-linecap="round" stroke-linejoin="round"/>
<path d="M17.8099 57.1748C17.6838 58.297 18.2294 59.2946 18.2294 59.2946" stroke="#2E353A" stroke-linecap="round" stroke-linejoin="round"/>
<path d="M21.972 54.9712C21.5935 56.3428 22.0981 56.9662 22.1392 57.175" stroke="#2E353A" stroke-linecap="round" stroke-linejoin="round"/>
<path opacity="0.3" d="M56.1348 45.9062L55.419 41.7943C55.2841 41.023 55.8268 40.298 56.613 40.1965L58.2177 39.9906C58.2177 39.9906 57.6838 38.9148 59.4058 35.7801C61.1308 32.6455 69.4182 24.3376 75.7049 38.303C81.9887 52.2684 87.7327 80.7211 87.7327 80.7211C87.7327 80.7211 70.7677 61.1997 70.2279 60.1993C69.6881 59.1989 64.522 59.7962 63.331 57.1139C62.1399 54.4316 59.6346 46.7733 59.6346 46.7733L57.6955 47.0342C56.9533 47.1328 56.2639 46.6341 56.1378 45.9062H56.1348Z" fill="black"/>
<g opacity="0.7">
<path d="M71.087 36.4762L67.8307 37.059L63.3071 37.871L57.3812 38.9352C56.903 39.0222 56.4454 38.709 56.3573 38.2363L55.0548 31.1638C54.9698 30.6911 55.2866 30.2387 55.7618 30.1517L59.2088 29.5312L64.2223 28.6322L69.4676 27.6898C69.9458 27.6028 70.4034 27.916 70.4915 28.3887L71.794 35.4612C71.882 35.9339 71.5652 36.3863 71.087 36.4733V36.4762Z" fill="#CAEA38"/>
<path opacity="0.7" d="M68.783 31.7816L67.8296 37.0621L63.306 37.874C61.9976 37.3057 59.8355 36.311 59.4043 35.7833C58.8909 35.154 58.9613 31.4365 59.2106 29.5371L64.2242 28.6382C65.9902 29.8329 68.783 31.7816 68.783 31.7816V31.7816Z" fill="#CAEA38"/>
<path opacity="0.3" d="M58.2779 38.7786L57.3773 38.941C56.8991 39.028 56.4414 38.7148 56.3534 38.2421L55.0509 31.1695C54.9658 30.6969 55.2827 30.2445 55.7579 30.1575L56.6556 29.9951C56.1804 30.0821 55.8635 30.5345 55.9486 31.0071L57.2511 38.0797C57.3391 38.5524 57.7968 38.8656 58.2749 38.7786H58.2779Z" fill="#CAEA38" fill-opacity="0.7"/>
</g>
<path d="M56.9879 29.9406L70.037 27.5965C70.6951 27.4783 71.329 27.9097 71.4491 28.563L72.6298 34.9853C72.7494 35.6358 72.313 36.2624 71.652 36.3811L58.603 38.7252C57.9449 38.8434 57.311 38.412 57.1909 37.7587L56.0101 31.3364C55.8905 30.6859 56.3269 30.0594 56.9879 29.9406Z" stroke="#2E353A" stroke-linecap="round" stroke-linejoin="round"/>
<path d="M69.5792 28.1874L57.0323 30.4412C56.7135 30.4985 56.502 30.8004 56.56 31.1155L57.7832 37.7689C57.8411 38.084 58.1466 38.2931 58.4654 38.2358L71.0122 35.9819C71.3311 35.9246 71.5425 35.6227 71.4846 35.3076L70.2614 28.6543C70.2035 28.3391 69.898 28.1301 69.5792 28.1874Z" stroke="#2E353A" stroke-linecap="round" stroke-linejoin="round"/>
<path d="M71.9838 36.3137L71.092 36.4732C71.5673 36.3862 71.8812 35.9339 71.7931 35.4641L70.4906 28.3915C70.4026 27.9188 69.945 27.6056 69.4668 27.6926L70.3674 27.5303C70.8456 27.4462 71.3032 27.7593 71.3912 28.2291L72.6938 35.3017C72.7788 35.7744 72.462 36.2267 71.9868 36.3137H71.9838Z" stroke="#2E353A" stroke-linecap="round" stroke-linejoin="round"/>
<path d="M97.8526 58.9696L89.043 82.3158C89.043 82.3158 85.3613 75.3882 81.9584 68.9623C79.2418 63.8297 76.7013 59.016 76.361 58.3085C75.5924 56.7136 72.9815 53.373 72.9815 53.373C72.9815 53.373 70.2914 51.8506 69.0622 49.2002C67.8331 46.5469 66.4777 37.0704 66.4777 37.0704C66.4777 37.0704 62.9427 35.7539 62.0979 35.1739C61.253 34.5969 60.4844 29.2757 60.4844 28.6697C60.4844 28.0636 61.3293 26.8457 61.3293 26.8457C61.3293 26.8457 61.1386 25.9555 62.2211 25.0536C62.5086 24.813 62.887 24.5723 63.3828 24.349C63.3886 24.3461 63.3974 24.3432 63.4033 24.3374C63.4033 24.3374 63.2625 22.3249 64.3215 21.7392C64.3714 21.7131 64.4242 21.687 64.4799 21.6667C65.4246 21.3071 68.5166 20.8431 68.5166 20.8431C68.5166 20.8431 69.2471 20.1936 70.0157 19.9877C70.5642 19.8398 73.5741 20.53 75.258 20.9388C75.9327 21.1041 76.3963 21.2201 76.3963 21.2201C76.3963 21.2201 79.2418 21.3477 79.7787 21.6667C80.2099 21.9219 80.6441 22.3626 80.7996 22.525C80.8319 22.5627 80.8524 22.5859 80.8524 22.5859C80.8524 22.5859 83.39 23.1079 83.9268 24.0242C84.4637 24.9406 84.6954 29.499 84.3111 32.4597C83.9268 35.4233 84.6162 40.4457 84.6162 40.4457C84.6162 40.4457 85.4083 44.3286 86.0243 45.8017C86.6404 47.2748 97.8614 58.9638 97.8614 58.9638L97.8526 58.9696Z" fill="white"/>
<path opacity="0.7" d="M81.9584 68.9595C79.2418 63.8268 76.7013 59.0132 76.361 58.3056C75.5924 56.7107 72.9815 53.3702 72.9815 53.3702C72.9815 53.3702 70.2914 51.8478 69.0622 49.1974C67.8331 46.5441 66.4777 37.0675 66.4777 37.0675C66.4777 37.0675 62.9427 35.751 62.0979 35.1711C61.253 34.594 60.4844 29.2729 60.4844 28.6668C60.4844 28.0608 61.3293 26.8429 61.3293 26.8429C61.3293 26.8429 61.1386 25.9526 62.2211 25.0508C62.2211 25.2915 62.224 25.6945 62.2123 26.3296C62.1859 27.533 63.6233 34.7941 63.9783 34.5737C64.3333 34.3504 64.8818 33.8227 64.7381 33.3529C64.7381 33.3529 64.0428 30.5343 63.3857 24.3461C63.3916 24.3432 63.4004 24.3403 63.4062 24.3345C63.4062 24.3345 63.2654 22.3221 64.3245 21.7363C64.1338 22.2438 63.9871 22.7484 63.9783 23.0992C63.9548 24.0794 65.1341 32.4714 65.5947 32.683C66.0582 32.8918 67.2258 31.7783 67.2258 31.7783C67.2258 31.7783 66.8268 29.3976 66.9676 28.3827C66.9676 28.3827 70.5261 30.5256 70.6317 32.9614C70.6435 33.2282 71.324 37.0443 71.324 37.0443C71.324 37.0443 68.2643 42.8033 71.3886 48.0577C71.3886 48.0577 69.8015 47.1153 69.4231 45.619C69.4231 45.619 68.9625 50.0209 72.2423 52.3494C72.2423 52.3494 74.595 50.0644 76.9096 49.7744C76.9096 49.7744 76.9507 49.9252 75.3959 51.1373C73.8411 52.3494 73.6299 52.8888 73.6299 52.8888C73.6299 52.8888 75.3138 51.2127 76.6603 51.1373C76.6603 51.1373 75.2727 52.7235 75.3138 53.057C75.3548 53.3905 79.2829 60.0252 80.7116 64.6562C81.31 66.599 81.709 67.9938 81.9672 68.9595H81.9584Z" fill="#CAEA38"/>
<path opacity="0.7" d="M70.9316 24.9146C70.9316 24.9146 72.064 25.7439 72.4014 24.9146C72.7387 24.0852 72.7651 23.5024 72.7651 23.5024C72.7651 23.5024 73.1993 23.3023 73.6188 24.3375C74.0383 25.3727 78.1923 25.6395 79.1633 26.1702C80.1344 26.7008 80.5245 26.1702 80.5245 26.1702C80.5245 26.1702 81.3137 26.7675 80.8443 27.7332C80.372 28.6988 81.7097 28.7829 82.229 28.0753C82.7453 27.3678 82.3463 30.1081 81.0643 30.3807C81.0643 30.3807 81.1024 31.5783 80.2781 32.4018H80.9763C80.9763 32.4018 79.1135 33.8604 78.6177 33.9416C78.1219 34.0228 80.4629 34.8406 80.0287 35.0116C79.5946 35.1856 78.3654 35.1682 78.3654 35.1682C78.3654 35.1682 79.1604 35.7134 79.1663 36.073C79.1721 36.4325 78.7908 36.7022 78.6177 36.4035C78.4446 36.1049 77.0717 31.7987 76.3882 30.2067C75.7046 28.6147 72.8678 27.3649 70.9316 24.9146V24.9146Z" fill="#CAEA38"/>
<path opacity="0.4" d="M80.7907 22.5252C78.4056 21.8785 75.2051 20.9622 75.2051 20.9622C75.2051 20.9622 75.2198 20.9535 75.2491 20.939C75.9238 21.1043 76.3873 21.2202 76.3873 21.2202C76.3873 21.2202 79.2329 21.3478 79.7698 21.6668C80.201 21.922 80.6352 22.3628 80.7907 22.5252V22.5252Z" fill="#CAEA38"/>
<path opacity="0.7" d="M77.4256 26.2339C75.3516 25.8163 73.8672 27.5649 73.8672 27.5649C73.8672 27.5649 75.9324 29.4091 76.3872 30.2037C76.8448 31.0011 77.6017 33.666 77.6017 33.666C78.47 33.8052 80.0747 32.9208 80.459 30.5633C80.8433 28.2057 79.4997 26.6514 77.4227 26.2339H77.4256Z" fill="#CAEA38"/>
<path d="M89.0401 82.3131C89.0401 82.3131 77.1267 59.9006 76.3581 58.3057C75.5895 56.7108 72.9757 53.3674 72.9757 53.3674C72.9757 53.3674 70.2856 51.8479 69.0564 49.1946C67.8272 46.5442 66.4719 37.0618 66.4719 37.0618C66.4719 37.0618 62.9369 35.7482 62.092 35.1683C61.2471 34.5883 60.4785 29.2701 60.4785 28.664C60.4785 28.058 61.3234 26.8401 61.3234 26.8401C61.3234 26.8401 61.0154 25.3989 63.3975 24.3347C63.3975 24.3347 63.2449 22.1308 64.4741 21.661C65.4187 21.3015 68.5078 20.8375 68.5078 20.8375C68.5078 20.8375 69.2383 20.1908 70.0069 19.9821C70.7755 19.7733 76.3875 21.2174 76.3875 21.2174C76.3875 21.2174 79.2301 21.345 79.7699 21.661C80.3068 21.9771 80.8465 22.5861 80.8465 22.5861C80.8465 22.5861 83.3841 23.108 83.921 24.0244C84.4578 24.9407 84.6896 29.4992 84.3053 32.4628C83.921 35.4264 84.6104 40.4488 84.6104 40.4488C84.6104 40.4488 85.4024 44.3287 86.0185 45.8018C86.6345 47.2749 97.8556 58.964 97.8556 58.964" stroke="#2E353A" stroke-linecap="round" stroke-linejoin="round"/>
<path d="M78.9632 36.7575C78.9632 36.7575 78.4264 36.6444 77.734 34.1361C77.0417 31.6278 76.8598 30.4563 75.4282 28.9687C74.4103 27.9132 72.0839 26.2023 70.931 24.9119C69.7781 23.6215 68.5108 22.5862 67.5104 23.375C66.7125 24.0042 66.1962 25.6455 66.8944 28.1712C67.7921 31.4161 70.62 32.9617 70.62 32.9617L71.3124 37.0446C71.3124 37.0446 68.3054 43.0008 71.6967 48.6235" stroke="#2E353A" stroke-linecap="round" stroke-linejoin="round"/>
<path d="M73.8652 27.5678C73.8652 27.5678 75.3496 25.8192 77.4237 26.2368C79.4978 26.6544 80.8443 28.2116 80.46 30.5662C80.0757 32.9208 78.471 33.8082 77.6026 33.669" stroke="#2E353A" stroke-linecap="round" stroke-linejoin="round"/>
<path d="M68.5068 20.8403C68.5068 20.8403 68.1518 21.6262 67.791 23.2269" stroke="#2E353A" stroke-linecap="round" stroke-linejoin="round"/>
<path d="M67.2461 29.0728C67.2461 29.0728 67.425 31.6681 67.7947 32.4655C68.1643 33.263 68.7774 33.9096 69.0473 34.9332C69.3172 35.9598 69.3554 37.5546 69.4316 37.7808C69.5079 38.0099 69.9538 38.0708 69.9538 38.0708C70.5845 38.0853 70.8486 37.7576 71.2153 37.256" stroke="#2E353A" stroke-linecap="round" stroke-linejoin="round"/>
<path d="M63.3965 24.3374C63.3965 24.3374 63.9744 29.8818 64.435 32.2364C64.8956 34.5911 65.7023 34.9332 67.0488 35.693C68.3924 36.4527 69.1229 38.0099 69.2402 38.239C69.3546 38.4681 69.7947 38.4971 69.7947 38.4971C70.1995 38.5058 70.8508 38.1346 71.0327 37.6967" stroke="#2E353A" stroke-linecap="round" stroke-linejoin="round"/>
<path d="M61.3241 26.8428C61.1803 27.0632 62.4124 32.6917 63.052 34.3271C63.6944 35.9597 63.7678 36.2265 65.4663 36.6818C67.1649 37.137 68.4557 37.9113 68.9162 37.6416" stroke="#2E353A" stroke-linecap="round" stroke-linejoin="round"/>
<path d="M73.1191 23.7285C73.1191 23.7285 74.0022 25.8164 73.4184 27.1909" stroke="#2E353A" stroke-linecap="round" stroke-linejoin="round"/>
<path d="M76.3867 21.2202C76.3867 21.2202 78.6544 22.1308 80.8458 22.5889" stroke="#2E353A" stroke-linecap="round" stroke-linejoin="round"/>
<path d="M82.2288 28.438C82.2288 28.438 81.5541 29.6617 80.5273 29.9227" stroke="#2E353A" stroke-linecap="round" stroke-linejoin="round"/>
<path d="M80.5261 27.1069C80.5261 27.1069 80.2826 27.7304 80.0273 27.9131" stroke="#2E353A" stroke-linecap="round" stroke-linejoin="round"/>
<path d="M81.378 32.1235C81.378 32.1235 79.8408 33.2748 78.3652 33.5734" stroke="#2E353A" stroke-linecap="round" stroke-linejoin="round"/>
<path d="M77.7305 34.1357C77.7305 34.1357 78.3612 34.9332 80.0245 35.0086" stroke="#2E353A" stroke-linecap="round" stroke-linejoin="round"/>
<path d="M72.7637 30.6506C72.7637 30.6506 74.2686 29.2239 75.1282 29.4211" stroke="#2E353A" stroke-linecap="round" stroke-linejoin="round"/>
<path d="M75.7039 30.9434C75.7039 30.9434 74.5657 31.7901 74.3574 31.7814" stroke="#2E353A" stroke-linecap="round" stroke-linejoin="round"/>
<path d="M63.9688 35.3916C63.9688 35.3916 64.3472 35.4612 64.6405 35.0117" stroke="#2E353A" stroke-linecap="round" stroke-linejoin="round"/>
<path d="M65.3164 33.353C65.3164 33.353 66.2288 32.7933 66.8272 32.686" stroke="#2E353A" stroke-linecap="round" stroke-linejoin="round"/>
<path d="M73.3691 52.3121C73.5569 52.1468 75.3229 50.7317 76.4172 50.2329" stroke="#2E353A" stroke-linecap="round" stroke-linejoin="round"/>
<path d="M75.6594 51.6421C75.5333 51.6044 74.53 52.6425 74.002 53.0572" stroke="#2E353A" stroke-linecap="round" stroke-linejoin="round"/>
<path d="M76.1641 54.7217C76.1641 54.7217 79.5289 61.0229 80.2858 63.5457" stroke="#2E353A" stroke-linecap="round" stroke-linejoin="round"/>
<path d="M86.0156 45.8047C86.3031 47.3532 87.2272 48.4957 87.7318 49.1133" stroke="#2E353A" stroke-linecap="round" stroke-linejoin="round"/>
<path opacity="0.4" d="M75.4081 26.8429C74.9182 27.1386 75.4345 28.1159 75.7044 28.6146C75.9743 29.1134 77.1947 29.9021 77.447 30.6503C77.6993 31.3984 79.2981 31.3781 79.7821 30.6503C80.2662 29.9224 80.2075 28.4696 78.8815 27.3648C77.5555 26.26 76.1034 26.4195 75.4081 26.84V26.8429Z" fill="white"/>
</g>
<defs>
<clipPath id="clip0_765_7950">
<rect width="98" height="88" fill="white"/>
</clipPath>
</defs>
</svg>
