<svg width="85" height="50" viewBox="0 0 85 50" fill="none" xmlns="http://www.w3.org/2000/svg">
<path d="M33.4965 5.63733L16.764 22.534V0.284811C19.7737 -0.244253 22.8652 -0.0341014 25.7776 0.897513C28.6899 1.82913 31.3374 3.45484 33.4965 5.63733Z" fill="url(#paint0_linear_1177_216)"/>
<path d="M16.7388 0.278442V22.5276L6.52806 32.8385C4.75863 31.0522 3.355 28.9314 2.39737 26.5973C1.43973 24.2631 0.946838 21.7613 0.946838 19.2347C0.946838 16.7082 1.43973 14.2064 2.39737 11.8722C3.355 9.53805 4.75863 7.41725 6.52806 5.63096C9.30054 2.82199 12.8684 0.951707 16.7388 0.278442Z" fill="#09AA2F"/>
<path d="M16.7388 26.6723V48.9215C13.7276 49.454 10.6336 49.245 7.71951 48.3121C4.80542 47.3791 2.1573 45.7499 0 43.5626L16.7388 26.6723Z" fill="url(#paint1_linear_1177_216)"/>
<path d="M26.9433 43.5626C24.1717 46.3694 20.6066 48.2394 16.7388 48.9151V26.666L26.9433 16.3551C28.7127 18.1414 30.1163 20.2622 31.0739 22.5963C32.0316 24.9305 32.5245 27.4323 32.5245 29.9589C32.5245 32.4854 32.0316 34.9872 31.0739 37.3214C30.1163 39.6555 28.7127 41.7763 26.9433 43.5626Z" fill="#4286F6"/>
<path d="M39.6153 10.2334C39.0345 10.0533 38.504 9.7375 38.0667 9.31162C37.8717 9.11806 37.718 8.88622 37.6152 8.63038C37.5123 8.37455 37.4625 8.10014 37.4687 7.8241C37.4675 7.54496 37.5228 7.26852 37.631 7.01167C37.7392 6.75482 37.8982 6.52295 38.0982 6.33023C38.29 6.12611 38.5216 5.96427 38.7783 5.85487C39.0351 5.74547 39.3115 5.69089 39.5901 5.69454C39.8677 5.69214 40.1427 5.74733 40.3983 5.85668C40.6538 5.96602 40.8844 6.12721 41.0758 6.33023C41.3539 6.64029 41.5546 7.01299 41.6612 7.41726L40.6036 7.83682C40.5341 7.58912 40.4164 7.3579 40.2574 7.15663C40.1708 7.06714 40.0668 6.99668 39.952 6.94964C39.8372 6.90261 39.714 6.88002 39.5901 6.88328C39.4663 6.88077 39.3434 6.9037 39.2287 6.9507C39.1139 6.99769 39.0099 7.06775 38.9228 7.15663C38.8334 7.24377 38.7626 7.34855 38.715 7.46447C38.6673 7.58039 38.6438 7.70497 38.6458 7.83046C38.6438 7.95595 38.6673 8.08053 38.715 8.19645C38.7626 8.31236 38.8334 8.41715 38.9228 8.50429C39.1736 8.74155 39.4633 8.93299 39.779 9.07005C40.4554 9.28353 41.0708 9.6586 41.5731 10.1634C41.841 10.4198 42.0533 10.7297 42.1963 11.0733C42.3394 11.4169 42.4101 11.7868 42.404 12.1595C42.41 12.5335 42.3399 12.9048 42.198 13.2503C42.0562 13.5958 41.8456 13.9083 41.5794 14.1683C41.3219 14.4372 41.0125 14.6498 40.6703 14.793C40.3281 14.9363 39.9605 15.0071 39.5901 15.0011C39.2208 15.0062 38.8544 14.935 38.5133 14.7917C38.1723 14.6485 37.8639 14.4364 37.6071 14.1683C37.1397 13.6634 36.848 13.0185 36.7762 12.3311L37.903 11.918C37.9184 12.4375 38.1019 12.9377 38.4255 13.3419C38.5768 13.4987 38.7581 13.6229 38.9582 13.707C39.1584 13.7911 39.3733 13.8334 39.5901 13.8314C39.8071 13.8349 40.0225 13.7933 40.2229 13.7091C40.4233 13.6249 40.6043 13.4999 40.7547 13.3419C40.9123 13.1895 41.0367 13.0057 41.1201 12.8022C41.2036 12.5986 41.2442 12.3798 41.2394 12.1595C41.2437 11.9403 41.2028 11.7225 41.1194 11.5201C41.036 11.3176 40.9118 11.1349 40.7547 10.9835C40.4305 10.6564 40.0425 10.4009 39.6153 10.2334Z" fill="#333333"/>
<path d="M48.5418 9.46422V9.05102H49.7064V14.9057H48.5418V14.1747C48.2925 14.4503 47.9891 14.6706 47.651 14.8216C47.3129 14.9726 46.9475 15.051 46.5778 15.0519C46.1568 15.0596 45.7388 14.9794 45.3499 14.8164C44.9611 14.6534 44.6097 14.4112 44.3178 14.1048C44.0144 13.81 43.7744 13.4552 43.613 13.0625C43.4516 12.6698 43.3723 12.2477 43.3798 11.8226C43.3718 11.3965 43.4509 10.9733 43.6123 10.5795C43.7737 10.1857 44.0139 9.82985 44.3178 9.53414C44.6106 9.22895 44.9621 8.98748 45.3508 8.82459C45.7394 8.6617 46.157 8.58083 46.5778 8.58696C46.9475 8.58786 47.3129 8.6663 47.651 8.81731C47.9891 8.96832 48.2925 9.18861 48.5418 9.46422ZM48.5418 12.2485V11.3904C48.4651 11.0083 48.2765 10.6584 48.0005 10.386C47.8154 10.1952 47.5938 10.0445 47.3492 9.94283C47.1047 9.8412 46.8422 9.79082 46.5778 9.79477C46.3142 9.7902 46.0525 9.84031 45.8088 9.942C45.5652 10.0437 45.3448 10.1948 45.1614 10.386C44.9683 10.57 44.8157 10.793 44.7138 11.0406C44.6118 11.2881 44.5627 11.5546 44.5696 11.8226C44.5645 12.0885 44.6145 12.3526 44.7164 12.5978C44.8183 12.843 44.9698 13.064 45.1614 13.2466C45.3429 13.4408 45.5627 13.5943 45.8067 13.6972C46.0507 13.8002 46.3134 13.8502 46.5778 13.8441C46.8422 13.8481 47.1047 13.7977 47.3492 13.6961C47.5938 13.5944 47.8154 13.4437 48.0005 13.2529C48.2765 12.9805 48.4651 12.6306 48.5418 12.2485Z" fill="#333333"/>
<path d="M52.6589 6.88964C52.7366 6.96515 52.798 7.0561 52.8391 7.15676C52.8803 7.25741 52.9004 7.3656 52.8981 7.47448C52.8996 7.58326 52.8792 7.69121 52.8381 7.79176C52.797 7.89231 52.736 7.98335 52.6589 8.05931C52.5829 8.13574 52.4925 8.19595 52.393 8.23636C52.2935 8.27676 52.1869 8.29654 52.0797 8.29452C51.9734 8.29641 51.8679 8.27655 51.7694 8.23612C51.671 8.1957 51.5816 8.13555 51.5068 8.05931C51.4277 7.9846 51.3649 7.89395 51.3226 7.79321C51.2803 7.69247 51.2595 7.58388 51.2613 7.47448C51.2591 7.36502 51.2798 7.25631 51.3221 7.15551C51.3644 7.05471 51.4274 6.9641 51.5068 6.88964C51.5811 6.81225 51.6702 6.75093 51.7687 6.7094C51.8672 6.66787 51.973 6.64701 52.0797 6.64808C52.1873 6.64725 52.294 6.66819 52.3935 6.70968C52.493 6.75117 52.5832 6.81236 52.6589 6.88964ZM52.6589 9.05099V14.8993H51.4943V9.05099H52.6589Z" fill="#333333"/>
<path d="M40.0309 20.9511V28.8655H38.8599V20.9511H36.7637V19.7751H42.1271V20.9511H40.0309Z" fill="#333333"/>
<path d="M44.5885 27.5369C44.9011 27.7492 45.2777 27.8437 45.6524 27.8039C45.9169 27.8082 46.1795 27.758 46.4241 27.6563C46.6687 27.5547 46.8902 27.4037 47.0751 27.2127C47.1255 27.1555 47.2262 27.041 47.371 26.8567L48.5419 27.2762C48.3471 27.5529 48.1369 27.8182 47.9123 28.0709C47.6186 28.3765 47.266 28.6183 46.8762 28.7811C46.4865 28.944 46.0679 29.0247 45.6461 29.018C45.2253 29.0242 44.8078 28.9433 44.4191 28.7804C44.0305 28.6175 43.6789 28.376 43.3861 28.0709C43.0818 27.7738 42.841 27.4169 42.6786 27.0222C42.5162 26.6275 42.4356 26.2034 42.4419 25.776C42.4361 25.3497 42.5169 24.9266 42.6794 24.533C42.8418 24.1394 43.0823 23.7836 43.3861 23.4875C43.6789 23.1823 44.0305 22.9409 44.4191 22.778C44.8078 22.6151 45.2253 22.5342 45.6461 22.5403C46.3694 22.5271 47.074 22.7725 47.6354 23.2332C47.7322 23.3129 47.8246 23.3978 47.9123 23.4875L48.2334 23.8435L47.648 24.4411L44.5885 27.5369ZM46.5337 23.9007C46.2596 23.7686 45.9545 23.7158 45.6524 23.7482C45.388 23.7421 45.1253 23.7921 44.8813 23.895C44.6374 23.998 44.4175 24.1515 44.236 24.3457C44.0467 24.531 43.897 24.7535 43.7963 24.9995C43.6956 25.2456 43.646 25.5098 43.6505 25.776C43.6202 26.0831 43.6724 26.3927 43.8016 26.6723L46.5337 23.9007Z" fill="#333333"/>
<path d="M54.4782 26.8567L55.6428 27.2762C55.448 27.5529 55.2379 27.8182 55.0133 28.0708C54.7195 28.3765 54.3669 28.6182 53.9772 28.7811C53.5875 28.944 53.1688 29.0246 52.747 29.018C52.3263 29.0241 51.9088 28.9433 51.5201 28.7804C51.1314 28.6175 50.7799 28.376 50.4871 28.0708C50.1828 27.7738 49.942 27.4169 49.7796 27.0222C49.6171 26.6275 49.5366 26.2034 49.5428 25.776C49.5371 25.3496 49.6179 24.9266 49.7803 24.533C49.9427 24.1394 50.1832 23.7836 50.4871 23.4875C50.7799 23.1823 51.1314 22.9408 51.5201 22.778C51.9088 22.6151 52.3263 22.5342 52.747 22.5403C53.1688 22.5337 53.5875 22.6143 53.9772 22.7772C54.3669 22.9401 54.7195 23.1818 55.0133 23.4875C55.2388 23.7349 55.449 23.996 55.6428 24.2694L54.4782 24.7017C54.3271 24.511 54.2264 24.3965 54.1698 24.3393C53.9863 24.1482 53.7659 23.9971 53.5223 23.8954C53.2786 23.7937 53.0169 23.7436 52.7533 23.7481C52.489 23.7421 52.2263 23.7921 51.9823 23.895C51.7383 23.998 51.5184 24.1515 51.3369 24.3457C51.1476 24.531 50.998 24.7535 50.8973 24.9995C50.7966 25.2455 50.747 25.5098 50.7515 25.776C50.747 26.0422 50.7966 26.3064 50.8973 26.5525C50.998 26.7985 51.1476 27.021 51.3369 27.2063C51.5201 27.3983 51.7403 27.5504 51.9839 27.6532C52.2275 27.7559 52.4894 27.8072 52.7533 27.8039C53.0178 27.8082 53.2804 27.758 53.525 27.6563C53.7697 27.5547 53.9912 27.4037 54.1761 27.2127L54.4782 26.8567Z" fill="#333333"/>
<path d="M56.99 19.7751H58.1609V23.6464C58.2792 23.3659 58.4765 23.1266 58.7283 22.9582C58.9801 22.7898 59.2753 22.6998 59.5773 22.6993C59.8597 22.6878 60.1408 22.7427 60.3986 22.8596C60.6564 22.9765 60.8839 23.1523 61.063 23.3731C61.4448 23.8512 61.6476 24.4499 61.6358 25.064V28.8782H60.4712V25.1276C60.4777 24.8141 60.3753 24.5082 60.1816 24.2631C60.0778 24.1305 59.9444 24.0246 59.7923 23.9539C59.6403 23.8832 59.4739 23.8497 59.3066 23.8562C59.0641 23.8631 58.8288 23.9405 58.6289 24.0793C58.429 24.218 58.273 24.412 58.1798 24.6381V28.84H57.0089L56.99 19.7751Z" fill="#333333"/>
<path d="M64.4938 24.5873V28.8655H63.3229V23.0171H64.4938V23.6973C64.5898 23.3876 64.7874 23.1201 65.0539 22.9387C65.3205 22.7573 65.6402 22.6729 65.9605 22.6993C66.2439 22.6873 66.5262 22.7419 66.7851 22.8589C67.044 22.9758 67.2724 23.1518 67.4525 23.3731C67.8343 23.8512 68.0372 24.4499 68.0254 25.0641V28.8782H66.8607V25.1276C66.8636 24.9657 66.8325 24.805 66.7696 24.656C66.7067 24.507 66.6133 24.3731 66.4956 24.2631C66.383 24.136 66.2453 24.0341 66.0914 23.964C65.9374 23.8939 65.7706 23.8572 65.6017 23.8562C65.4421 23.8531 65.2835 23.8824 65.1353 23.9425C64.9871 24.0026 64.8525 24.0921 64.7393 24.2059C64.6339 24.3159 64.5505 24.4454 64.4938 24.5873Z" fill="#333333"/>
<path d="M72.5956 22.5404C73.0172 22.5348 73.4355 22.616 73.8251 22.7788C74.2147 22.9416 74.5674 23.1828 74.8619 23.4875C75.1628 23.7852 75.4007 24.1416 75.5608 24.535C75.721 24.9284 75.8002 25.3507 75.7936 25.776C75.8007 26.2024 75.7218 26.6257 75.5616 27.0203C75.4014 27.4148 75.1633 27.7723 74.8619 28.0709C74.5674 28.3756 74.2147 28.6168 73.8251 28.7796C73.4355 28.9424 73.0172 29.0236 72.5956 29.018C72.174 29.0236 71.7557 28.9424 71.3661 28.7796C70.9765 28.6168 70.6238 28.3756 70.3294 28.0709C70.0247 27.7711 69.7834 27.412 69.6201 27.0154C69.4567 26.6188 69.3746 26.1928 69.3788 25.7633C69.3733 25.3376 69.4537 24.9152 69.6149 24.5217C69.7762 24.1283 70.015 23.7721 70.3168 23.4748C70.6137 23.1708 70.969 22.9311 71.3608 22.7704C71.7527 22.6097 72.1728 22.5315 72.5956 22.5404ZM71.1729 24.3457C70.9848 24.5319 70.8359 24.7546 70.7353 25.0004C70.6347 25.2462 70.5844 25.5101 70.5875 25.776C70.5825 26.0432 70.6318 26.3086 70.7325 26.5557C70.8332 26.8028 70.9831 27.0265 71.1729 27.2127C71.3578 27.4037 71.5793 27.5547 71.8239 27.6563C72.0686 27.758 72.3311 27.8082 72.5956 27.8039C72.8592 27.8085 73.1209 27.7583 73.3646 27.6567C73.6082 27.555 73.8286 27.4039 74.012 27.2127C74.2051 27.0287 74.3576 26.8056 74.4596 26.5581C74.5616 26.3105 74.6107 26.044 74.6038 25.776C74.6071 25.5094 74.5563 25.245 74.4546 24.999C74.3528 24.753 74.2022 24.5307 74.012 24.3457C73.8289 24.1537 73.6087 24.0016 73.3651 23.8988C73.1215 23.7961 72.8596 23.7448 72.5956 23.7482C72.3307 23.745 72.068 23.7964 71.8234 23.8992C71.5788 24.0019 71.3575 24.1538 71.1729 24.3457Z" fill="#333333"/>
<path d="M39.6153 38.1656C39.034 37.9835 38.5035 37.6655 38.0667 37.2375C37.8713 37.0456 37.7173 36.815 37.6143 36.5601C37.5114 36.3052 37.4618 36.0315 37.4687 35.7564C37.4664 35.477 37.5211 35.2003 37.6294 34.9433C37.7377 34.6862 37.8973 34.4545 38.0982 34.2625C38.2902 34.0587 38.5219 33.897 38.7786 33.7877C39.0353 33.6783 39.3115 33.6235 39.5901 33.6268C39.8677 33.6244 40.1427 33.6796 40.3983 33.7889C40.6538 33.8983 40.8844 34.0595 41.0758 34.2625C41.3557 34.5688 41.5567 34.9399 41.6612 35.3432L40.6036 35.7691C40.5322 35.5202 40.4147 35.2873 40.2574 35.0825C40.1699 34.9942 40.0658 34.9246 39.9512 34.8776C39.8366 34.8307 39.7138 34.8074 39.5901 34.8092C39.4659 34.8079 39.3428 34.832 39.2281 34.88C39.1134 34.9281 39.0096 34.9992 38.9228 35.0889C38.8334 35.176 38.7626 35.2808 38.715 35.3967C38.6673 35.5126 38.6438 35.6372 38.6458 35.7627C38.6445 35.8881 38.6684 36.0125 38.716 36.1283C38.7636 36.2441 38.834 36.3489 38.9228 36.4365C39.1752 36.6717 39.4646 36.8628 39.779 37.0023C40.4548 37.2139 41.0701 37.5868 41.5731 38.0893C41.8412 38.3469 42.0535 38.6579 42.1965 39.0026C42.3396 39.3472 42.4102 39.7181 42.404 40.0918C42.4085 40.4655 42.3377 40.8364 42.196 41.1817C42.0542 41.527 41.8444 41.8396 41.5794 42.1005C41.321 42.3682 41.0114 42.58 40.6694 42.7232C40.3275 42.8663 39.9603 42.9378 39.5901 42.9333C39.2202 42.9388 38.8532 42.8671 38.5119 42.7227C38.1707 42.5783 37.8627 42.3643 37.6071 42.0942C37.1386 41.5926 36.8466 40.9492 36.7762 40.2634L37.903 39.8438C37.917 40.3656 38.1006 40.8682 38.4255 41.2741C38.5768 41.4309 38.7581 41.5551 38.9582 41.6392C39.1584 41.7234 39.3733 41.7657 39.5901 41.7636C39.8071 41.7672 40.0225 41.7256 40.2229 41.6413C40.4233 41.5571 40.6043 41.4321 40.7547 41.2741C40.912 41.1215 41.0362 40.9377 41.1196 40.7342C41.203 40.5307 41.2438 40.312 41.2394 40.0918C41.2437 39.8725 41.2029 39.6548 41.1194 39.4523C41.036 39.2499 40.9118 39.0672 40.7547 38.9157C40.4305 38.5886 40.0425 38.3332 39.6153 38.1656Z" fill="#333333"/>
<path d="M46.3826 36.5065C46.8046 36.4983 47.2237 36.5783 47.6136 36.7413C48.0036 36.9042 48.356 37.1468 48.6489 37.4537C48.9513 37.7505 49.1905 38.1066 49.3518 38.5002C49.5131 38.8937 49.593 39.3163 49.5869 39.7422C49.5934 40.1681 49.5136 40.5908 49.3523 40.9844C49.191 41.3779 48.9516 41.734 48.6489 42.0306C48.3564 42.3384 48.0041 42.5819 47.6142 42.746C47.2243 42.91 46.805 42.9911 46.3826 42.9842C45.9613 42.9906 45.5431 42.9093 45.1543 42.7452C44.7654 42.5812 44.4142 42.3379 44.1227 42.0306C43.8188 41.7349 43.5786 41.379 43.4172 40.9852C43.2558 40.5915 43.1766 40.1683 43.1847 39.7422C43.177 39.3161 43.2563 38.893 43.4177 38.4993C43.5791 38.1056 43.8191 37.7496 44.1227 37.4537C44.4146 37.1473 44.7659 36.905 45.1548 36.742C45.5437 36.579 45.9617 36.4988 46.3826 36.5065ZM44.9599 38.3119C44.7712 38.4976 44.622 38.7202 44.5213 38.9661C44.4206 39.212 44.3707 39.4761 44.3745 39.7422C44.3699 40.0083 44.4196 40.2726 44.5203 40.5186C44.621 40.7647 44.7706 40.9872 44.9599 41.1725C45.145 41.3632 45.3666 41.514 45.6111 41.6156C45.8557 41.7172 46.1182 41.7676 46.3826 41.7637C46.6471 41.768 46.9097 41.7178 47.1543 41.6161C47.3989 41.5145 47.6205 41.3635 47.8053 41.1725C47.9947 40.9872 48.1443 40.7647 48.245 40.5186C48.3457 40.2726 48.3953 40.0083 48.3908 39.7422C48.3946 39.4761 48.3446 39.212 48.244 38.9661C48.1433 38.7202 47.9941 38.4976 47.8053 38.3119C47.6217 38.1187 47.4005 37.966 47.1557 37.8632C46.9109 37.7604 46.6477 37.7097 46.3826 37.7143C46.1176 37.7101 45.8545 37.7609 45.6098 37.8637C45.365 37.9665 45.1438 38.1191 44.9599 38.3119Z" fill="#333333"/>
<path d="M52.1049 33.7285V42.8316H50.934V33.7285H52.1049Z" fill="#333333"/>
<path d="M56.2472 42.927C55.9224 42.9419 55.5981 42.8899 55.294 42.774C54.9898 42.6582 54.7122 42.4809 54.4782 42.2531C54.2588 42.0297 54.0853 41.7648 53.9676 41.4736C53.8498 41.1823 53.7902 40.8704 53.792 40.5558V37.0023H54.9629V40.5113C54.9619 40.6739 54.9938 40.8351 55.0566 40.9848C55.1193 41.1346 55.2117 41.2698 55.3281 41.3822C55.4485 41.5012 55.5913 41.5946 55.7481 41.6569C55.9049 41.7191 56.0724 41.7489 56.2409 41.7446C56.4023 41.7462 56.5625 41.7149 56.7117 41.6527C56.861 41.5904 56.9963 41.4985 57.1096 41.3822C57.2289 41.2718 57.3237 41.1371 57.3877 40.987C57.4517 40.8369 57.4835 40.6748 57.481 40.5113V37.0023H58.6771V40.5558C58.6801 40.87 58.6216 41.1817 58.5049 41.473C58.3883 41.7643 58.2157 42.0294 57.9972 42.2531C57.7678 42.482 57.4937 42.66 57.1924 42.7761C56.8911 42.8921 56.5692 42.9435 56.2472 42.927Z" fill="#333333"/>
<path d="M61.0378 36.9832V34.7901H62.2024V36.9832H63.2411V38.1593H62.2024V42.8316H61.0378V38.1593H59.9928V36.9832H61.0378Z" fill="#333333"/>
<path d="M65.8535 34.8156C65.9318 34.8906 65.9936 34.9814 66.0349 35.0822C66.0761 35.183 66.0958 35.2914 66.0927 35.4004C66.0962 35.5094 66.0767 35.618 66.0354 35.7188C65.9942 35.8196 65.9322 35.9104 65.8535 35.9852C65.7778 36.0625 65.6876 36.1237 65.5881 36.1652C65.4887 36.2067 65.382 36.2276 65.2744 36.2268C65.1676 36.2279 65.0618 36.207 64.9633 36.1655C64.8648 36.1239 64.7758 36.0626 64.7015 35.9852C64.622 35.9108 64.559 35.8201 64.5167 35.7193C64.4744 35.6185 64.4537 35.5098 64.456 35.4004C64.4541 35.291 64.475 35.1824 64.5173 35.0817C64.5596 34.9809 64.6223 34.8903 64.7015 34.8156C64.7763 34.7393 64.8656 34.6792 64.9641 34.6387C65.0625 34.5983 65.1681 34.5784 65.2744 34.5803C65.3816 34.5783 65.4881 34.5981 65.5876 34.6385C65.6871 34.6789 65.7775 34.7391 65.8535 34.8156ZM65.8535 36.9833V42.8316H64.6889V36.9833H65.8535Z" fill="#333333"/>
<path d="M70.5056 36.5065C70.9276 36.4983 71.3467 36.5783 71.7366 36.7413C72.1266 36.9042 72.4791 37.1468 72.7719 37.4537C73.0743 37.7505 73.3135 38.1066 73.4748 38.5002C73.636 38.8937 73.7161 39.3163 73.7099 39.7422C73.7164 40.1681 73.6366 40.5908 73.4753 40.9844C73.314 41.3779 73.0746 41.734 72.7719 42.0306C72.4794 42.3384 72.1271 42.5819 71.7372 42.746C71.3473 42.91 70.928 42.9911 70.5056 42.9842C70.0843 42.9906 69.6661 42.9093 69.2772 42.7452C68.8884 42.5812 68.5372 42.3379 68.2457 42.0306C67.9418 41.7349 67.7016 41.379 67.5402 40.9852C67.3788 40.5915 67.2996 40.1683 67.3077 39.7422C67.3 39.3161 67.3793 38.893 67.5407 38.4993C67.7021 38.1056 67.9421 37.7496 68.2457 37.4537C68.5376 37.1473 68.8889 36.905 69.2778 36.742C69.6667 36.579 70.0847 36.4988 70.5056 36.5065ZM69.0829 38.3119C68.8942 38.4976 68.745 38.7202 68.6443 38.9661C68.5437 39.212 68.4937 39.4761 68.4975 39.7422C68.493 40.0083 68.5426 40.2726 68.6433 40.5186C68.744 40.7647 68.8936 40.9872 69.0829 41.1725C69.268 41.3632 69.4896 41.514 69.7341 41.6156C69.9787 41.7172 70.2412 41.7676 70.5056 41.7637C70.7701 41.768 71.0327 41.7178 71.2773 41.6161C71.5219 41.5145 71.7434 41.3635 71.9283 41.1725C72.1191 40.989 72.2707 40.768 72.3735 40.5231C72.4764 40.2782 72.5284 40.0145 72.5264 39.7485C72.5302 39.4824 72.4802 39.2184 72.3795 38.9725C72.2789 38.7265 72.1296 38.5039 71.9409 38.3182C71.7573 38.1251 71.5361 37.9724 71.2913 37.8695C71.0465 37.7667 70.7833 37.716 70.5182 37.7207C70.2515 37.7138 69.9863 37.7628 69.7393 37.8646C69.4923 37.9663 69.2688 38.1186 69.0829 38.3119Z" fill="#333333"/>
<path d="M76.2279 38.5471V42.8316H75.0444V36.9833H76.2153V37.6635C76.3136 37.3538 76.5126 37.0868 76.7799 36.9057C77.0473 36.7245 77.3674 36.6399 77.6884 36.6654C77.9717 36.6539 78.2538 36.7088 78.5126 36.8257C78.7714 36.9426 79 37.1184 79.1803 37.3393C79.5622 37.8174 79.765 38.4161 79.7532 39.0302V42.8443H78.5886V39.0874C78.5899 38.9242 78.5576 38.7624 78.4937 38.6125C78.4297 38.4625 78.3356 38.3277 78.2172 38.2165C78.1034 38.1014 77.9678 38.0106 77.8186 37.9495C77.6694 37.8883 77.5095 37.8581 77.3485 37.8605C77.188 37.858 77.0285 37.8875 76.8794 37.9475C76.7303 38.0076 76.5945 38.0968 76.4797 38.2101C76.3813 38.3106 76.2966 38.4239 76.2279 38.5471Z" fill="#333333"/>
<path d="M82.6364 41.5729C82.7691 41.7043 82.9479 41.7774 83.1337 41.7764C83.2248 41.7767 83.315 41.7589 83.3993 41.724C83.4836 41.6891 83.5602 41.6378 83.6247 41.5729C83.6928 41.5077 83.7465 41.4287 83.7823 41.341C83.8181 41.2534 83.8352 41.1591 83.8325 41.0644C83.8334 40.9733 83.816 40.8829 83.7814 40.7988C83.7468 40.7147 83.6956 40.6385 83.631 40.5749C83.4354 40.409 83.2246 40.2621 83.0015 40.1363C82.6772 39.9649 82.3766 39.7512 82.1076 39.5006C81.9591 39.3559 81.8417 39.1819 81.7627 38.9894C81.6836 38.797 81.6446 38.5901 81.6481 38.3818C81.6445 38.1725 81.6834 37.9646 81.7624 37.7711C81.8415 37.5776 81.959 37.4025 82.1076 37.2566C82.2518 37.1056 82.425 36.986 82.6166 36.9051C82.8082 36.8242 83.0142 36.7838 83.2219 36.7862C83.4231 36.7795 83.6236 36.8157 83.8101 36.8923C83.9967 36.969 84.1652 37.0844 84.3046 37.2312C84.5019 37.4199 84.6398 37.6631 84.7012 37.9304L83.5681 38.261C83.5545 38.1933 83.5289 38.1287 83.4925 38.0703C83.4569 38.0353 83.4144 38.0082 83.3678 37.9907C83.3212 37.9732 83.2715 37.9657 83.2219 37.9686C83.1679 37.9674 83.1144 37.9775 83.0645 37.9983C83.0147 38.0191 82.9697 38.0501 82.9323 38.0894C82.8934 38.1271 82.8627 38.1726 82.8421 38.2229C82.8215 38.2732 82.8115 38.3273 82.8127 38.3818C82.8109 38.4905 82.8516 38.5956 82.926 38.6742C83.0784 38.8012 83.2405 38.916 83.4107 39.0175C83.7776 39.2071 84.1183 39.4443 84.4242 39.7231C84.5992 39.8947 84.7379 40.1004 84.832 40.3276C84.9262 40.5549 84.9737 40.799 84.9719 41.0453C84.976 41.2942 84.9302 41.5414 84.8371 41.7719C84.7441 42.0024 84.6058 42.2115 84.4305 42.3866C84.2593 42.5652 84.0537 42.7064 83.8263 42.8015C83.5989 42.8966 83.3546 42.9436 83.1085 42.9397C82.8628 42.9439 82.6189 42.8963 82.3923 42.7999C82.1658 42.7036 81.9616 42.5607 81.7929 42.3803C81.5372 42.1217 81.364 41.7918 81.2955 41.4331L82.4538 41.1852C82.477 41.3293 82.5403 41.4638 82.6364 41.5729Z" fill="#333333"/>
<defs>
<linearGradient id="paint0_linear_1177_216" x1="16.7388" y1="11.2632" x2="33.4713" y2="11.2632" gradientUnits="userSpaceOnUse">
<stop stop-color="#FF3A01"/>
<stop offset="1" stop-color="#E12A00"/>
</linearGradient>
<linearGradient id="paint1_linear_1177_216" x1="0" y1="37.9367" x2="16.7388" y2="37.9367" gradientUnits="userSpaceOnUse">
<stop stop-color="#FFB300"/>
<stop offset="1" stop-color="#F69700"/>
</linearGradient>
</defs>
</svg>
