<svg width="1280" height="245" viewBox="0 0 1280 245" fill="none" xmlns="http://www.w3.org/2000/svg">
<path d="M163.485 57.7266L163.076 58.0142L163.485 57.7266ZM396.419 122.374L396.652 122.816L396.419 122.374ZM1149.16 109.566L1148.72 109.342L1149.16 109.566ZM1364.93 154.697L1365.32 154.382L1364.93 154.697ZM1442.06 215.565L1440.84 219.46L1444.73 220.683L1445.96 216.788L1442.06 215.565ZM-85.8969 10.6455C-83.9925 10.2443 -82.0186 9.84698 -79.9798 9.45563L-80.1684 8.47356C-82.2128 8.866 -84.1925 9.2645 -86.1031 9.66696L-85.8969 10.6455ZM-68.1038 7.37018C-64.2728 6.75643 -60.2804 6.1709 -56.1487 5.62379L-56.28 4.63245C-60.4205 5.18074 -64.422 5.76757 -68.262 6.38277L-68.1038 7.37018ZM-44.1166 4.18798C-40.2012 3.77115 -36.1914 3.39281 -32.1031 3.06026L-32.1842 2.06355C-36.2809 2.39679 -40.299 2.77591 -44.2224 3.19359L-44.1166 4.18798ZM-20.0294 2.23012C-16.056 2.00715 -12.0271 1.83091 -7.95587 1.70749L-7.98618 0.707954C-12.0662 0.83164 -16.1037 1.00825 -20.0854 1.23169L-20.0294 2.23012ZM4.1291 1.5025C8.13727 1.48893 12.1727 1.53041 16.2233 1.63243L16.2485 0.632751C12.188 0.53048 8.14304 0.488906 4.12571 0.502503L4.1291 1.5025ZM28.2968 2.11937C32.3156 2.34397 36.3375 2.63295 40.3507 2.99158L40.4397 1.99555C36.4149 1.63588 32.382 1.34612 28.3526 1.12092L28.2968 2.11937ZM52.3627 4.283C56.3729 4.78964 60.3625 5.3722 64.3196 6.03605L64.485 5.04984C60.514 4.38364 56.511 3.79914 52.488 3.29088L52.3627 4.283ZM76.1853 8.2992C80.1454 9.1499 84.0589 10.0909 87.9132 11.128L88.173 10.1623C84.3013 9.12059 80.3712 8.17559 76.3954 7.32151L76.1853 8.2992ZM99.4865 14.5994C103.34 15.8819 107.116 17.2735 110.8 18.7805L111.179 17.8549C107.472 16.339 103.675 14.9397 99.8023 13.6506L99.4865 14.5994ZM121.783 23.7627C125.412 25.585 128.926 27.5394 132.31 29.6331L132.837 28.7827C129.426 26.6726 125.885 24.7038 122.231 22.8691L121.783 23.7627ZM142.223 36.4674C145.425 38.9279 148.47 41.5443 151.342 44.3244L152.038 43.6058C149.137 40.7981 146.063 38.157 142.833 35.6746L142.223 36.4674ZM159.454 53.2022C160.71 54.7627 161.918 56.3664 163.076 58.0142L163.894 57.4391C162.723 55.7735 161.502 54.1525 160.233 52.5753L159.454 53.2022ZM163.076 58.0142C164.262 59.7018 165.456 61.3663 166.657 63.0075L167.464 62.4168C166.266 60.7809 165.076 59.1216 163.894 57.4391L163.076 58.0142ZM174.073 72.7229C176.652 75.9613 179.263 79.0968 181.906 82.1289L182.66 81.4718C180.027 78.4512 177.425 75.327 174.855 72.0999L174.073 72.7229ZM190.174 91.1688C193.039 94.1512 195.938 97.0168 198.871 99.7648L199.555 99.0351C196.635 96.2994 193.748 93.4461 190.895 90.4761L190.174 91.1688ZM208.044 107.885C211.22 110.536 214.433 113.054 217.681 115.439L218.273 114.633C215.042 112.261 211.845 109.756 208.685 107.117L208.044 107.885ZM227.787 122.354C231.272 124.568 234.796 126.634 238.355 128.55L238.829 127.67C235.291 125.765 231.789 123.712 228.323 121.51L227.787 122.354ZM249.356 133.942C253.115 135.608 256.912 137.112 260.746 138.453L261.076 137.509C257.268 136.177 253.496 134.683 249.761 133.028L249.356 133.942ZM272.472 142.016C276.431 143.04 280.426 143.895 284.455 144.58L284.623 143.594C280.622 142.914 276.654 142.064 272.723 141.047L272.472 142.016ZM296.611 146.121C300.66 146.461 304.742 146.634 308.853 146.637L308.854 145.637C304.77 145.634 300.716 145.462 296.694 145.124L296.611 146.121ZM321.098 146.155C325.125 145.836 329.18 145.358 333.26 144.721L333.106 143.733C329.05 144.367 325.021 144.841 321.019 145.158L321.098 146.155ZM345.291 142.394C349.213 141.491 353.158 140.443 357.123 139.248L356.834 138.291C352.89 139.479 348.967 140.521 345.066 141.419L345.291 142.394ZM368.73 135.356C372.505 133.962 376.298 132.438 380.107 130.782L379.708 129.865C375.916 131.513 372.14 133.031 368.383 134.418L368.73 135.356ZM391.182 125.62C393.002 124.715 394.825 123.78 396.652 122.816L396.185 121.931C394.366 122.892 392.549 123.823 390.736 124.725L391.182 125.62ZM396.652 122.816C398.344 121.923 400.035 121.034 401.725 120.15L401.261 119.264C399.57 120.148 397.878 121.038 396.185 121.931L396.652 122.816ZM411.889 114.882C415.298 113.132 418.7 111.404 422.093 109.698L421.644 108.805C418.249 110.511 414.844 112.241 411.433 113.992L411.889 114.882ZM432.352 104.599C435.8 102.905 439.236 101.237 442.655 99.5989L442.223 98.6971C438.801 100.337 435.362 102.006 431.911 103.701L432.352 104.599ZM453.004 94.709C456.491 93.0847 459.957 91.4941 463.401 89.9398L462.99 89.0283C459.542 90.5843 456.072 92.1766 452.581 93.8026L453.004 94.709ZM473.877 85.2931C477.417 83.7519 480.927 82.2532 484.405 80.8L484.019 79.8773C480.537 81.3325 477.022 82.8332 473.478 84.3763L473.877 85.2931ZM494.989 76.4791C498.594 75.0435 502.158 73.6623 505.677 72.3391L505.325 71.4031C501.8 72.7287 498.23 74.1122 494.619 75.5501L494.989 76.4791ZM516.414 68.435C520.094 67.1446 523.717 65.9256 527.277 64.7824L526.971 63.8303C523.402 64.9763 519.771 66.1982 516.083 67.4914L516.414 68.435ZM538.197 61.4599C541.973 60.3787 545.664 59.3956 549.265 58.5163L549.028 57.5449C545.413 58.4275 541.709 59.4141 537.922 60.4985L538.197 61.4599ZM560.435 56.0711C564.327 55.3251 568.09 54.7237 571.711 54.2757L571.589 53.2832C567.943 53.7342 564.158 54.3393 560.247 55.089L560.435 56.0711ZM583.08 53.3674C587.099 53.2432 590.89 53.3607 594.433 53.7347L594.538 52.7403C590.943 52.3608 587.106 52.2425 583.049 52.3678L583.08 53.3674ZM605.536 56.0284C607.376 56.6364 609.112 57.3501 610.738 58.1728L611.189 57.2805C609.515 56.4336 607.734 55.7013 605.85 55.0788L605.536 56.0284ZM610.738 58.1728C612.297 58.9616 614.019 59.8134 615.897 60.7283L616.335 59.8294C614.46 58.916 612.743 58.0665 611.189 57.2805L610.738 58.1728ZM626.39 65.7552C629.63 67.2911 633.14 68.9464 636.901 70.7212L637.327 69.8169C633.567 68.0418 630.058 66.387 626.818 64.8516L626.39 65.7552ZM647.432 75.7016C650.779 77.2892 654.276 78.9538 657.913 80.6956L658.345 79.7937C654.706 78.0512 651.208 76.3861 647.86 74.7981L647.432 75.7016ZM668.412 85.7522C671.787 87.3882 675.262 89.0826 678.83 90.8356L679.271 89.938C675.701 88.1842 672.225 86.489 668.848 84.8523L668.412 85.7522ZM689.248 95.9921C692.644 97.6855 696.112 99.4273 699.647 101.218L700.099 100.326C696.562 98.5343 693.092 96.7915 689.694 95.0972L689.248 95.9921ZM710.015 106.511C713.401 108.254 716.84 110.038 720.33 111.865L720.793 110.979C717.302 109.151 713.86 107.366 710.473 105.622L710.015 106.511ZM730.601 117.286C733.973 119.081 737.386 120.913 740.837 122.782L741.313 121.903C737.86 120.032 734.445 118.199 731.071 116.403L730.601 117.286ZM751.035 128.354C754.39 130.204 757.777 132.087 761.193 134.004L761.683 133.132C758.264 131.214 754.875 129.329 751.518 127.479L751.035 128.354ZM771.309 139.733C774.643 141.638 778.001 143.575 781.381 145.543L781.884 144.678C778.502 142.709 775.141 140.771 771.806 138.865L771.309 139.733ZM791.4 151.43C794.703 153.389 798.025 155.378 801.364 157.396L801.881 156.54C798.54 154.52 795.216 152.53 791.911 150.57L791.4 151.43ZM811.278 163.446C814.552 165.464 817.841 167.51 821.141 169.583L821.673 168.737C818.37 166.661 815.079 164.614 811.802 162.595L811.278 163.446ZM830.952 175.809C834.195 177.888 837.448 179.994 840.708 182.126L841.256 181.289C837.993 179.155 834.737 177.048 831.492 174.968L830.952 175.809ZM850.408 188.534C853.617 190.676 856.831 192.843 860.049 195.036L860.612 194.21C857.392 192.015 854.175 189.846 850.964 187.702L850.408 188.534ZM869.621 201.628C872.785 203.83 875.951 206.057 879.118 208.309L879.698 207.494C876.528 205.24 873.359 203.011 870.192 200.807L869.621 201.628ZM888.551 215.09C890.119 216.23 891.686 217.375 893.253 218.527L893.846 217.721C892.277 216.569 890.708 215.422 889.139 214.281L888.551 215.09ZM893.253 218.527C894.923 219.754 896.594 220.93 898.266 222.056L898.825 221.226C897.164 220.109 895.504 218.941 893.846 217.721L893.253 218.527ZM908.519 228.334C912.117 230.322 915.716 232.089 919.312 233.646L919.71 232.728C916.143 231.184 912.573 229.432 909.002 227.459L908.519 228.334ZM930.594 237.854C934.493 239.081 938.384 240.072 942.265 240.844L942.46 239.863C938.615 239.099 934.758 238.116 930.894 236.9L930.594 237.854ZM954.194 242.542C958.227 242.892 962.242 243.018 966.235 242.935L966.214 241.935C962.256 242.017 958.277 241.893 954.28 241.546L954.194 242.542ZM978.25 242.067C982.237 241.576 986.195 240.89 990.121 240.026L989.906 239.049C986.01 239.907 982.082 240.587 978.128 241.074L978.25 242.067ZM1001.76 236.929C1005.58 235.738 1009.36 234.39 1013.11 232.901L1012.74 231.972C1009.02 233.452 1005.26 234.792 1001.46 235.974L1001.76 236.929ZM1024.13 228.063C1027.74 226.332 1031.31 224.481 1034.82 222.525L1034.33 221.651C1030.84 223.598 1027.29 225.44 1023.7 227.161L1024.13 228.063ZM1045.17 216.384C1048.56 214.246 1051.9 212.019 1055.19 209.722L1054.61 208.903C1051.34 211.191 1048.02 213.409 1044.64 215.538L1045.17 216.384ZM1064.88 202.608C1068.08 200.155 1071.21 197.645 1074.27 195.096L1073.63 194.327C1070.58 196.869 1067.46 199.37 1064.27 201.814L1064.88 202.608ZM1083.38 187.23C1086.4 184.522 1089.34 181.789 1092.2 179.05L1091.51 178.328C1088.66 181.06 1085.72 183.785 1082.71 186.485L1083.38 187.23ZM1100.76 170.587C1103.63 167.66 1106.4 164.748 1109.06 161.872L1108.32 161.194C1105.67 164.062 1102.91 166.968 1100.05 169.887L1100.76 170.587ZM1117.08 152.939C1119.82 149.799 1122.42 146.736 1124.85 143.783L1124.08 143.147C1121.65 146.092 1119.06 149.148 1116.33 152.282L1117.08 152.939ZM1132.4 134.364C1135.11 130.884 1137.53 127.655 1139.64 124.75L1138.83 124.161C1136.72 127.058 1134.31 130.279 1131.61 133.75L1132.4 134.364ZM1146.51 114.875C1148.11 112.434 1149.16 110.681 1149.61 109.791L1148.72 109.342C1148.3 110.176 1147.27 111.886 1145.67 114.326L1146.51 114.875ZM1149.61 109.791C1150.12 108.78 1151.19 107.105 1152.82 104.981L1152.03 104.372C1150.38 106.518 1149.27 108.25 1148.72 109.342L1149.61 109.791ZM1160.7 96.1534C1163.24 93.6478 1166.19 91.0059 1169.54 88.3814L1168.92 87.5945C1165.54 90.2438 1162.56 92.9108 1160 95.4411L1160.7 96.1534ZM1179.22 81.6305C1182.45 79.6476 1185.92 77.7622 1189.63 76.0528L1189.21 75.1447C1185.46 76.8718 1181.96 78.7763 1178.7 80.7787L1179.22 81.6305ZM1200.63 71.7889C1204.27 70.6351 1208.09 69.6739 1212.09 68.9589L1211.92 67.9745C1207.87 68.6974 1204.01 69.6692 1200.32 70.8356L1200.63 71.7889ZM1223.79 67.641C1227.59 67.4589 1231.52 67.506 1235.59 67.8188L1235.66 66.8217C1231.56 66.5057 1227.58 66.458 1223.74 66.6421L1223.79 67.641ZM1247.26 69.4109C1250.99 70.1393 1254.82 71.0939 1258.74 72.2986L1259.04 71.3426C1255.08 70.1278 1251.22 69.1647 1247.45 68.4294L1247.26 69.4109ZM1269.84 76.293C1273.35 77.7359 1276.91 79.378 1280.55 81.2345L1281 80.3439C1277.35 78.4755 1273.75 76.8219 1270.23 75.3685L1269.84 76.293ZM1290.87 86.9871C1294.13 88.9566 1297.43 91.0983 1300.79 93.422L1301.36 92.5998C1297.99 90.2647 1294.66 88.1117 1291.38 86.1312L1290.87 86.9871ZM1310.34 100.436C1313.38 102.791 1316.45 105.294 1319.56 107.952L1320.21 107.192C1317.09 104.524 1314.01 102.011 1310.96 99.6457L1310.34 100.436ZM1328.36 115.816C1331.16 118.417 1333.98 121.144 1336.83 124.001L1337.54 123.294C1334.68 120.429 1331.85 117.694 1329.04 115.084L1328.36 115.816ZM1345.05 132.53C1347.7 135.375 1350.38 138.332 1353.08 141.405L1353.83 140.745C1351.13 137.665 1348.44 134.7 1345.78 131.848L1345.05 132.53ZM1360.7 150.321C1361.97 151.859 1363.26 153.422 1364.55 155.012L1365.32 154.382C1364.03 152.789 1362.75 151.222 1361.46 149.682L1360.7 150.321ZM1364.55 155.012C1365.77 156.52 1366.98 158.006 1368.17 159.47L1368.94 158.839C1367.75 157.376 1366.55 155.89 1365.32 154.382L1364.55 155.012ZM1375.24 168.117C1377.67 171.085 1380.04 173.952 1382.34 176.721L1383.11 176.082C1380.81 173.315 1378.45 170.449 1376.01 167.482L1375.24 168.117ZM1389.57 185.372C1392.08 188.359 1394.5 191.215 1396.83 193.946L1397.59 193.296C1395.26 190.568 1392.84 187.713 1390.33 184.728L1389.57 185.372ZM1404.15 202.434C1406.75 205.417 1409.22 208.222 1411.57 210.856L1412.31 210.191C1409.97 207.56 1407.5 204.758 1404.9 201.777L1404.15 202.434ZM1419.16 219.231C1421.91 222.208 1424.45 224.903 1426.81 227.334L1427.53 226.638C1425.18 224.214 1422.64 221.525 1419.89 218.553L1419.16 219.231ZM1434.8 235.268C1438.18 238.465 1441.02 240.901 1443.36 242.67L1443.96 241.872C1441.66 240.133 1438.86 237.724 1435.49 234.541L1434.8 235.268ZM1453.39 244.368C1453.63 243.194 1453.47 241.593 1453.04 239.73C1452.61 237.851 1451.89 235.645 1450.96 233.232L1450.02 233.592C1450.94 235.981 1451.65 238.138 1452.07 239.954C1452.49 241.786 1452.6 243.211 1452.41 244.165L1453.39 244.368ZM1446.38 222.919C1445.57 221.26 1444.72 219.576 1443.84 217.893L1442.95 218.356C1443.83 220.032 1444.68 221.708 1445.48 223.358L1446.38 222.919ZM163.485 57.7266L162.667 58.3017L163.485 57.7266ZM396.419 122.374L396.886 123.258L396.419 122.374ZM1149.16 109.566L1148.27 109.117L1149.16 109.566ZM1364.93 154.697L1365.71 154.068L1364.93 154.697ZM1440.72 213.006L1438.28 220.797L1446.07 223.242L1448.51 215.452L1440.72 213.006ZM-85.7939 11.1347C-83.8924 10.7342 -81.9215 10.3375 -79.8856 9.94666L-80.2626 7.98252C-82.3099 8.37552 -84.2926 8.7746 -86.2061 9.1777L-85.7939 11.1347ZM-68.0247 7.86388C-64.1983 7.25086 -60.2103 6.66599 -56.0831 6.11947L-56.3456 4.13677C-60.4906 4.68565 -64.4966 5.27315 -68.3411 5.88907L-68.0247 7.86388ZM-44.0636 4.68517C-40.1524 4.26877 -36.1467 3.89082 -32.0626 3.55861L-32.2247 1.56519C-36.3256 1.89877 -40.3479 2.27828 -44.2754 2.6964L-44.0636 4.68517ZM-20.0014 2.72934C-16.0322 2.50659 -12.0075 2.33055 -7.94072 2.20727L-8.00132 0.208183C-12.0858 0.332004 -16.1276 0.508801 -20.1134 0.732479L-20.0014 2.72934ZM4.13079 2.00249C8.13438 1.98894 12.165 2.03038 16.2107 2.13228L16.2611 0.13291C12.1956 0.0305138 8.14593 -0.011107 4.12402 0.00250614L4.13079 2.00249ZM28.2689 2.61859C32.2824 2.8429 36.2988 3.13148 40.3062 3.4896L40.4842 1.49754C36.4537 1.13735 32.4152 0.847194 28.3805 0.621703L28.2689 2.61859ZM52.3 4.77905C56.3039 5.28489 60.2868 5.86648 64.2368 6.52916L64.5677 4.55673C60.5897 3.88935 56.58 3.30388 52.5507 2.79483L52.3 4.77905ZM76.0803 8.78805C80.0325 9.63706 83.9377 10.5761 87.7833 11.6108L88.303 9.6795C84.4225 8.63542 80.484 7.68843 76.5004 6.83266L76.0803 8.78805ZM99.3286 15.0738C103.172 16.353 106.937 17.7408 110.611 19.2433L111.368 17.3922C107.651 15.8717 103.843 14.4686 99.9602 13.1762L99.3286 15.0738ZM121.558 24.2096C125.175 26.0256 128.677 27.9729 132.047 30.0583L133.1 28.3575C129.676 26.2391 126.122 24.2632 122.456 22.4222L121.558 24.2096ZM141.919 36.8639C145.106 39.3133 148.136 41.9174 150.995 44.6836L152.385 43.2466C149.47 40.425 146.382 37.7716 143.137 35.2781L141.919 36.8639ZM159.064 53.5156C160.313 55.0678 161.515 56.6629 162.667 58.3017L164.303 57.1516C163.126 55.477 161.898 53.8474 160.623 52.2619L159.064 53.5156ZM162.667 58.3017C163.855 59.9919 165.05 61.659 166.254 63.3028L167.867 62.1215C166.672 60.4882 165.484 58.8315 164.303 57.1516L162.667 58.3017ZM173.681 73.0344C176.265 76.2784 178.881 79.4196 181.529 82.4574L183.037 81.1433C180.409 78.1284 177.812 75.0099 175.246 71.7884L173.681 73.0344ZM189.813 91.5152C192.684 94.5037 195.589 97.3755 198.529 100.13L199.896 98.6702C196.983 95.9407 194.103 93.0936 191.255 90.1297L189.813 91.5152ZM207.724 108.269C210.908 110.927 214.128 113.451 217.385 115.842L218.569 114.23C215.346 111.864 212.158 109.365 209.005 106.734L207.724 108.269ZM227.519 122.776C231.014 124.997 234.548 127.068 238.118 128.99L239.066 127.229C235.539 125.331 232.047 123.283 228.592 121.088L227.519 122.776ZM249.153 134.4C252.925 136.07 256.735 137.579 260.581 138.924L261.241 137.037C257.446 135.709 253.687 134.22 249.964 132.571L249.153 134.4ZM272.347 142.5C276.32 143.527 280.328 144.385 284.371 145.073L284.706 143.101C280.719 142.423 276.766 141.577 272.848 140.563L272.347 142.5ZM296.569 146.619C300.632 146.96 304.727 147.134 308.853 147.137L308.855 145.137C304.784 145.134 300.744 144.963 296.736 144.626L296.569 146.619ZM321.137 146.654C325.178 146.334 329.245 145.854 333.337 145.215L333.029 143.239C328.985 143.871 324.968 144.344 320.979 144.66L321.137 146.654ZM345.403 142.881C349.337 141.976 353.292 140.924 357.267 139.727L356.69 137.812C352.756 138.997 348.844 140.037 344.954 140.932L345.403 142.881ZM368.903 135.825C372.687 134.428 376.488 132.9 380.306 131.24L379.509 129.406C375.725 131.051 371.958 132.565 368.21 133.949L368.903 135.825ZM391.404 126.068C393.228 125.161 395.055 124.224 396.886 123.258L395.952 121.489C394.136 122.448 392.323 123.377 390.514 124.277L391.404 126.068ZM396.886 123.258C398.577 122.365 400.267 121.477 401.957 120.593L401.03 118.821C399.338 119.706 397.645 120.595 395.952 121.489L396.886 123.258ZM412.117 115.327C415.525 113.578 418.926 111.85 422.318 110.145L421.419 108.358C418.023 110.065 414.617 111.796 411.204 113.548L412.117 115.327ZM432.573 105.048C436.019 103.354 439.453 101.687 442.871 100.05L442.007 98.2462C438.583 99.8866 435.143 101.556 431.691 103.253L432.573 105.048ZM453.215 95.1623C456.7 93.5388 460.165 91.949 463.607 90.3955L462.784 88.5726C459.335 90.1295 455.862 91.7226 452.37 93.3493L453.215 95.1623ZM474.077 85.7515C477.614 84.2113 481.122 82.7135 484.597 81.2613L483.826 79.416C480.341 80.8722 476.824 82.3738 473.279 83.9179L474.077 85.7515ZM495.174 76.9436C498.776 75.5091 502.337 74.1291 505.853 72.8071L505.149 70.9351C501.621 72.2618 498.048 73.6465 494.434 75.0855L495.174 76.9436ZM516.58 68.9069C520.256 67.6178 523.874 66.4002 527.43 65.2585L526.818 63.3543C523.245 64.5017 519.61 65.725 515.918 67.0195L516.58 68.9069ZM538.335 61.9406C542.104 60.8611 545.79 59.8796 549.384 59.002L548.909 57.0591C545.288 57.9434 541.577 58.9317 537.784 60.0179L538.335 61.9406ZM560.529 56.5622C564.412 55.818 568.163 55.2184 571.773 54.7719L571.527 52.787C567.869 53.2395 564.074 53.8464 560.153 54.5979L560.529 56.5622ZM583.095 53.8671C587.095 53.7436 590.863 53.8607 594.381 54.232L594.591 52.243C590.97 51.8608 587.11 51.7422 583.033 51.8681L583.095 53.8671ZM605.379 56.5031C607.198 57.104 608.91 57.8084 610.512 58.619L611.415 56.8343C609.717 55.9754 607.912 55.2337 606.007 54.6041L605.379 56.5031ZM610.512 58.619C612.074 59.4092 613.799 60.2622 615.678 61.1778L616.554 59.3799C614.681 58.4672 612.966 57.6189 611.415 56.8343L610.512 58.619ZM626.176 66.2071C629.417 67.7431 632.927 69.3986 636.687 71.1734L637.541 69.3647C633.78 67.5895 630.271 65.935 627.033 64.3998L626.176 66.2071ZM647.217 76.1533C650.564 77.7408 654.061 79.4051 657.697 81.1466L658.561 79.3427C654.922 77.6 651.423 75.9346 648.074 74.3463L647.217 76.1533ZM668.193 86.2021C671.568 87.8378 675.042 89.5318 678.609 91.2843L679.491 89.4893C675.921 87.735 672.444 86.0395 669.066 84.4023L668.193 86.2021ZM689.025 96.4396C692.42 98.1325 695.887 99.8739 699.421 101.664L700.325 99.8797C696.787 98.0877 693.316 96.3445 689.918 94.6497L689.025 96.4396ZM709.786 106.956C713.171 108.698 716.609 110.482 720.098 112.308L721.025 110.536C717.532 108.708 714.09 106.922 710.701 105.178L709.786 106.956ZM730.366 117.727C733.737 119.522 737.149 121.353 740.599 123.222L741.551 121.463C738.097 119.592 734.68 117.758 731.306 115.962L730.366 117.727ZM750.794 128.792C754.148 130.641 757.534 132.524 760.949 134.44L761.928 132.696C758.508 130.777 755.118 128.892 751.76 127.041L750.794 128.792ZM771.061 140.167C774.393 142.072 777.75 144.007 781.13 145.975L782.136 144.246C778.752 142.276 775.39 140.338 772.054 138.431L771.061 140.167ZM791.145 151.86C794.447 153.818 797.768 155.806 801.105 157.823L802.14 156.112C798.798 154.092 795.472 152.101 792.166 150.14L791.145 151.86ZM811.015 163.872C814.289 165.889 817.576 167.934 820.875 170.007L821.939 168.313C818.635 166.237 815.343 164.189 812.065 162.169L811.015 163.872ZM830.682 176.23C833.924 178.308 837.176 180.413 840.435 182.544L841.529 180.87C838.265 178.736 835.008 176.628 831.761 174.547L830.682 176.23ZM850.131 188.95C853.338 191.091 856.551 193.257 859.768 195.449L860.894 193.796C857.672 191.601 854.454 189.431 851.241 187.286L850.131 188.95ZM869.335 202.038C872.498 204.239 875.663 206.466 878.829 208.717L879.988 207.087C876.816 204.832 873.646 202.602 870.478 200.397L869.335 202.038ZM888.257 215.495C889.824 216.634 891.391 217.779 892.957 218.93L894.142 217.319C892.572 216.165 891.003 215.018 889.433 213.877L888.257 215.495ZM892.957 218.93C894.633 220.161 896.309 221.341 897.987 222.471L899.104 220.812C897.449 219.698 895.795 218.534 894.142 217.319L892.957 218.93ZM908.277 228.772C911.889 230.768 915.502 232.541 919.114 234.104L919.908 232.269C916.357 230.732 912.801 228.986 909.244 227.021L908.277 228.772ZM930.444 238.331C934.36 239.563 938.269 240.559 942.167 241.334L942.557 239.373C938.73 238.612 934.891 237.633 931.044 236.423L930.444 238.331ZM954.15 243.04C958.202 243.392 962.235 243.518 966.246 243.435L966.204 241.435C962.263 241.517 958.302 241.393 954.323 241.048L954.15 243.04ZM978.311 242.563C982.314 242.07 986.288 241.381 990.228 240.514L989.798 238.561C985.917 239.415 982.005 240.093 978.067 240.578L978.311 242.563ZM1001.91 237.407C1005.74 236.212 1009.54 234.859 1013.29 233.366L1012.55 231.507C1008.84 232.983 1005.1 234.318 1001.31 235.497L1001.91 237.407ZM1024.35 228.514C1027.97 226.779 1031.54 224.922 1035.06 222.962L1034.09 221.214C1030.6 223.156 1027.06 224.994 1023.48 226.71L1024.35 228.514ZM1045.44 216.807C1048.84 214.664 1052.18 212.433 1055.47 210.132L1054.33 208.493C1051.06 210.777 1047.74 212.99 1044.37 215.115L1045.44 216.807ZM1065.19 203.004C1068.39 200.547 1071.53 198.034 1074.59 195.48L1073.31 193.943C1070.27 196.481 1067.15 198.978 1063.97 201.418L1065.19 203.004ZM1083.71 187.602C1086.74 184.891 1089.69 182.154 1092.55 179.411L1091.17 177.967C1088.32 180.695 1085.39 183.417 1082.38 186.113L1083.71 187.602ZM1101.12 170.937C1103.99 168.007 1106.76 165.091 1109.42 162.212L1107.96 160.854C1105.31 163.72 1102.55 166.621 1099.69 169.537L1101.12 170.937ZM1117.46 153.268C1120.2 150.124 1122.8 147.057 1125.24 144.101L1123.7 142.829C1121.27 145.771 1118.68 148.823 1115.95 151.953L1117.46 153.268ZM1132.8 134.671C1135.51 131.187 1137.93 127.953 1140.04 125.044L1138.43 123.867C1136.32 126.76 1133.91 129.976 1131.22 133.443L1132.8 134.671ZM1146.92 115.149C1148.53 112.707 1149.6 110.934 1150.06 110.015L1148.27 109.117C1147.87 109.923 1146.85 111.612 1145.25 114.052L1146.92 115.149ZM1150.06 110.015C1150.55 109.045 1151.6 107.398 1153.22 105.285L1151.63 104.068C1149.97 106.225 1148.84 107.985 1148.27 109.117L1150.06 110.015ZM1161.05 96.5095C1163.58 94.0162 1166.52 91.387 1169.85 88.7748L1168.61 87.2011C1165.22 89.8628 1162.22 92.5424 1159.64 95.085L1161.05 96.5095ZM1179.49 82.0564C1182.7 80.0832 1186.15 78.2074 1189.83 76.5068L1189 74.6906C1185.23 76.4266 1181.71 78.3407 1178.44 80.3528L1179.49 82.0564ZM1200.78 72.2656C1204.4 71.118 1208.2 70.1621 1212.18 69.451L1211.83 67.4823C1207.76 68.2092 1203.88 69.1862 1200.17 70.3589L1200.78 72.2656ZM1223.81 68.1404C1227.59 67.9593 1231.51 68.0061 1235.55 68.3173L1235.7 66.3232C1231.58 66.0056 1227.58 65.9576 1223.72 66.1427L1223.81 68.1404ZM1247.16 69.9017C1250.88 70.6267 1254.69 71.5769 1258.6 72.7766L1259.18 70.8647C1255.21 69.6448 1251.33 68.6773 1247.54 67.9387L1247.16 69.9017ZM1269.65 76.7553C1273.14 78.1928 1276.7 79.8292 1280.32 81.6797L1281.23 79.8987C1277.56 78.0242 1273.96 76.365 1270.42 74.9062L1269.65 76.7553ZM1290.61 87.4151C1293.86 89.379 1297.16 91.5151 1300.51 93.8331L1301.65 92.1887C1298.26 89.8479 1294.93 87.6893 1291.64 85.7032L1290.61 87.4151ZM1310.04 100.831C1313.07 103.181 1316.13 105.679 1319.23 108.332L1320.53 106.812C1317.41 104.139 1314.32 101.621 1311.26 99.2507L1310.04 100.831ZM1328.02 116.182C1330.81 118.779 1333.63 121.501 1336.47 124.354L1337.89 122.941C1335.03 120.072 1332.19 117.332 1329.38 114.718L1328.02 116.182ZM1344.68 132.871C1347.34 135.712 1350.01 138.666 1352.7 141.735L1354.21 140.416C1351.5 137.331 1348.81 134.363 1346.15 131.507L1344.68 132.871ZM1360.31 150.641C1361.59 152.177 1362.87 153.738 1364.16 155.327L1365.71 154.068C1364.42 152.473 1363.13 150.904 1361.85 149.362L1360.31 150.641ZM1364.16 155.327C1365.38 156.835 1366.59 158.322 1367.78 159.786L1369.33 158.523C1368.14 157.06 1366.93 155.575 1365.71 154.068L1364.16 155.327ZM1374.85 168.434C1377.29 171.403 1379.66 174.271 1381.96 177.04L1383.49 175.763C1381.2 172.996 1378.83 170.131 1376.39 167.165L1374.85 168.434ZM1389.19 185.694C1391.7 188.682 1394.12 191.539 1396.45 194.271L1397.97 192.972C1395.64 190.244 1393.23 187.391 1390.72 184.406L1389.19 185.694ZM1403.77 202.762C1406.37 205.747 1408.84 208.553 1411.19 211.189L1412.69 209.858C1410.34 207.228 1407.87 204.428 1405.28 201.449L1403.77 202.762ZM1418.79 219.57C1421.54 222.55 1424.09 225.248 1426.45 227.682L1427.89 226.29C1425.54 223.869 1423 221.183 1420.26 218.214L1418.79 219.57ZM1434.46 235.631C1437.85 238.836 1440.69 241.285 1443.06 243.069L1444.26 241.473C1441.98 239.748 1439.19 237.353 1435.83 234.178L1434.46 235.631ZM1453.88 244.47C1454.14 243.186 1453.96 241.497 1453.53 239.618C1453.09 237.707 1452.36 235.477 1451.42 233.052L1449.56 233.772C1450.47 236.149 1451.17 238.282 1451.58 240.067C1452 241.882 1452.09 243.219 1451.92 244.063L1453.88 244.47ZM1446.83 222.699C1446.02 221.036 1445.16 219.349 1444.28 217.661L1442.51 218.587C1443.38 220.26 1444.23 221.932 1445.04 223.578L1446.83 222.699Z" fill="black" fill-opacity="0.2"/>
</svg>
