<svg width="106" height="84" viewBox="0 0 106 84" fill="none" xmlns="http://www.w3.org/2000/svg">
<g clip-path="url(#clip0_156_1568)">
<path d="M71.777 33.9668L70.5824 34.2739C70.3572 33.347 70.1321 32.4201 69.9069 31.4933L71.1224 31.0626C71.3475 31.9895 71.5519 33.0399 71.777 33.9668ZM70.0556 28.3432L68.8402 28.7738C68.4708 27.9497 68.1221 27.002 67.6292 26.1571L68.7419 25.5822C69.2348 26.4271 69.707 27.3955 70.0556 28.3432ZM67.3866 23.0683L66.2739 23.6432C65.781 22.7983 65.2673 22.0769 64.6508 21.2112L65.6608 20.492C66.2772 21.3577 66.8937 22.2234 67.3866 23.0683ZM63.8934 18.1628L62.9862 19.0262C62.349 18.284 61.7118 17.5419 61.0538 16.9232L61.961 16.0598C62.5983 16.8019 63.2562 17.4206 63.8934 18.1628ZM59.7609 14.0387L58.9564 15.0465C58.1749 14.4071 57.5169 13.7884 56.7146 13.2725L57.3956 12.244C58.1979 12.7599 58.9794 13.3993 59.7609 14.0387ZM54.8861 10.5519L54.2051 11.5804C53.4029 11.0645 52.5798 10.6721 51.6333 10.2589L52.2115 9.08615C53.1373 9.62283 54.063 10.1595 54.8861 10.5519ZM49.5981 8.01166L49.1434 9.20522C48.7937 9.0194 48.5466 8.97786 48.1761 8.91556C47.5793 8.6882 46.9618 8.58435 46.365 8.35699L46.6962 7.14266C47.293 7.37002 47.9105 7.47387 48.5073 7.70123C48.8778 7.76353 49.2276 7.94935 49.5981 8.01166ZM43.897 6.41794L43.6893 7.65304C43.4423 7.6115 43.1953 7.56996 42.9483 7.52842C42.2072 7.4038 41.5896 7.29995 40.8278 7.29885L40.912 6.04298C41.6531 6.16759 42.4149 6.1687 43.156 6.29332C43.403 6.33486 43.65 6.3764 43.897 6.41794ZM37.9456 7.06816C37.0602 7.04629 36.0306 7.12715 35.1453 7.10527L35.1059 5.82863C36.1355 5.74777 37.0209 5.76965 38.0297 5.81229L37.9456 7.06816ZM32.3034 7.3894C31.3973 7.49103 30.4704 7.71617 29.5435 7.94131L29.2364 6.74665C30.1633 6.5215 31.2137 6.31713 32.1198 6.2155L32.3034 7.3894ZM26.6394 8.59597C25.7125 8.82111 24.7649 9.16977 23.9407 9.53919L23.5101 8.32375C24.4578 7.9751 25.4054 7.62644 26.3323 7.4013L26.6394 8.59597ZM21.324 10.7502C20.4999 11.1196 19.655 11.6125 18.8101 12.1055L18.1117 10.972C18.9566 10.4791 19.8015 9.98615 20.7699 9.51398L21.324 10.7502ZM16.5016 13.7493C15.7802 14.263 15.038 14.9002 14.2959 15.5374L13.4532 14.5067C14.1954 13.8695 14.9375 13.2323 15.8032 12.6159L16.5016 13.7493ZM12.1929 17.4699C11.5742 18.1278 10.9348 18.9093 10.3161 19.5673L9.3084 18.7628C9.94782 17.9813 10.5873 17.1998 11.3294 16.5626L12.1929 17.4699ZM8.54213 21.809C8.02622 22.6113 7.38679 23.3928 6.87087 24.1951L5.84236 23.5141C6.35828 22.7118 6.99771 21.9303 7.51362 21.1281L8.54213 21.809ZM5.32312 26.6018C4.78643 27.5276 4.39402 28.3506 3.87811 29.1529L2.70531 28.5747C3.242 27.6489 3.75792 26.8466 4.27384 26.0444L5.32312 26.6018ZM2.5566 31.7247C2.04068 32.527 1.62751 33.4735 1.2351 34.2966L0.062309 33.7183C0.454717 32.8953 0.991404 31.9695 1.38381 31.1465L2.5566 31.7247Z" fill="#FFEDED"/>
<path d="M75.182 28.8242L74.0299 28.1225L70.9541 33.5743L65.8115 30.1695L65.1098 31.3215L71.4044 35.4281L75.182 28.8242Z" fill="#FFEDED"/>
</g>
<path d="M82.25 63.4166V72.9166L85.4167 69.75M82.25 72.9166L79.0834 69.75" stroke="white" stroke-width="1.5" stroke-linecap="round" stroke-linejoin="round"/>
<path d="M102.833 61.8333V69.75C102.833 77.6666 99.6666 80.8333 91.75 80.8333H82.25C74.3333 80.8333 71.1666 77.6666 71.1666 69.75V60.25C71.1666 52.3333 74.3333 49.1666 82.25 49.1666H90.1666" stroke="white" stroke-width="1.5" stroke-linecap="round" stroke-linejoin="round"/>
<path d="M102.833 61.8333H96.5C91.75 61.8333 90.1666 60.25 90.1666 55.5V49.1666L102.833 61.8333Z" stroke="white" stroke-width="1.5" stroke-linecap="round" stroke-linejoin="round"/>
<defs>
<clipPath id="clip0_156_1568">
<rect width="34.5674" height="92.838" fill="white" transform="translate(0 34.0889) rotate(-80.4543)"/>
</clipPath>
</defs>
</svg>
