<svg width="114" height="89" viewBox="0 0 114 89" fill="none" xmlns="http://www.w3.org/2000/svg">
<g clip-path="url(#clip0_156_1569)">
<path d="M67.0688 31.5441L66.5882 32.6801C65.7148 32.2968 64.8414 31.9135 63.9679 31.5301L64.363 30.3027C65.2364 30.686 66.1954 31.1608 67.0688 31.5441ZM61.554 29.5009L61.1589 30.7284C60.2797 30.5221 59.3148 30.2243 58.3441 30.1036L58.5621 28.8703C59.5328 28.991 60.5891 29.2032 61.554 29.5009ZM55.7414 28.4226L55.5234 29.6559C54.5527 29.5352 53.6676 29.5059 52.6054 29.4708L52.6464 28.2316C53.7086 28.2668 54.7707 28.3019 55.7414 28.4226ZM49.7226 28.2236L49.8586 29.4686C48.882 29.5249 47.9055 29.5812 47.0145 29.729L46.8785 28.4839C47.855 28.4276 48.746 28.2799 49.7226 28.2236ZM43.937 29.0069L44.2501 30.2578C43.2677 30.4912 42.3767 30.6389 41.4799 30.9637L41.0754 29.7984C41.9722 29.4736 42.9546 29.2403 43.937 29.0069ZM38.2078 30.7669L38.6124 31.9322C37.7155 32.257 36.9043 32.6732 36.0016 33.175L35.42 32.0038C36.4083 31.5935 37.3966 31.1831 38.2078 30.7669ZM32.9804 33.4295L33.6534 34.5151C33.2935 34.6804 33.1106 34.8516 32.8363 35.1083C32.2935 35.4448 31.8363 35.8727 31.2935 36.2092L30.5291 35.2092C31.0719 34.8727 31.5291 34.4448 32.0719 34.1083C32.3462 33.8516 32.7061 33.6863 32.9804 33.4295ZM28.2548 36.9948L29.1107 37.9092C28.9278 38.0804 28.7449 38.2516 28.5621 38.4227C28.0134 38.9362 27.5562 39.3642 27.0932 39.9691L26.1459 39.1403C26.6945 38.6268 27.1576 38.0218 27.7062 37.5083C27.8891 37.3372 28.072 37.166 28.2548 36.9948ZM25.1612 42.1205C24.6067 42.811 24.0464 43.6786 23.4919 44.3691L22.4532 43.6259C23.0135 42.7583 23.568 42.0678 24.2139 41.2917L25.1612 42.1205ZM21.9937 46.8006C21.5248 47.5826 21.1415 48.456 20.7582 49.3294L19.6222 48.8488C20.0055 47.9754 20.4802 47.0164 20.9492 46.2344L21.9937 46.8006ZM19.5168 52.0353C19.1335 52.9087 18.8357 53.8736 18.6294 54.7528L17.402 54.3578C17.6997 53.3929 17.9974 52.4281 18.3808 51.5547L19.5168 52.0353ZM18.0047 57.5677C17.7984 58.4469 17.6777 59.4177 17.557 60.3884L16.2322 60.2559C16.3529 59.2852 16.4736 58.3145 16.6858 57.2582L18.0047 57.5677ZM17.4633 63.2208C17.434 64.1059 17.4904 65.0825 17.5467 66.059L16.216 66.1036C16.1597 65.1271 16.1034 64.1505 16.1385 63.0883L17.4633 63.2208ZM17.8071 68.9031C17.9548 69.7941 18.1881 70.7765 18.3359 71.6675L17.085 71.9806C16.8517 70.9982 16.6183 70.0157 16.562 69.0392L17.8071 68.9031ZM19.0418 74.4378C19.3666 75.3346 19.5999 76.317 19.9247 77.2138L18.7594 77.6184C18.4346 76.7215 18.2013 75.7391 17.8765 74.8423L19.0418 74.4378ZM20.899 79.9043C21.3094 80.8926 21.7256 81.7039 22.0504 82.6007L20.8792 83.1822C20.4689 82.194 20.1441 81.2971 19.8193 80.4003L20.899 79.9043ZM23.2932 85.2115C23.618 86.1083 24.1198 87.011 24.536 87.8222L23.3648 88.4038C22.9486 87.5925 22.5382 86.6043 22.122 85.793L23.2932 85.2115Z" fill="#FFEDED"/>
<path d="M65.0463 25.7175L63.7895 26.2076L66.2576 31.9602L60.4311 33.9828L60.9212 35.2395L68.0044 32.7269L65.0463 25.7175Z" fill="#FFEDED"/>
</g>
<path d="M90.25 46.75H99.75C107.667 46.75 110.833 43.5 110.833 35.375V25.625C110.833 17.5 107.667 14.25 99.75 14.25H90.25C82.3333 14.25 79.1666 17.5 79.1666 25.625V35.375C79.1666 43.5 82.3333 46.75 90.25 46.75Z" stroke="white" stroke-width="1.5" stroke-linecap="round" stroke-linejoin="round"/>
<path d="M100.542 41.0625C102.283 41.0625 103.708 39.6 103.708 37.8125V23.1875C103.708 21.4 102.283 19.9375 100.542 19.9375C98.8 19.9375 97.375 21.4 97.375 23.1875V37.8125C97.375 38.6745 97.7086 39.5011 98.3025 40.1106C98.8963 40.7201 99.7018 41.0625 100.542 41.0625ZM89.4583 41.0625C91.2 41.0625 92.625 39.6 92.625 37.8125V32.125C92.625 30.3375 91.2 28.875 89.4583 28.875C87.7166 28.875 86.2916 30.3375 86.2916 32.125V37.8125C86.2916 38.6745 86.6253 39.5011 87.2191 40.1106C87.813 40.7201 88.6184 41.0625 89.4583 41.0625Z" stroke="white" stroke-width="1.5" stroke-linecap="round" stroke-linejoin="round"/>
<defs>
<clipPath id="clip0_156_1569">
<rect width="34.5674" height="92.838" fill="white" transform="translate(23.6216 88.6781) rotate(-133.106)"/>
</clipPath>
</defs>
</svg>
