<svg width="55" height="109" viewBox="0 0 55 109" fill="none" xmlns="http://www.w3.org/2000/svg">
<g clip-path="url(#clip0_156_1570)">
<path d="M53.3917 109C53.0701 107.885 52.7484 106.61 52.4268 105.495L54.035 105.017C54.3566 106.132 54.8391 107.407 55.1607 108.681L53.3917 109ZM51.1402 102.148C50.6578 101.033 50.1753 99.9176 49.6929 98.8022L51.1402 98.1649C51.6227 99.2803 52.1052 100.396 52.5876 101.67L51.1402 102.148ZM48.2455 95.4561C47.7631 94.3407 47.1198 93.2253 46.4765 92.2693L47.9239 91.4726C48.5671 92.588 49.0496 93.7033 49.6929 94.8187L48.2455 95.4561ZM44.5467 88.9231C43.9034 87.9671 43.2601 86.8517 42.456 85.8956L43.7426 84.9396C44.3859 85.8956 45.19 87.011 45.8332 88.1264L44.5467 88.9231ZM40.3654 83.0275C39.5613 82.0715 38.7572 81.1154 38.1139 80.1594L39.4005 79.044C40.2046 80 41.0087 80.9561 41.8128 81.9121L40.3654 83.0275ZM35.5408 77.4506C34.7367 76.4945 33.7718 75.6978 32.9677 74.9011L34.0935 73.7858C35.0584 74.5825 35.8625 75.5385 36.6666 76.4945L35.5408 77.4506ZM30.2338 72.3517C29.2689 71.555 28.304 70.7583 27.3391 69.9616L28.304 68.6869C29.2689 69.4836 30.2338 70.2803 31.1987 71.077L30.2338 72.3517ZM24.6052 67.7308C23.4794 66.9341 22.5145 66.2967 21.5496 65.6594L22.5145 64.3847C23.6402 65.022 24.6052 65.8187 25.5701 66.4561L24.6052 67.7308ZM18.3332 63.7473C17.2075 63.1099 16.2426 62.4726 15.1169 61.9945L15.9209 60.5605C17.0467 61.1978 18.1724 61.6759 19.1373 62.3132L18.3332 63.7473ZM11.9005 60.2418C10.7748 59.7638 9.64902 59.2858 8.52329 58.8077L9.00574 57.3737C10.1315 57.8517 11.2572 58.3297 12.5438 58.8077L11.9005 60.2418ZM4.98528 57.533C3.85955 57.055 2.73382 56.7363 1.44727 56.4176L1.92972 54.8242C3.21627 55.1429 4.342 55.6209 5.46773 55.9396L4.98528 57.533Z" fill="white"/>
<path d="M4.82456 63.5879L6.27193 62.7912L2.25146 55.9396L9.4883 52.4341L8.84503 51L0 55.1429L4.82456 63.5879Z" fill="white"/>
</g>
<path d="M26 3.08337V7.70837M38 3.08337V7.70837M24.5 20.0417H36.5M24.5 26.2084H32M38 5.39587C42.995 5.67337 45.5 7.63129 45.5 14.8771V24.4046C45.5 30.7563 44 33.9321 36.5 33.9321H27.5C20 33.9321 18.5 30.7563 18.5 24.4046V14.8771C18.5 7.63129 21.005 5.68879 26 5.39587H38Z" stroke="white" stroke-width="1.5" stroke-miterlimit="10" stroke-linecap="round" stroke-linejoin="round"/>
<defs>
<clipPath id="clip0_156_1570">
<rect width="55" height="58" fill="white" transform="translate(0 51)"/>
</clipPath>
</defs>
</svg>
