<svg width="134" height="136" viewBox="0 0 134 136" fill="none" xmlns="http://www.w3.org/2000/svg">
<g clip-path="url(#clip0_156_1571)">
<path d="M2.05152 111.016L2.15902 110.363L4.04211 110.692L3.93768 111.327C3.73804 112.541 3.57575 113.761 3.45389 114.968L1.54929 114.77C1.68038 113.506 1.84881 112.249 2.05459 110.998L2.05152 111.016ZM3.08928 105.989C3.43782 104.57 3.86721 103.125 4.33087 101.705L6.15228 102.293C5.69476 103.675 5.29326 105.067 4.95087 106.449L3.08928 105.989ZM1.27573 119.232L3.18621 119.278C3.16128 120.712 3.17064 122.171 3.26083 123.606L1.34444 123.712C1.26039 122.241 1.24159 120.723 1.27573 119.232ZM5.86511 97.508C6.41601 96.1409 7.026 94.7644 7.68588 93.4344L9.40826 94.2739C8.77321 95.5696 8.19111 96.8932 7.64328 98.2416L5.86204 97.5267L5.86511 97.508ZM9.75272 89.4972C10.4811 88.2169 11.2656 86.9457 12.0843 85.6994L13.6765 86.7477C12.8826 87.9597 12.123 89.1965 11.4007 90.4395L9.73405 89.4941L9.75272 89.4972ZM14.6776 82.0598C15.5805 80.8849 16.5208 79.7161 17.4922 78.5908L18.9355 79.8447C17.9889 80.9357 17.0765 82.0515 16.1954 83.2109L14.6776 82.0598ZM20.5219 75.3298C21.5589 74.2728 22.6488 73.2437 23.7668 72.2768L25.0269 73.7116C23.9493 74.666 22.8842 75.6608 21.8721 76.6835L20.5219 75.3298ZM27.2237 69.4505C28.4072 68.5519 29.625 67.6781 30.8709 66.8664L31.9135 68.4572C30.7111 69.2377 29.5368 70.0802 28.3937 70.9663L27.2237 69.4505ZM34.6836 64.559C35.992 63.8343 37.3315 63.1532 38.6618 62.528L39.4683 64.2718C38.1815 64.8657 36.8824 65.5343 35.6175 66.2278L34.6836 64.559ZM42.7807 60.808C44.1704 60.2885 45.61 59.8156 47.0186 59.4143L47.5794 61.2519L47.3617 61.2928C46.1895 61.6563 44.8121 62.101 43.4629 62.608L42.7994 60.811L42.7807 60.808ZM51.3254 58.3005C52.361 58.0681 53.3966 57.8356 54.4322 57.6031L55.6264 57.3392L56.0473 59.2114L54.8531 59.4753C53.8175 59.7078 52.785 59.9215 51.765 60.1758L51.341 58.3223L51.3254 58.3005ZM59.8775 56.3314C61.4386 55.936 62.7881 55.5442 64.0286 55.1153L64.6329 56.9217C63.3551 57.3444 61.9434 57.7644 60.3419 58.1723L59.8619 56.3096L59.8775 56.3314ZM68.0078 53.5448C68.3186 53.4041 68.6325 53.2448 68.9464 53.0854C69.8695 52.6043 70.7831 52.0641 71.6716 51.443L72.7764 53.0057C71.8226 53.6735 70.8407 54.2792 69.8181 54.7824C69.4825 54.9573 69.1499 55.1136 68.8173 55.2699L68.0078 53.5448ZM74.8642 48.7075C75.8607 47.663 76.7327 46.5597 77.4583 45.4132L79.0752 46.4271C78.2939 47.6796 77.3444 48.9044 76.2361 50.0455L74.8642 48.7075ZM79.6912 37.6673L81.6045 37.5792C81.6793 39.1067 81.4743 40.7033 81.0296 42.2413L79.202 41.6913C79.5912 40.3744 79.7811 38.9863 79.7099 37.6704L79.6912 37.6673Z" fill="white"/>
<path d="M71.9468 43.3559L73.2503 44.7594L80.1532 38.357L86.0401 45.7121L87.5404 44.5203L80.365 35.5532L71.9468 43.3559Z" fill="white"/>
</g>
<path d="M120.938 15.0875H114.062M117.5 11.6309V18.7142" stroke="#F1F1F1" stroke-width="1.5" stroke-miterlimit="10" stroke-linecap="round" stroke-linejoin="round"/>
<path d="M124.127 2.83337H110.872C107.944 2.83337 105.565 5.29837 105.565 8.30171V28.2625C105.565 30.8125 107.339 31.8892 109.511 30.6567L116.221 26.8175C116.936 26.4067 118.091 26.4067 118.792 26.8175L125.502 30.6567C127.675 31.9034 129.449 30.8267 129.449 28.2625V8.30171C129.435 5.29837 127.056 2.83337 124.127 2.83337Z" stroke="#F1F1F1" stroke-width="1.5" stroke-linecap="round" stroke-linejoin="round"/>
<defs>
<clipPath id="clip0_156_1571">
<rect width="99.8143" height="73.5643" fill="white" transform="translate(88.7874 36.9384) rotate(99.3395)"/>
</clipPath>
</defs>
</svg>
