<svg width="95" height="73" viewBox="0 0 95 73" fill="none" xmlns="http://www.w3.org/2000/svg">
<g clip-path="url(#clip0_156_1565)">
<path d="M23.0407 46.9782L24.1887 46.5271C24.5257 47.4194 24.8627 48.3117 25.1997 49.204L24.0462 49.7803C23.7092 48.888 23.3777 47.8705 23.0407 46.9782ZM25.438 52.3486L26.5916 51.7723C27.0592 52.5449 27.5213 53.4427 28.114 54.2209L27.0801 54.9278C26.4874 54.1496 25.9002 53.2464 25.438 52.3486ZM28.7332 57.2568L29.7671 56.5499C30.3598 57.328 30.958 57.9811 31.6759 58.7647L30.7616 59.6022C30.0438 58.8186 29.3259 58.0349 28.7332 57.2568ZM32.801 61.6974L33.5956 60.7293C34.319 61.3878 35.0423 62.0463 35.7711 62.5797L34.9765 63.5478C34.2532 62.8893 33.5243 62.3559 32.801 61.6974ZM37.4077 65.2841L38.0827 64.1854C38.9366 64.7242 39.6654 65.2576 40.5248 65.6714L39.975 66.7755C39.1156 66.3618 38.2616 65.8229 37.4077 65.2841ZM42.6729 68.1474L43.2228 67.0432C44.0822 67.457 44.9471 67.7456 45.9371 68.0397L45.5069 69.2745C44.5224 68.8553 43.5378 68.436 42.6729 68.1474ZM48.2322 70.0207L48.5373 68.7804C48.9072 68.922 49.1574 68.933 49.5328 68.9494C50.153 69.1019 50.7786 69.1294 51.3987 69.2819L51.2188 70.5277C50.5986 70.3751 49.973 70.3477 49.3529 70.1952C48.9775 70.1787 48.6076 70.0372 48.2322 70.0207ZM54.0857 70.904L54.1405 69.6527C54.3907 69.6637 54.641 69.6747 54.8912 69.6856C55.642 69.7185 56.2676 69.7459 57.0238 69.6537L57.0941 70.9104C56.3434 70.8775 55.5872 70.9698 54.8364 70.9369C54.5862 70.9259 54.3359 70.915 54.0857 70.904ZM59.9126 69.5296C60.794 69.4428 61.8059 69.2364 62.6873 69.1497L62.8827 70.4119C61.8708 70.6183 60.9894 70.705 59.9829 70.7863L59.9126 69.5296ZM65.4729 68.5195C66.3598 68.3077 67.2521 67.9707 68.1444 67.6337L68.5955 68.7817C67.7032 69.1187 66.6858 69.4502 65.799 69.6621L65.4729 68.5195ZM70.9465 66.6282C71.8388 66.2912 72.7366 65.829 73.5092 65.3614L74.0855 66.515C73.1877 66.9771 72.2899 67.4392 71.3976 67.7762L70.9465 66.6282ZM75.9579 63.839C76.7305 63.3714 77.5087 62.7786 78.2869 62.1859L79.1189 63.2253C78.3407 63.818 77.5625 64.4107 76.6593 64.998L75.9579 63.839ZM80.3766 60.2716C81.0296 59.6734 81.6881 58.9501 82.3466 58.2268L83.3092 59.1465C82.6507 59.8698 81.9922 60.5932 81.2086 61.311L80.3766 60.2716ZM84.197 56.0513C84.7304 55.3225 85.2693 54.4685 85.8027 53.7397L86.9014 54.4147C86.3625 55.2686 85.8236 56.1226 85.1651 56.8459L84.197 56.0513ZM87.2887 51.2975C87.7024 50.4381 88.2413 49.5842 88.655 48.7248L89.7592 49.2746C89.3455 50.134 88.8066 50.9879 88.3929 51.8474L87.2887 51.2975ZM89.8963 46.1465C90.3155 45.1619 90.6041 44.297 91.0179 43.4376L92.2527 43.8678C91.8335 44.8524 91.4197 45.7118 91.006 46.5712L89.8963 46.1465ZM92.0144 40.7233C92.4281 39.8638 92.7222 38.8738 93.0108 38.0089L94.2456 38.4391C93.957 39.304 93.5378 40.2885 93.2492 41.1534L92.0144 40.7233Z" fill="#FFEDED"/>
<path d="M20.2914 52.4991L21.5207 53.0544L23.9055 47.2668L29.4264 50.016L29.9817 48.7867L23.2315 45.4822L20.2914 52.4991Z" fill="#FFEDED"/>
</g>
<path d="M15.2501 35.75H24.7501C32.6667 35.75 35.8334 32.5 35.8334 24.375V14.625C35.8334 6.5 32.6667 3.25 24.7501 3.25H15.2501C7.33341 3.25 4.16675 6.5 4.16675 14.625V24.375C4.16675 32.5 7.33341 35.75 15.2501 35.75Z" stroke="white" stroke-width="1.5" stroke-linecap="round" stroke-linejoin="round"/>
<path d="M25.5417 30.0625C27.2834 30.0625 28.7084 28.6 28.7084 26.8125V12.1875C28.7084 10.4 27.2834 8.9375 25.5417 8.9375C23.8001 8.9375 22.3751 10.4 22.3751 12.1875V26.8125C22.3751 27.6745 22.7087 28.5011 23.3026 29.1106C23.8964 29.7201 24.7019 30.0625 25.5417 30.0625ZM14.4584 30.0625C16.2001 30.0625 17.6251 28.6 17.6251 26.8125V21.125C17.6251 19.3375 16.2001 17.875 14.4584 17.875C12.7167 17.875 11.2917 19.3375 11.2917 21.125V26.8125C11.2917 27.6745 11.6254 28.5011 12.2192 29.1106C12.8131 29.7201 13.6186 30.0625 14.4584 30.0625Z" stroke="white" stroke-width="1.5" stroke-linecap="round" stroke-linejoin="round"/>
<defs>
<clipPath id="clip0_156_1565">
<rect width="34.5674" height="92.838" fill="white" transform="translate(94.2621 38.0637) rotate(92.5087)"/>
</clipPath>
</defs>
</svg>
