<svg width="97" height="100" viewBox="0 0 97 100" fill="none" xmlns="http://www.w3.org/2000/svg">
<g clip-path="url(#clip0_156_1567)">
<path d="M30.772 42.0719L31.9908 42.2622C31.8311 43.2025 31.6715 44.1429 31.5118 45.0833L30.2252 44.9983C30.3848 44.0579 30.6124 43.0123 30.772 42.0719ZM30.1298 47.9179L31.4164 48.0029C31.4299 48.906 31.3755 49.9142 31.4942 50.8852L30.2449 50.9733C30.1262 50.0024 30.0754 48.9262 30.1298 47.9179ZM30.4958 53.8183L31.7452 53.7302C31.8639 54.7011 32.0505 55.5668 32.2745 56.6057L31.0624 56.867C30.8385 55.8281 30.6145 54.7892 30.4958 53.8183ZM31.7649 59.7052L32.9396 59.2708C33.2314 60.2044 33.5233 61.138 33.8831 61.9664L32.7084 62.4009C32.4165 61.4672 32.0568 60.6388 31.7649 59.7052ZM33.9303 65.1271L35.0676 64.5195C35.5326 65.4158 35.8924 66.2442 36.4253 67.0353L35.3932 67.7108C34.8603 66.9197 34.3953 66.0234 33.9303 65.1271ZM37.0293 70.2571L38.0614 69.5817C38.5943 70.3727 39.1951 71.0586 39.9012 71.8123L38.9064 72.6609C38.2683 71.802 37.6301 70.943 37.0293 70.2571ZM40.882 74.6811L41.7716 73.7646C42.0194 74.0735 42.2299 74.2094 42.5456 74.4131C43.0038 74.8579 43.53 75.1974 43.9883 75.6422L43.2039 76.6266C42.7457 76.1819 42.2195 75.8423 41.7612 75.3975C41.4455 75.1938 41.1977 74.8848 40.882 74.6811ZM45.4885 78.399L46.1676 77.3467C46.3781 77.4825 46.5886 77.6183 46.799 77.7541C47.4304 78.1616 47.9566 78.5011 48.6559 78.8034L48.0821 79.9236C47.4507 79.5162 46.7514 79.2139 46.1199 78.8065C45.9095 78.6707 45.699 78.5348 45.4885 78.399ZM51.2122 80.1548C52.0167 80.5249 52.9944 80.8577 53.799 81.2279L53.3304 82.416C52.3527 82.0832 51.5481 81.7131 50.6383 81.2751L51.2122 80.1548ZM56.5216 82.0905C57.3941 82.3554 58.3344 82.515 59.2748 82.6747L59.0846 83.8934C58.1442 83.7338 57.0986 83.5062 56.2261 83.2413L56.5216 82.0905ZM62.2012 83.2216C63.1415 83.3812 64.1498 83.4357 65.0529 83.4222L64.9679 84.7088C63.9596 84.6544 62.9513 84.6 62.0109 84.4403L62.2012 83.2216ZM67.9352 83.3444C68.8382 83.3309 69.8092 83.2122 70.7801 83.0935L70.9735 84.4107C70.0025 84.5294 69.0316 84.6482 67.9554 84.699L67.9352 83.3444ZM73.5504 82.4963C74.4162 82.3096 75.3498 82.0178 76.2834 81.7259L76.6499 83.0058C75.7163 83.2977 74.7827 83.5895 73.7438 83.8135L73.5504 82.4963ZM78.9791 80.7824C79.8075 80.4226 80.7038 79.9576 81.5322 79.5978L82.1397 80.7352C81.2434 81.2002 80.3471 81.6652 79.4135 81.9571L78.9791 80.7824ZM84.0479 78.2401C84.839 77.7072 85.7353 77.2422 86.5264 76.7093L87.2019 77.7414C86.4108 78.2743 85.5145 78.7394 84.7234 79.2723L84.0479 78.2401ZM88.8996 75.1106C89.7586 74.4724 90.4444 73.8716 91.2355 73.3387L92.0841 74.3335C91.2251 74.9716 90.4341 75.5045 89.643 76.0374L88.8996 75.1106ZM93.4661 71.4988C94.2572 70.9659 95.011 70.2599 95.6968 69.659L96.5454 70.6538C95.8596 71.2547 95.0006 71.8928 94.3148 72.4936L93.4661 71.4988Z" fill="#FFEDED"/>
<path d="M25.6114 45.4494L26.3921 46.5494L31.3729 42.7578L34.7502 47.9184L35.8503 47.1377L31.6922 40.877L25.6114 45.4494Z" fill="#FFEDED"/>
</g>
<g clip-path="url(#clip1_156_1567)">
<path d="M31.8934 7.6001L22.3334 13.9734V28.0001H29V17.3334H34.3334V28.0001H41V13.6668L31.8934 7.6001Z" fill="white"/>
<path d="M34.3334 4V6.01333L37 7.78667L39.3067 9.33333H41V10.4667L43.6667 12.2533V14.6667H46.3334V17.3333H43.6667V20H46.3334V22.6667H43.6667V28H51.6667V4H34.3334ZM46.3334 12H43.6667V9.33333H46.3334V12Z" fill="white"/>
</g>
<defs>
<clipPath id="clip0_156_1567">
<rect width="34.5674" height="92.838" fill="white" transform="translate(96.7491 70.3381) rotate(122.835)"/>
</clipPath>
<clipPath id="clip1_156_1567">
<rect width="32" height="32" fill="white" transform="translate(21)"/>
</clipPath>
</defs>
</svg>
