<svg width="121" height="65" viewBox="0 0 121 65" fill="none" xmlns="http://www.w3.org/2000/svg">
<g clip-path="url(#clip0_156_1566)">
<path d="M49.0408 25.6197L50.1888 26.0708C50.5258 25.1785 50.8628 24.2862 51.1998 23.3939L50.0463 22.8176C49.7093 23.7099 49.3778 24.7274 49.0408 25.6197ZM51.4382 20.2493L52.5917 20.8256C53.0593 20.053 53.5214 19.1552 54.1141 18.377L53.0803 17.6701C52.4875 18.4483 51.9003 19.3515 51.4382 20.2493ZM54.7333 15.3411L55.7672 16.048C56.3599 15.2699 56.9581 14.6168 57.676 13.8332L56.7617 12.9957C56.0439 13.7793 55.326 14.563 54.7333 15.3411ZM58.8011 10.9005L59.5957 11.8686C60.3191 11.2101 61.0424 10.5516 61.7712 10.0182L60.9766 9.0501C60.2533 9.70861 59.5245 10.242 58.8011 10.9005ZM63.4078 7.31384L64.0828 8.41255C64.9367 7.87368 65.6656 7.34029 66.525 6.92654L65.9751 5.82235C65.1157 6.2361 64.2618 6.77497 63.4078 7.31384ZM68.673 4.4505L69.2229 5.55469C70.0823 5.14094 70.9472 4.85232 71.9372 4.55821L71.507 3.32342C70.5225 3.74265 69.538 4.16188 68.673 4.4505ZM74.2324 2.57719L74.5374 3.81747C74.9073 3.6759 75.1576 3.66493 75.5329 3.64849C76.1531 3.49595 76.7787 3.46854 77.3988 3.31601L77.2189 2.07025C76.5988 2.22278 75.9731 2.25019 75.353 2.40273C74.9776 2.41917 74.6077 2.56075 74.2324 2.57719ZM80.0858 1.69391L80.1406 2.94515C80.3909 2.93419 80.6411 2.92322 80.8914 2.91226C81.6421 2.87937 82.2677 2.85195 83.0239 2.94419L83.0942 1.68746C82.3435 1.72036 81.5873 1.62812 80.8365 1.66102C80.5863 1.67198 80.336 1.68295 80.0858 1.69391ZM85.9128 3.06834C86.7941 3.15509 87.8061 3.36148 88.6874 3.44823L88.8828 2.18603C87.8709 1.97964 86.9895 1.89289 85.9831 1.81162L85.9128 3.06834ZM91.473 4.07837C92.3599 4.29025 93.2522 4.62724 94.1445 4.96424L94.5957 3.81619C93.7033 3.4792 92.6859 3.14768 91.7991 2.93581L91.473 4.07837ZM96.9466 5.96975C97.8389 6.30674 98.7367 6.76887 99.5094 7.23647L100.086 6.08294C99.1878 5.62082 98.29 5.1587 97.3977 4.8217L96.9466 5.96975ZM101.958 8.75892C102.731 9.22653 103.509 9.81925 104.287 10.412L105.119 9.37261C104.341 8.77988 103.563 8.18716 102.659 7.59991L101.958 8.75892ZM106.377 12.3263C107.03 12.9245 107.688 13.6478 108.347 14.3711L109.309 13.4514C108.651 12.7281 107.992 12.0047 107.209 11.2869L106.377 12.3263ZM110.197 16.5466C110.731 17.2754 111.269 18.1294 111.803 18.8582L112.902 18.1832C112.363 17.3293 111.824 16.4753 111.165 15.752L110.197 16.5466ZM113.289 21.3004C113.703 22.1598 114.241 23.0137 114.655 23.8732L115.759 23.3233C115.346 22.4639 114.807 21.61 114.393 20.7505L113.289 21.3004ZM115.896 26.4514C116.316 27.436 116.604 28.3009 117.018 29.1603L118.253 28.7301C117.834 27.7456 117.42 26.8861 117.006 26.0267L115.896 26.4514ZM118.014 31.8746C118.428 32.7341 118.722 33.7241 119.011 34.589L120.246 34.1588C119.957 33.2939 119.538 32.3094 119.249 31.4445L118.014 31.8746Z" fill="#FFEDED"/>
<path d="M46.2916 20.0988L47.5209 19.5435L49.9057 25.3311L55.4266 22.5819L55.982 23.8112L49.2317 27.1157L46.2916 20.0988Z" fill="#FFEDED"/>
</g>
<g clip-path="url(#clip1_156_1566)">
<path d="M9.58325 53.5001H36.4166V57.3334H9.58325V53.5001ZM18.3999 48.3251L9.58325 39.5084L13.4166 35.8667L18.3999 40.8501L32.5833 26.6667L36.4166 30.5001L18.3999 48.3251Z" fill="white"/>
</g>
<defs>
<clipPath id="clip0_156_1566">
<rect width="34.5674" height="92.838" fill="white" transform="matrix(-0.0437718 -0.999042 -0.999042 0.0437718 120.262 34.5342)"/>
</clipPath>
<clipPath id="clip1_156_1566">
<rect width="46" height="46" fill="white" transform="translate(0 19)"/>
</clipPath>
</defs>
</svg>
