<svg width="98" height="71" viewBox="0 0 98 71" fill="none" xmlns="http://www.w3.org/2000/svg">
<g clip-path="url(#clip0_156_1564)">
<path d="M25.5079 33.9668L26.7026 34.2739C26.9277 33.347 27.1528 32.4201 27.378 31.4933L26.1625 31.0626C25.9374 31.9895 25.733 33.0399 25.5079 33.9668ZM27.2293 28.3432L28.4447 28.7738C28.8141 27.9497 29.1628 27.002 29.6557 26.1571L28.543 25.5822C28.0501 26.4271 27.5779 27.3955 27.2293 28.3432ZM29.8983 23.0683L31.011 23.6432C31.5039 22.7983 32.0176 22.0769 32.6341 21.2112L31.6241 20.492C31.0077 21.3577 30.3912 22.2234 29.8983 23.0683ZM33.3915 18.1628L34.2987 19.0262C34.9359 18.284 35.5731 17.5419 36.2311 16.9232L35.3239 16.0598C34.6867 16.8019 34.0287 17.4206 33.3915 18.1628ZM37.5241 14.0387L38.3285 15.0465C39.11 14.4071 39.768 13.7884 40.5703 13.2725L39.8893 12.244C39.087 12.7599 38.3056 13.3993 37.5241 14.0387ZM42.3988 10.5519L43.0798 11.5804C43.8821 11.0645 44.7051 10.6721 45.6516 10.2589L45.0734 9.08615C44.1476 9.62283 43.2219 10.1595 42.3988 10.5519ZM47.6868 8.01166L48.1415 9.20522C48.4913 9.0194 48.7383 8.97786 49.1088 8.91556C49.7056 8.6882 50.3231 8.58435 50.9199 8.35699L50.5887 7.14266C49.9919 7.37002 49.3744 7.47387 48.7776 7.70123C48.4071 7.76353 48.0573 7.94935 47.6868 8.01166ZM53.3879 6.41794L53.5956 7.65304C53.8426 7.6115 54.0896 7.56996 54.3367 7.52842C55.0777 7.4038 55.6953 7.29995 56.4571 7.29885L56.3729 6.04298C55.6318 6.16759 54.87 6.1687 54.129 6.29332C53.8819 6.33486 53.6349 6.3764 53.3879 6.41794ZM59.3394 7.06816C60.2247 7.04629 61.2543 7.12715 62.1397 7.10527L62.179 5.82863C61.1494 5.74777 60.264 5.76965 59.2552 5.81229L59.3394 7.06816ZM64.9815 7.3894C65.8876 7.49103 66.8145 7.71617 67.7414 7.94131L68.0485 6.74665C67.1216 6.5215 66.0712 6.31713 65.1651 6.2155L64.9815 7.3894ZM70.6455 8.59597C71.5724 8.82111 72.52 9.16977 73.3442 9.53919L73.7748 8.32375C72.8272 7.9751 71.8795 7.62644 70.9526 7.4013L70.6455 8.59597ZM75.9609 10.7502C76.785 11.1196 77.6299 11.6125 78.4748 12.1055L79.1732 10.972C78.3283 10.4791 77.4834 9.98615 76.515 9.51398L75.9609 10.7502ZM80.7833 13.7493C81.5047 14.263 82.2469 14.9002 82.989 15.5374L83.8317 14.5067C83.0896 13.8695 82.3474 13.2323 81.4817 12.6159L80.7833 13.7493ZM85.092 17.4699C85.7107 18.1278 86.3501 18.9093 86.9688 19.5673L87.9765 18.7628C87.3371 17.9813 86.6977 17.1998 85.9555 16.5626L85.092 17.4699ZM88.7428 21.809C89.2587 22.6113 89.8981 23.3928 90.414 24.1951L91.4426 23.5141C90.9266 22.7118 90.2872 21.9303 89.7713 21.1281L88.7428 21.809ZM91.9618 26.6018C92.4985 27.5276 92.8909 28.3506 93.4068 29.1529L94.5796 28.5747C94.0429 27.6489 93.527 26.8466 93.0111 26.0444L91.9618 26.6018ZM94.7283 31.7247C95.2442 32.527 95.6574 33.4735 96.0498 34.2966L97.2226 33.7183C96.8302 32.8953 96.2935 31.9695 95.9011 31.1465L94.7283 31.7247Z" fill="#FFEDED"/>
<path d="M22.103 28.8243L23.255 28.1226L26.3308 33.5745L31.4734 30.1696L32.1751 31.3216L25.8805 35.4282L22.103 28.8243Z" fill="#FFEDED"/>
</g>
<path d="M19.9375 52.0875H13.0625M16.5 48.6309V55.7142" stroke="#F1F1F1" stroke-width="1.5" stroke-miterlimit="10" stroke-linecap="round" stroke-linejoin="round"/>
<path d="M23.1274 39.8333H9.87244C6.94369 39.8333 4.56494 42.2983 4.56494 45.3016V65.2624C4.56494 67.8124 6.33869 68.8891 8.51119 67.6566L15.2212 63.8174C15.9362 63.4066 17.0912 63.4066 17.7924 63.8174L24.5024 67.6566C26.6749 68.9033 28.4487 67.8266 28.4487 65.2624V45.3016C28.4349 42.2983 26.0562 39.8333 23.1274 39.8333Z" stroke="#F1F1F1" stroke-width="1.5" stroke-linecap="round" stroke-linejoin="round"/>
<defs>
<clipPath id="clip0_156_1564">
<rect width="34.5674" height="92.838" fill="white" transform="matrix(-0.165834 -0.986154 -0.986154 0.165834 97.2849 34.0889)"/>
</clipPath>
</defs>
</svg>
