<svg width="32" height="31" viewBox="0 0 32 31" fill="none" xmlns="http://www.w3.org/2000/svg">
<path d="M0 3.44444V27.5556C0 29.45 1.58222 31 3.55556 31H28.4444C30.4 31 32 29.45 32 27.5556V3.44444C32 1.55 30.4 0 28.4444 0H3.55556C1.58222 0 0 1.55 0 3.44444ZM21.3333 10.3333C21.3333 13.1922 18.9511 15.5 16 15.5C13.0489 15.5 10.6667 13.1922 10.6667 10.3333C10.6667 7.47444 13.0489 5.16667 16 5.16667C18.9511 5.16667 21.3333 7.47444 21.3333 10.3333ZM5.33333 24.1111C5.33333 20.6667 12.4444 18.7722 16 18.7722C19.5556 18.7722 26.6667 20.6667 26.6667 24.1111V25.8333H5.33333V24.1111Z" fill="#BDEB05"/>
</svg>
