<svg width="39" height="32" viewBox="0 0 39 32" fill="none" xmlns="http://www.w3.org/2000/svg">
<path d="M14.2222 21.3333C9.47556 21.3333 0 23.7155 0 28.4444V31.9999H28.4444V28.4444C28.4444 23.7155 18.9689 21.3333 14.2222 21.3333Z" fill="#BDEB05"/>
<path d="M37.5109 6.82667C37.5287 6.63111 37.5464 6.43556 37.5464 6.22222C37.5464 6.00889 37.5287 5.81333 37.4931 5.61778L38.8087 4.58667C38.9331 4.49778 38.9509 4.32 38.8798 4.19556L37.6353 2.04444C37.5642 1.90222 37.3864 1.86667 37.262 1.90222L35.7331 2.52444C35.4131 2.27556 35.0576 2.08 34.6842 1.92L34.4531 0.266667C34.4175 0.106667 34.2931 0 34.1331 0H31.6442C31.4842 0 31.3598 0.106667 31.342 0.266667L31.1109 1.92C30.7376 2.08 30.382 2.29333 30.062 2.52444L28.5153 1.90222C28.3731 1.84889 28.2131 1.90222 28.142 2.04444L26.8975 4.19556C26.8264 4.33778 26.8442 4.49778 26.9687 4.58667L28.2842 5.61778C28.2487 5.81333 28.2309 6.02667 28.2309 6.22222C28.2309 6.41778 28.2487 6.63111 28.2842 6.82667L26.9687 7.85778C26.8442 7.94667 26.8264 8.12444 26.8975 8.24889L28.142 10.4C28.2131 10.5422 28.3909 10.5778 28.5153 10.5422L30.062 9.92C30.382 10.1689 30.7376 10.3644 31.1109 10.5244L31.342 12.1778C31.3598 12.3378 31.4842 12.4444 31.6442 12.4444H34.1331C34.2931 12.4444 34.4176 12.3378 34.4353 12.1778L34.6664 10.5244C35.0398 10.3644 35.3953 10.1511 35.7153 9.92L37.262 10.5422C37.4042 10.5956 37.5642 10.5422 37.6353 10.4L38.8798 8.24889C38.9509 8.10667 38.9331 7.94667 38.8087 7.85778L37.5109 6.82667ZM32.8887 8.44444C31.662 8.44444 30.6664 7.44889 30.6664 6.22222C30.6664 4.99556 31.662 4 32.8887 4C34.1153 4 35.1109 4.99556 35.1109 6.22222C35.1109 7.44889 34.1153 8.44444 32.8887 8.44444Z" fill="#BDEB05"/>
<path d="M33.6355 15.431L32.7466 13.8843C32.6933 13.7777 32.5688 13.7421 32.48 13.7777L31.3777 14.2221C31.1466 14.0443 30.8977 13.9021 30.6311 13.7954L30.4711 12.6221C30.4355 12.5154 30.3288 12.4443 30.2222 12.4443H28.4444C28.3377 12.4443 28.2488 12.5154 28.2311 12.6399L28.0711 13.8132C27.8044 13.9199 27.5555 14.0799 27.3244 14.2399L26.2222 13.7954C26.1155 13.7599 26.0088 13.7954 25.9555 13.9021L25.0666 15.4488C25.0133 15.5554 25.0311 15.6621 25.12 15.7332L26.0622 16.4621C26.0444 16.6043 26.0266 16.7466 26.0266 16.8888C26.0266 17.031 26.0444 17.191 26.0622 17.3154L25.12 18.0443C25.0311 18.1154 25.0133 18.2399 25.0666 18.3288L25.9555 19.8754C26.0088 19.9821 26.1333 20.0177 26.2222 19.9821L27.3244 19.5377C27.5555 19.7154 27.8044 19.8577 28.0711 19.9643L28.2311 21.1377C28.2488 21.2621 28.3377 21.3332 28.4444 21.3332H30.2222C30.3288 21.3332 30.4355 21.2621 30.4355 21.1377L30.5955 19.9643C30.8622 19.8577 31.1111 19.6977 31.3422 19.5377L32.4444 19.9821C32.5511 20.0177 32.6577 19.9821 32.7111 19.8754L33.6 18.3288C33.6533 18.2221 33.6355 18.1154 33.5466 18.0443L32.6222 17.3154C32.64 17.1732 32.6577 17.031 32.6577 16.8888C32.6577 16.7466 32.64 16.5866 32.6222 16.4621L33.5644 15.7332C33.6533 15.6621 33.6711 15.5377 33.6355 15.431ZM29.3333 18.3643C28.5155 18.3643 27.8577 17.6888 27.8577 16.8888C27.8577 16.071 28.5333 15.4132 29.3333 15.4132C30.1333 15.4132 30.8088 16.0888 30.8088 16.8888C30.8088 17.7066 30.1511 18.3643 29.3333 18.3643Z" fill="#BDEB05"/>
<path d="M6.64894 10.6667H21.8134C22.2934 10.6667 22.6845 10.2756 22.6845 9.79561V9.76005C22.6845 9.28005 22.2934 8.88894 21.8134 8.88894H21.3334C21.3334 6.25783 19.8934 4.00005 17.7778 2.75561V4.4445C17.7778 4.94228 17.3867 5.33339 16.8889 5.33339C16.3912 5.33339 16.0001 4.94228 16.0001 4.4445V2.02672C15.4312 1.8845 14.8445 1.77783 14.2223 1.77783C13.6001 1.77783 13.0134 1.8845 12.4445 2.02672V4.4445C12.4445 4.94228 12.0534 5.33339 11.5556 5.33339C11.0578 5.33339 10.6667 4.94228 10.6667 4.4445V2.75561C8.55117 4.00005 7.11117 6.25783 7.11117 8.88894H6.64894C6.16894 8.88894 5.77783 9.28005 5.77783 9.76005V9.81339C5.77783 10.2756 6.16894 10.6667 6.64894 10.6667Z" fill="#BDEB05"/>
<path d="M14.2221 17.7777C17.5288 17.7777 20.2843 15.5021 21.0843 12.4443H7.35986C8.15986 15.5021 10.9154 17.7777 14.2221 17.7777Z" fill="#BDEB05"/>
</svg>
