<svg width="24" height="23" viewBox="0 0 24 23" fill="none" xmlns="http://www.w3.org/2000/svg">
<path d="M12.2938 7.29947C9.98929 7.29947 8.12271 9.16604 8.12271 11.4706C8.12271 13.7751 9.98929 15.6417 12.2938 15.6417C14.5984 15.6417 16.465 13.7751 16.465 11.4706C16.465 9.16604 14.5984 7.29947 12.2938 7.29947ZM21.6163 10.4278C21.1366 6.07941 17.685 2.62781 13.3366 2.14813V0H11.251V2.14813C6.90265 2.62781 3.45105 6.07941 2.97137 10.4278H0.823242V12.5134H2.97137C3.45105 16.8618 6.90265 20.3134 11.251 20.793V22.9412H13.3366V20.793C17.685 20.3134 21.1366 16.8618 21.6163 12.5134H23.7644V10.4278H21.6163ZM12.2938 18.7701C8.25827 18.7701 4.99437 15.5061 4.99437 11.4706C4.99437 7.43503 8.25827 4.17112 12.2938 4.17112C16.3294 4.17112 19.5933 7.43503 19.5933 11.4706C19.5933 15.5061 16.3294 18.7701 12.2938 18.7701Z" fill="#BDEB05"/>
</svg>
